<?xml version="1.0" encoding="utf-8"?>
<!-- Generator: Adobe Illustrator 28.2.0, SVG Export Plug-In . SVG Version: 6.00 Build 0)  -->
<svg version="1.1" id="Layer_1" xmlns="http://www.w3.org/2000/svg" xmlns:xlink="http://www.w3.org/1999/xlink" x="0px" y="0px"
	 viewBox="0 0 506.21 356.82" style="enable-background:new 0 0 506.21 356.82;" xml:space="preserve">
<style type="text/css">
	.st0{fill:#231916;}
	.st1{fill:#D8004A;}
	.st2{fill:none;}
</style>
<g>
	<g>
		<g>
			<path class="st0" d="M114.25,311.15c7.81-3.93,33.27-14.58,33.27-27.54c0-12.96-21.35-17.01-34.66-18.69s-26.15-2.03-36.05-1.56
				c-9.89,0.46-14.81,2.84-14.81,5.55c0,2.72,3.7,3.47,4.86,3.47c1.16,0,3.36-0.58,4.98-1.45c1.62-0.87,2.1-2.63,6.31-3.18
				c19.44-2.55,37.9,1.5,37.9,1.5c23.26,4.69,22.39,12.27,22.45,14.35c0.06,2.08-1.04,7.06-14.93,17.01
				c-10.85,7.78-23.96,14.03-30.33,16.92c0.12-1.72,0.25-3.28,0.38-4.58c0.87-8.34,4.04-27.39,4.58-33.17
				c0.54-5.79-3.01-6.58-3.01-6.58c-4.47-0.39-4.81,6.81-4.81,6.81s-0.54,6.25-1.77,22.06c-0.43,5.51-0.68,11.88-0.83,17.93
				c-1.43,0.73-2.34,1.48-2.05,2.64c0.26,1.04,1.27,1.01,1.97,0.85c-0.18,9.86-0.1,18.2-0.1,19.46c0,2.16,0.46,7.25,2.31,7.25
				c1.85,0,2.31-2.85,2.31-6.4c0-2.62,0.28-13.68,0.78-22.64C98.89,318.48,108.93,313.82,114.25,311.15z"/>
			<path class="st0" d="M188.5,295.68c-1.77-0.77-3.63,1.62-7.33,7.79c-3.7,6.17-13.73,27.23-18.51,27.23
				c-4.78,0-0.15-13.27-3.78-13.58c-3.63-0.31-12.96,16.12-16.89,16.12c-3.93,0,0.08-16.28-2.93-16.66
				c-3.01-0.39-13.41,15.52-16.43,15.12c-2.31-0.31-1.23-7.68-1.31-12.4c0,0,0.12-4.74-4.74-4.74c-4.86,0-10.82,3.76-14.87,14.18
				c-4.05,10.41,3.99,16.37,10.76,5.44c0,0,4.74-7.81,4.74-5.9c0,1.91,0.58,8.39,4.11,8.39c3.53,0,7.35-4.63,9.03-6.48
				c1.68-1.85,5.79-7.58,5.55-4.74c-0.23,2.84-1.97,15.27,4.69,15.27c4.46,0,9.43-8.39,10.53-9.89c1.1-1.5,5.61-9.72,5.61-5.96
				c0,3.76-1.33,12.5,4.34,12.5c5.67,0,12.71-15.37,15.1-19.31c2.39-3.93,6.33-11.96,7.02-11.73c0.69,0.23-2.24,15.39-3.01,19.94
				c-0.77,4.55-2.96,19.6,1.47,18.55c3.93-0.93,1.77-7.52,1.71-9.84c-0.06-1.93,1.46-13.39,2.38-18.94
				C186.65,310.49,190.27,296.45,188.5,295.68z M116.98,320.2c0,0-7.52,12.27-9.68,12.27c-2.16,0-1.77-4.13,1.7-8.37
				c3.47-4.24,6.6-4.78,7.52-4.63C117.45,319.63,116.98,320.2,116.98,320.2z"/>
			<path class="st0" d="M245.24,302c-5.15-0.21-9.53-0.23-13.16-0.16c10.8-5.68,33.76-15.64,33.76-24.88
				c0-8.58-17.44-11.84-27.65-12.99c-10.21-1.15-19.69-0.55-27.28-0.24c-7.59,0.32-10.51,2.47-10.51,4.33
				c0,1.86,2.84,2.37,3.73,2.37c0.89,0,2.57-0.4,3.82-0.99c1.24-0.59,2.1-2.26,5.32-2.67c7.6-0.96,14.77-1.5,23.18-0.69
				c13.16,1.27,20.33,7.1,20.33,10.72c0,3.12-3.31,8.48-13.96,15.27c-7.41,4.73-14.24,8.19-18.35,10.11
				c-0.5,0.04-0.97,0.08-1.41,0.12c1.33-9.6,3.5-23.11,3.96-27.97c0.57-6.02-2.39-6.43-2.39-6.43c-4.01-0.46-4.42,7.03-4.42,7.03
				s-1.04,6.47-1.91,22.95c-0.09,1.62-0.17,3.31-0.26,5.05l0,0c0,0-4.42,0.64-6.33,1.37c-1.91,0.73-2.87,1.64-2.84,2.83
				c0.04,1.2,1.2,2.35,3.26,2.31c0.58-0.01,2.66-0.19,5.59-0.44c-0.76,14.82-1.55,30.65-1.58,32.44c-0.02,1.73,0.04,4.47,0.82,5.66
				l0,0.01c0,0,0.28,1.28,3.18,0.58c2.89-0.69,13.94-4.86,25.57-10.53c11.63-5.67,27.37-13.77,27.37-22.45
				C273.07,306.05,263.99,302.77,245.24,302z M241.53,334.75c-10.59,5.21-18.61,7.53-19.93,7.87c-1.55,0.4-1.6-1.92-1.6-1.96
				c0.26-6.3,1.35-24.06,2.23-32.02c7.43-0.62,17.19-1.37,23.35-1.37c10.47,0,20.25,1.97,20.25,7.98
				C265.83,321.27,252.12,329.54,241.53,334.75z"/>
			<path class="st0" d="M453.06,292.52c-2.02,0-5.27,1.62-9.6,2.03c-4.34,0.4-30.09,1.33-30.09,1.33s3.36-5.61,4.98-9.78
				c1.62-4.17,4.05-14.06-0.23-14.06c-4.28,0-5.61,16.43-9.32,24.01l-23.78-0.17c0,0,5.01-10.57,4.86-13.31s-1.43-2.7-1.97-2.7
				c-0.54,0-2.85,0.19-6.02,5.21c-3.16,5.01-5.28,10.45-5.28,10.45s-13.92-0.58-14.77-0.69s-3.36-0.04-3.82,1.74
				c-0.46,1.77,2.58,2.31,5.94,2.51c3.36,0.19,10.61,0.53,10.61,0.53s-3.78,10.62-4.21,13.1c0,0-5.18,7.38-10.01,12.41
				c-4.83,5.03-12.09,10.15-14.44,10.15c-2.34,0-2.66-2.86-2.66-2.86s2.98-1.16,6.19-3.59c3.21-2.43,6.39-5.24,6.39-9.81
				c0-4.57-3.44-5.5-4.95-5.5c-1.5,0-5.27,0.84-9.03,5.06c-3.76,4.22-4.08,11.46-4.08,11.46s-4.69,1.13-5.38,1.3
				c0,0,0.41-1.74-1.42-3.38c-1.82-1.65-5.7-4.11-5.7-6.42c0-2.31,2.6-5.03,3.67-6.42c1.07-1.39,2.11-3.04,2.11-4.14
				c0-1.1-0.38-2.11-2.17-2.11c-1.79,0-11.28,10.18-12.99,11.8c-1.71,1.62-8.68,7.26-8.68,7.26s-8.16-4.48-8.16-7.84
				s4.89-6.89,7.78-7.96c2.89-1.07,8.56-2.86,8.56-4.83c0-1.97-1.76-2.31-2.89-2.31s-9.03,1.42-14.93,7.38
				c-5.9,5.96-8.94,15.85-8.94,15.85s-1.06,2.1-0.9,0.67c0.17-1.51,0.49-6.76,0.56-7.39c0.12-1.07,1.64-5.87-0.31-6.38
				c0,0-3.47-1.27-7.71,0.46c-4.24,1.74-11.03,10.65-11.03,17.32s4.86,6.09,5.17,6.09s3.32-0.04,6.56-6.75
				c1.2-2.39,1.04-2.78,1.7-2.78s0.58,0.66,0.73,2.04c0.15,1.39,0.77,7.5,3.51,7.5c2.74,0,3.32-6.34,4.44-9.62
				c1.12-3.28,2.62-7.17,3.28-7.17s2.12,2.84,4.44,4.62c2.31,1.78,4.67,3.71,4.67,3.71s-11.01,5.66-11.01,8.46
				c0,2.8,9.2,1.94,13.54-0.49c4.34-2.43,5.15-4.92,4.86-7.12c-0.25-1.64,1.91-2.62,3.74-4.15s5.15-4.84,5.5-4.84
				s0.17,1.43,0.96,2.85c0.79,1.43,4.19,4.26,5.34,5.19c1.16,0.93,1.35,0.98,1.35,1.37s-0.52,0.62-1.1,0.67
				c-0.58,0.06-11.59,1.43-11.59,4.65c0,3.22,9.7,3.03,10.38,3.03c0.68,0,6.77-0.83,6.77-5.23l5.79-1.31c0,0-0.58,6.62,6.36,6.62
				c6.94,0,11.75-5.67,14.46-8.68c2.72-3.01,7.98-9.6,9.26-10.41c0,0-0.29,3.47-0.29,5.61s0.23,13.08,7.75,13.08
				c7.52,0,14.7-10.76,18.4-15.68c3.7-4.92,6.36-8.45,8.04-11.34c1.68-2.89,4.28-6.48,4.86-6.48c0.58,0,0.58,0.35,0.35,1.79
				c-0.23,1.45-4.11,25.98-4.4,28.52c-0.29,2.55,0.4,3.59,2.02,3.59c1.62,0,2.37-0.17,2.52-2.95c0.14-2.78,5.06-37.32,5.06-37.32
				s12.56-0.23,21-0.37c8.45-0.15,19.09-0.26,20.54-0.84c1.45-0.58,2.55-1.33,2.55-3.47C456.77,293.15,455.09,292.52,453.06,292.52z
				 M347.34,319.71c1.77-1.93,3.49-1.27,3.49-1.27c1.7,1.16,0.12,3.47-0.5,4.33c-0.62,0.86-5.11,5.19-6.17,4.44
				C343.1,326.46,345.56,321.64,347.34,319.71z M283.15,320.02c0,0-6.33,14.27-8.22,14.27c-1.89,0-1.04-4.9,0.89-8.76
				c1.93-3.86,4.71-6.29,6.6-6.6C284.31,318.63,283.15,320.02,283.15,320.02z M376.5,335.91c-6.48-1.58-3.97-18.21-3.05-20.79
				c1-3.47,9.37-15.16,9.37-15.16h24.34C397.64,317.36,381.68,337.17,376.5,335.91z"/>
		</g>
	</g>
	<g>
		<g>
			<circle class="st1" cx="11.14" cy="97.33" r="7.93"/>
			<circle class="st1" cx="107.63" cy="45.07" r="7.93"/>
			<path class="st1" d="M387.96,127.81c-24.42-9.91-11.73-50.3-6.48-60.17c0,0-35.33,41.43-71.2,41.43
				c-35.87,0-52.46-48.37-57.66-69.82c-5.2,21.45-21.78,69.82-57.66,69.82c-35.87,0-71.2-41.43-71.2-41.43
				c5.25,9.87,17.94,50.26-6.48,60.17c-24.07,9.77-81.77-12.03-81.77-12.03c60.48,51.22,62.64,100.6,62.64,100.6
				c81.16-11.42,154.47-11.11,154.47-11.11s73.32-0.31,154.47,11.11c0,0,2.16-49.37,62.64-100.6
				C469.74,115.78,412.03,137.58,387.96,127.81z"/>
			<path class="st1" d="M494.28,89.39c-4.38,0-7.93,3.55-7.93,7.93c0,4.38,3.55,7.93,7.93,7.93c4.38,0,7.93-3.55,7.93-7.93
				C502.21,92.95,498.66,89.39,494.28,89.39z"/>
			<circle class="st1" cx="397.79" cy="45.07" r="7.93"/>
			<circle class="st1" cx="252.71" cy="11.95" r="7.93"/>
		</g>
	</g>
</g>
<rect class="st2" width="506.21" height="356.65"/>
</svg>
