<svg width="18" height="18" viewBox="0 0 18 18" fill="none" xmlns="http://www.w3.org/2000/svg">
<path d="M2 18C1.45 18 0.979167 17.8042 0.5875 17.4125C0.195833 17.0208 0 16.55 0 16V2C0 1.45 0.195833 0.979167 0.5875 0.5875C0.979167 0.195833 1.45 0 2 0H16C16.55 0 17.0208 0.195833 17.4125 0.5875C17.8042 0.979167 18 1.45 18 2V16C18 16.55 17.8042 17.0208 17.4125 17.4125C17.0208 17.8042 16.55 18 16 18H2ZM2 16H16V2H2V16ZM4 14H14C14.2 14 14.35 13.9083 14.45 13.725C14.55 13.5417 14.5333 13.3667 14.4 13.2L11.65 9.525C11.55 9.39167 11.4167 9.325 11.25 9.325C11.0833 9.325 10.95 9.39167 10.85 9.525L8.25 13L6.4 10.525C6.3 10.3917 6.16667 10.325 6 10.325C5.83333 10.325 5.7 10.3917 5.6 10.525L3.6 13.2C3.46667 13.3667 3.45 13.5417 3.55 13.725C3.65 13.9083 3.8 14 4 14ZM5.5 7C5.91667 7 6.27083 6.85417 6.5625 6.5625C6.85417 6.27083 7 5.91667 7 5.5C7 5.08333 6.85417 4.72917 6.5625 4.4375C6.27083 4.14583 5.91667 4 5.5 4C5.08333 4 4.72917 4.14583 4.4375 4.4375C4.14583 4.72917 4 5.08333 4 5.5C4 5.91667 4.14583 6.27083 4.4375 6.5625C4.72917 6.85417 5.08333 7 5.5 7Z" fill="white"/>
</svg>
