<svg width="28" height="27" viewBox="0 0 28 27" fill="none" xmlns="http://www.w3.org/2000/svg">
<path d="M3.56471 22.5333L12.9647 19.2L6.89804 13.1333L3.56471 22.5333ZM27.198 6.96667C26.998 7.16667 26.7647 7.26667 26.498 7.26667C26.2314 7.26667 25.998 7.16667 25.798 6.96667L25.698 6.86667C25.3869 6.55556 24.998 6.4 24.5314 6.4C24.0647 6.4 23.6758 6.55556 23.3647 6.86667L16.598 13.6333C16.398 13.8333 16.1647 13.9333 15.898 13.9333C15.6314 13.9333 15.398 13.8333 15.198 13.6333C14.998 13.4333 14.898 13.2 14.898 12.9333C14.898 12.6667 14.998 12.4333 15.198 12.2333L21.9647 5.46667C22.6758 4.75556 23.5314 4.4 24.5314 4.4C25.5314 4.4 26.3869 4.75556 27.098 5.46667L27.198 5.56667C27.398 5.76667 27.498 6 27.498 6.26667C27.498 6.53333 27.398 6.76667 27.198 6.96667ZM9.79804 2.96667C9.99804 2.76667 10.2314 2.66667 10.498 2.66667C10.7647 2.66667 10.998 2.76667 11.198 2.96667L11.3647 3.13333C12.0758 3.84444 12.4314 4.68889 12.4314 5.66667C12.4314 6.64445 12.0758 7.48889 11.3647 8.2L11.2647 8.3C11.0647 8.5 10.8314 8.6 10.5647 8.6C10.298 8.6 10.0647 8.5 9.86471 8.3C9.66471 8.1 9.56471 7.86667 9.56471 7.6C9.56471 7.33333 9.66471 7.1 9.86471 6.9L9.96471 6.8C10.2758 6.48889 10.4314 6.11111 10.4314 5.66667C10.4314 5.22222 10.2758 4.84445 9.96471 4.53333L9.79804 4.36667C9.59804 4.16667 9.49804 3.93333 9.49804 3.66667C9.49804 3.4 9.59804 3.16667 9.79804 2.96667ZM15.198 0.3C15.398 0.1 15.6314 0 15.898 0C16.1647 0 16.398 0.1 16.598 0.3L18.0314 1.73333C18.7425 2.44444 19.098 3.3 19.098 4.3C19.098 5.3 18.7425 6.15556 18.0314 6.86667L13.9314 10.9667C13.7314 11.1667 13.498 11.2667 13.2314 11.2667C12.9647 11.2667 12.7314 11.1667 12.5314 10.9667C12.3314 10.7667 12.2314 10.5333 12.2314 10.2667C12.2314 10 12.3314 9.76667 12.5314 9.56667L16.6314 5.46667C16.9425 5.15556 17.098 4.76667 17.098 4.3C17.098 3.83333 16.9425 3.44444 16.6314 3.13333L15.198 1.7C14.998 1.5 14.898 1.26667 14.898 1C14.898 0.733333 14.998 0.5 15.198 0.3ZM25.8647 16.3C25.6647 16.5 25.4314 16.6 25.1647 16.6C24.898 16.6 24.6647 16.5 24.4647 16.3L23.0314 14.8667C22.7203 14.5556 22.3314 14.4 21.8647 14.4C21.398 14.4 21.0092 14.5556 20.698 14.8667L19.2647 16.3C19.0647 16.5 18.8314 16.6 18.5647 16.6C18.298 16.6 18.0647 16.5 17.8647 16.3C17.6647 16.1 17.5647 15.8667 17.5647 15.6C17.5647 15.3333 17.6647 15.1 17.8647 14.9L19.298 13.4667C20.0092 12.7556 20.8647 12.4 21.8647 12.4C22.8647 12.4 23.7203 12.7556 24.4314 13.4667L25.8647 14.9C26.0647 15.1 26.1647 15.3333 26.1647 15.6C26.1647 15.8667 26.0647 16.1 25.8647 16.3ZM0.0980392 24.2667L5.13137 10.2667C5.24248 9.97778 5.41471 9.75556 5.64804 9.6C5.88137 9.44445 6.13137 9.36667 6.39804 9.36667C6.57582 9.36667 6.74248 9.4 6.89804 9.46667C7.0536 9.53333 7.19804 9.63333 7.33137 9.76667L16.3314 18.7667C16.4647 18.9 16.5647 19.0444 16.6314 19.2C16.698 19.3556 16.7314 19.5222 16.7314 19.7C16.7314 19.9667 16.6536 20.2167 16.498 20.45C16.3425 20.6833 16.1203 20.8556 15.8314 20.9667L1.83137 26C1.56471 26.1111 1.30915 26.1278 1.06471 26.05C0.820261 25.9722 0.60915 25.8444 0.431373 25.6667C0.253595 25.4889 0.125817 25.2778 0.0480392 25.0333C-0.0297386 24.7889 -0.0130719 24.5333 0.0980392 24.2667Z" fill="white" fill-opacity="0.8"/>
</svg>
