<svg width="31" height="21" viewBox="0 0 31 21" fill="none" xmlns="http://www.w3.org/2000/svg">
<path d="M0.917969 18.9583V11.6667C0.917969 11.0104 1.05165 10.4149 1.31901 9.88021C1.58637 9.34549 1.9388 8.87153 2.3763 8.45833V4.375C2.3763 3.15972 2.80165 2.12674 3.65234 1.27604C4.50304 0.425347 5.53602 0 6.7513 0H12.5846C13.1437 0 13.6662 0.103299 14.1523 0.309896C14.6385 0.516493 15.0881 0.802083 15.5013 1.16667C15.9145 0.802083 16.3641 0.516493 16.8503 0.309896C17.3364 0.103299 17.8589 0 18.418 0H24.2513C25.4666 0 26.4996 0.425347 27.3503 1.27604C28.201 2.12674 28.6263 3.15972 28.6263 4.375V8.45833C29.0638 8.87153 29.4162 9.34549 29.6836 9.88021C29.951 10.4149 30.0846 11.0104 30.0846 11.6667V18.9583C30.0846 19.3715 29.9449 19.7179 29.6654 19.9974C29.3858 20.2769 29.0395 20.4167 28.6263 20.4167C28.2131 20.4167 27.8668 20.2769 27.5872 19.9974C27.3077 19.7179 27.168 19.3715 27.168 18.9583V17.5H3.83464V18.9583C3.83464 19.3715 3.69488 19.7179 3.41536 19.9974C3.13585 20.2769 2.7895 20.4167 2.3763 20.4167C1.96311 20.4167 1.61675 20.2769 1.33724 19.9974C1.05773 19.7179 0.917969 19.3715 0.917969 18.9583ZM16.9596 7.29167H25.7096V4.375C25.7096 3.96181 25.5699 3.61545 25.2904 3.33594C25.0108 3.05642 24.6645 2.91667 24.2513 2.91667H18.418C18.0048 2.91667 17.6584 3.05642 17.3789 3.33594C17.0994 3.61545 16.9596 3.96181 16.9596 4.375V7.29167ZM5.29297 7.29167H14.043V4.375C14.043 3.96181 13.9032 3.61545 13.6237 3.33594C13.3442 3.05642 12.9978 2.91667 12.5846 2.91667H6.7513C6.33811 2.91667 5.99175 3.05642 5.71224 3.33594C5.43273 3.61545 5.29297 3.96181 5.29297 4.375V7.29167ZM3.83464 14.5833H27.168V11.6667C27.168 11.2535 27.0282 10.9071 26.7487 10.6276C26.4692 10.3481 26.1228 10.2083 25.7096 10.2083H5.29297C4.87977 10.2083 4.53342 10.3481 4.25391 10.6276C3.97439 10.9071 3.83464 11.2535 3.83464 11.6667V14.5833Z" fill="white" fill-opacity="0.8"/>
</svg>
