<svg width="35" height="35" viewBox="0 0 35 35" fill="none" xmlns="http://www.w3.org/2000/svg">
<mask id="mask0_69_194" style="mask-type:alpha" maskUnits="userSpaceOnUse" x="0" y="0" width="35" height="35">
<rect width="35" height="35" fill="#D9D9D9"/>
</mask>
<g mask="url(#mask0_69_194)">
<path d="M6.74468 30.625C6.45302 30.625 6.16743 30.5642 5.88791 30.4427C5.6084 30.3212 5.37142 30.1632 5.17697 29.9688L4.15614 28.9479C3.91309 28.7049 3.85232 28.4375 3.97385 28.1458C4.09538 27.8542 4.32628 27.7083 4.66656 27.7083H30.3332C30.6735 27.7083 30.9044 27.8542 31.0259 28.1458C31.1475 28.4375 31.0867 28.7049 30.8436 28.9479L29.8228 29.9688C29.6284 30.1632 29.3914 30.3212 29.1119 30.4427C28.8324 30.5642 28.5468 30.625 28.2551 30.625H6.74468ZM4.37489 26.25C4.52072 25.8125 4.71517 25.3993 4.95822 25.0104C5.20128 24.6215 5.49295 24.2569 5.83322 23.9167V13.125H5.46864C5.15267 13.125 4.89138 13.0217 4.68479 12.8151C4.47819 12.6085 4.37489 12.3472 4.37489 12.0313C4.37489 11.7153 4.47819 11.454 4.68479 11.2474C4.89138 11.0408 5.15267 10.9375 5.46864 10.9375H5.83322V9.84375H5.46864C5.15267 9.84375 4.89138 9.74045 4.68479 9.53385C4.47819 9.32726 4.37489 9.06597 4.37489 8.75C4.37489 8.43403 4.47819 8.17274 4.68479 7.96615C4.89138 7.75955 5.15267 7.65625 5.46864 7.65625H5.83322V6.5625H5.46864C5.15267 6.5625 4.89138 6.4592 4.68479 6.2526C4.47819 6.04601 4.37489 5.78472 4.37489 5.46875C4.37489 5.15278 4.47819 4.89149 4.68479 4.6849C4.89138 4.4783 5.15267 4.375 5.46864 4.375H14.5832C15.3853 4.375 16.0719 4.66059 16.6431 5.23177C17.2143 5.80295 17.4999 6.48958 17.4999 7.29167V7.65625H29.5311C29.8471 7.65625 30.1084 7.75955 30.315 7.96615C30.5216 8.17274 30.6249 8.43403 30.6249 8.75C30.6249 9.06597 30.5216 9.32726 30.315 9.53385C30.1084 9.74045 29.8471 9.84375 29.5311 9.84375H17.4999V10.2083C17.4999 11.0104 17.2143 11.697 16.6431 12.2682C16.0719 12.8394 15.3853 13.125 14.5832 13.125H11.6666V22.0208C12.0068 22.0694 12.3471 22.1424 12.6874 22.2396C13.0277 22.3368 13.3436 22.4826 13.6353 22.6771C14.2673 21.0972 15.2759 19.8394 16.6614 18.9036C18.0468 17.9679 19.578 17.5 21.2551 17.5C23.4426 17.5 25.3081 18.2474 26.8515 19.7422C28.3949 21.237 29.1666 23.066 29.1666 25.2292V26.25H4.37489ZM16.552 23.3333H25.7395C25.3263 22.4583 24.7186 21.7535 23.9166 21.2188C23.1145 20.684 22.2273 20.4167 21.2551 20.4167C20.2343 20.4167 19.2985 20.6719 18.4478 21.1823C17.5971 21.6927 16.9652 22.4097 16.552 23.3333ZM11.6666 7.65625H14.5832V6.5625H11.6666V7.65625ZM11.6666 10.9375H14.5832V9.84375H11.6666V10.9375ZM8.02072 7.65625H9.47906V6.5625H8.02072V7.65625ZM8.02072 10.9375H9.47906V9.84375H8.02072V10.9375ZM8.02072 22.3854C8.26378 22.2639 8.50076 22.1727 8.73166 22.112C8.96257 22.0512 9.2117 21.9965 9.47906 21.9479V13.125H8.02072V22.3854Z" fill="white" fill-opacity="0.8"/>
</g>
</svg>
