<svg width="32" height="33" viewBox="0 0 32 33" fill="none" xmlns="http://www.w3.org/2000/svg">
<mask id="mask0_69_199" style="mask-type:alpha" maskUnits="userSpaceOnUse" x="0" y="0" width="32" height="33">
<rect y="0.600098" width="32" height="32" fill="#D9D9D9"/>
</mask>
<g mask="url(#mask0_69_199)">
<path d="M7.99967 25.9334C6.88856 25.9334 5.94412 25.5445 5.16634 24.7667C4.38856 23.9889 3.99967 23.0445 3.99967 21.9334C3.26634 21.9334 2.63856 21.6723 2.11634 21.1501C1.59412 20.6278 1.33301 20.0001 1.33301 19.2667V9.93339C1.33301 9.20006 1.59412 8.57228 2.11634 8.05006C2.63856 7.52783 3.26634 7.26672 3.99967 7.26672H21.5663C21.9219 7.26672 22.2608 7.33339 22.583 7.46672C22.9052 7.60006 23.1886 7.78895 23.433 8.03339L29.8997 14.5001C30.1441 14.7445 30.333 15.0278 30.4663 15.3501C30.5997 15.6723 30.6663 16.0112 30.6663 16.3667V19.2667C30.6663 20.0001 30.4052 20.6278 29.883 21.1501C29.3608 21.6723 28.733 21.9334 27.9997 21.9334C27.9997 23.0445 27.6108 23.9889 26.833 24.7667C26.0552 25.5445 25.1108 25.9334 23.9997 25.9334C22.8886 25.9334 21.9441 25.5445 21.1663 24.7667C20.3886 23.9889 19.9997 23.0445 19.9997 21.9334H11.9997C11.9997 23.0445 11.6108 23.9889 10.833 24.7667C10.0552 25.5445 9.11079 25.9334 7.99967 25.9334ZM19.9997 13.9334H25.333L21.333 9.93339H19.9997V13.9334ZM11.9997 13.9334H17.333V9.93339H11.9997V13.9334ZM3.99967 13.9334H9.33301V9.93339H3.99967V13.9334ZM7.99967 23.6001C8.46634 23.6001 8.86079 23.4389 9.18301 23.1167C9.50523 22.7945 9.66634 22.4001 9.66634 21.9334C9.66634 21.4667 9.50523 21.0723 9.18301 20.7501C8.86079 20.4278 8.46634 20.2667 7.99967 20.2667C7.53301 20.2667 7.13856 20.4278 6.81634 20.7501C6.49412 21.0723 6.33301 21.4667 6.33301 21.9334C6.33301 22.4001 6.49412 22.7945 6.81634 23.1167C7.13856 23.4389 7.53301 23.6001 7.99967 23.6001ZM23.9997 23.6001C24.4663 23.6001 24.8608 23.4389 25.183 23.1167C25.5052 22.7945 25.6663 22.4001 25.6663 21.9334C25.6663 21.4667 25.5052 21.0723 25.183 20.7501C24.8608 20.4278 24.4663 20.2667 23.9997 20.2667C23.533 20.2667 23.1386 20.4278 22.8163 20.7501C22.4941 21.0723 22.333 21.4667 22.333 21.9334C22.333 22.4001 22.4941 22.7945 22.8163 23.1167C23.1386 23.4389 23.533 23.6001 23.9997 23.6001ZM10.933 19.2667H21.0663C21.4441 18.8667 21.8775 18.5445 22.3663 18.3001C22.8552 18.0556 23.3997 17.9334 23.9997 17.9334C24.5997 17.9334 25.1441 18.0556 25.633 18.3001C26.1219 18.5445 26.5552 18.8667 26.933 19.2667H27.9997V16.6001H3.99967V19.2667H5.06634C5.44412 18.8667 5.87745 18.5445 6.36634 18.3001C6.85523 18.0556 7.39967 17.9334 7.99967 17.9334C8.59967 17.9334 9.14412 18.0556 9.63301 18.3001C10.1219 18.5445 10.5552 18.8667 10.933 19.2667Z" fill="white" fill-opacity="0.8"/>
</g>
</svg>
