<svg width="20" height="20" viewBox="0 0 20 20" fill="none" xmlns="http://www.w3.org/2000/svg">
<path d="M7.83646 13.1251H9.08644V6.87516H7.83646V13.1251ZM10.9134 13.1251H12.1633V6.87516H10.9134V13.1251ZM10.0013 17.9168C8.90635 17.9168 7.87716 17.709 6.91371 17.2935C5.95025 16.8779 5.11218 16.3139 4.3995 15.6016C3.68681 14.8892 3.12259 14.0515 2.70686 13.0885C2.29112 12.1255 2.08325 11.0965 2.08325 10.0015C2.08325 8.90659 2.29103 7.8774 2.70659 6.91396C3.12214 5.9505 3.6861 5.11243 4.39846 4.39975C5.11084 3.68705 5.94854 3.12284 6.91157 2.7071C7.87458 2.29137 8.90356 2.0835 9.9985 2.0835C11.0934 2.0835 12.1226 2.29127 13.0861 2.70683C14.0495 3.12239 14.8876 3.68634 15.6003 4.3987C16.313 5.11108 16.8772 5.94878 17.2929 6.91181C17.7087 7.87482 17.9165 8.9038 17.9165 9.99875C17.9165 11.0937 17.7088 12.1229 17.2932 13.0863C16.8777 14.0498 16.3137 14.8879 15.6013 15.6005C14.889 16.3132 14.0513 16.8774 13.0882 17.2932C12.1252 17.7089 11.0962 17.9168 10.0013 17.9168ZM9.9999 16.6668C11.861 16.6668 13.4374 16.021 14.7291 14.7293C16.0207 13.4376 16.6666 11.8613 16.6666 10.0001C16.6666 8.13903 16.0207 6.56264 14.7291 5.27098C13.4374 3.97931 11.861 3.33348 9.9999 3.33348C8.13879 3.33348 6.5624 3.97931 5.27073 5.27098C3.97906 6.56264 3.33323 8.13903 3.33323 10.0001C3.33323 11.8613 3.97906 13.4376 5.27073 14.7293C6.5624 16.021 8.13879 16.6668 9.9999 16.6668Z" fill="white" fill-opacity="0.7"/>
</svg>
