<svg width="82" height="82" viewBox="0 0 82 82" fill="none" xmlns="http://www.w3.org/2000/svg">
<circle cx="41" cy="41" r="41" fill="white"/>
<g clip-path="url(#clip0_123_932)">
<path d="M63.5199 42.1478H54.8373V32.174C54.8373 32.0102 54.7573 31.9284 54.6773 31.8601C54.5839 31.7646 55.2375 32.2831 41.4868 22.05V19.7169H47.6219C47.8753 19.7169 48.1287 19.4713 48.1287 19.2121V14.5048C48.1287 14.2592 47.8753 14 47.6219 14H40.9933C40.7399 14 40.4999 14.2592 40.4999 14.5048V22.1455C26.7359 32.365 27.4027 31.942 27.3094 31.942C27.2293 32.0239 27.1493 32.1876 27.1493 32.2831V42.1615H18.4935C18.2401 42.1615 18 42.407 18 42.6663V61.4952C18 61.7544 18.2401 62.0136 18.4935 62.0136H63.5199C63.7733 62.0136 64.0133 61.7544 64.0133 61.4952V42.6663C64.0133 42.407 63.7733 42.1615 63.5199 42.1615V42.1478ZM41.4868 14.9142H47.1284V18.6117H41.4868V14.9142ZM27.1627 60.9903H18.9736V58.9164H27.1627V60.9903ZM27.1627 57.8931H18.9736V46.3366H27.1627V57.8931ZM27.1627 45.3405H18.9736V43.2393H27.1627V45.3405ZM41.0067 22.8823L52.7167 31.6828H43.5541C44.1943 31.0279 44.6077 30.1001 44.6077 29.0767C44.6077 27.0711 42.9806 25.3928 41.0067 25.3928C39.0328 25.3928 37.4056 27.0711 37.4056 29.0767C37.4056 30.1001 37.8191 31.0142 38.4593 31.6828H29.2966L41.0067 22.8823ZM41.0067 31.6828C39.6196 31.6828 38.4726 30.523 38.4726 29.0767C38.4726 27.6305 39.6196 26.4844 41.0067 26.4844C42.3937 26.4844 43.5407 27.6578 43.5407 29.0767C43.5407 30.4957 42.3937 31.6828 41.0067 31.6828ZM36.4187 60.9903H28.243V58.9164H36.4187V60.9903ZM40.5265 60.9903H37.419V50.0341H40.5265V60.9903ZM44.6077 60.9903H41.5001V50.0341H44.6077V60.9903ZM53.797 60.9903H45.608V58.9164H53.797V60.9903ZM53.8771 57.8113H45.688V49.4338C45.688 49.1882 45.4346 48.9289 45.1945 48.9289H36.9255C36.6721 48.9289 36.4187 49.1882 36.4187 49.4338V57.8113H28.243V32.6788H53.8637V57.8113H53.8771ZM63.0397 60.9903H54.8507V58.9164H63.0397V60.9903ZM63.0397 57.8931H54.8507V46.3366H63.0397V57.8931ZM63.0397 45.3405H54.8507V43.2393H63.0397V45.3405Z" fill="#3D3D3D"/>
<path d="M27.1627 43.2393H18.9736V45.3405H27.1627V43.2393Z" fill="#004289"/>
<path d="M63.0264 43.2393H54.8374V45.3405H63.0264V43.2393Z" fill="#004289"/>
<path d="M47.1284 14.9277H41.4868V18.6253H47.1284V14.9277Z" fill="#004289"/>
<path d="M43.5408 31.6823C44.181 31.0274 44.5944 30.0996 44.5944 29.0899C44.5944 27.0842 42.9673 25.406 40.9934 25.406C39.0195 25.406 37.3923 27.0842 37.3923 29.0899C37.3923 30.1132 37.8058 31.0274 38.446 31.6823H29.2833L40.9934 22.8818L52.7034 31.6823H43.5408Z" fill="#004289"/>
<path d="M58.9319 47.9326C57.5448 47.9326 56.3978 49.106 56.3978 50.525V55.8053C56.3978 56.0509 56.6379 56.3101 56.8913 56.3101H60.9858C61.2259 56.3101 61.4793 56.0645 61.4793 55.8053V50.525C61.4793 49.106 60.3323 47.9326 58.9452 47.9326H58.9319ZM57.3714 50.525C57.3714 49.6927 58.025 48.9286 58.9319 48.9286C59.8388 48.9286 60.4923 49.5972 60.4923 50.525V51.6165H57.3848V50.525H57.3714ZM60.479 55.2186H57.3714V52.6262H60.479V55.2186Z" fill="#3D3D3D"/>
<path d="M23.0681 47.9326C21.6811 47.9326 20.5341 49.106 20.5341 50.525V55.8053C20.5341 56.0509 20.7741 56.3101 21.0275 56.3101H25.1221C25.3621 56.3101 25.6155 56.0645 25.6155 55.8053V50.525C25.6956 49.106 24.4685 47.9326 23.0815 47.9326H23.0681ZM21.601 50.525C21.601 49.6927 22.2546 48.9286 23.1615 48.9286C24.0684 48.9286 24.6419 49.6791 24.6419 50.525V51.6165H21.5343V50.525H21.6144H21.601ZM24.6286 55.2186H21.521V52.6262H24.6286V55.2186Z" fill="#3D3D3D"/>
<path d="M34.8582 41.1514H31.7507C31.5106 41.1514 31.2572 41.397 31.2572 41.6562V44.8353C31.2572 45.0809 31.4973 45.3401 31.7507 45.3401H34.8582C35.0983 45.3401 35.3517 45.0945 35.3517 44.8353V41.6562C35.3517 41.3151 35.1117 41.1514 34.8582 41.1514ZM34.3648 44.2486H32.3242V42.161H34.3648V44.2486Z" fill="#3D3D3D"/>
<path d="M40.0197 41.1514H36.9122C36.6721 41.1514 36.4187 41.397 36.4187 41.6562V44.8353C36.4187 45.0809 36.6588 45.3401 36.9122 45.3401H40.0197C40.2598 45.3401 40.5132 45.0945 40.5132 44.8353V41.6562C40.5132 41.3151 40.2732 41.1514 40.0197 41.1514ZM39.4462 44.2486H37.4057V42.161H39.4462V44.2486Z" fill="#3D3D3D"/>
<path d="M45.5946 44.7542V41.5751C45.5946 41.3295 45.3546 41.0703 45.1012 41.0703H41.9936C41.7535 41.0703 41.5001 41.3159 41.5001 41.5751V44.7542C41.5001 44.9998 41.7402 45.2591 41.9936 45.2591H45.1012C45.3412 45.3409 45.5946 45.0953 45.5946 44.7542ZM44.6077 44.2494H42.5671V42.1618H44.6077V44.2494Z" fill="#3D3D3D"/>
<path d="M47.1418 45.3401H50.2494C50.4894 45.3401 50.7428 45.0945 50.7428 44.8353V41.6562C50.7428 41.4106 50.5028 41.1514 50.2494 41.1514H47.1418C46.9017 41.1514 46.6483 41.397 46.6483 41.6562V44.8353C46.6483 45.0809 46.8884 45.3401 47.1418 45.3401ZM47.6353 42.161H49.6759V44.2486H47.6353V42.161Z" fill="#3D3D3D"/>
<path d="M34.8582 35.3662H31.7507C31.5106 35.3662 31.2572 35.6118 31.2572 35.871V39.0501C31.2572 39.2957 31.4973 39.555 31.7507 39.555H34.8582C35.0983 39.555 35.3517 39.3094 35.3517 39.0501V35.871C35.3517 35.6255 35.1117 35.3662 34.8582 35.3662ZM34.3648 38.4634H32.3242V36.3759H34.3648V38.4634Z" fill="#3D3D3D"/>
<path d="M40.0197 35.3662H36.9122C36.6721 35.3662 36.4187 35.6118 36.4187 35.871V39.0501C36.4187 39.2957 36.6588 39.555 36.9122 39.555H40.0197C40.2598 39.555 40.5132 39.3094 40.5132 39.0501V35.871C40.5132 35.6255 40.2732 35.3662 40.0197 35.3662ZM39.4462 38.4634H37.4057V36.3759H39.4462V38.4634Z" fill="#3D3D3D"/>
<path d="M42.0736 39.555H45.1012C45.3412 39.555 45.5946 39.3094 45.5946 39.0501V35.871C45.5946 35.6255 45.3546 35.3662 45.1012 35.3662H41.9936C41.7535 35.3662 41.5001 35.6118 41.5001 35.871V39.0501C41.5001 39.2957 41.7402 39.555 42.0736 39.555ZM42.5671 36.3759H44.6077V38.4634H42.5671V36.3759Z" fill="#3D3D3D"/>
<path d="M47.1418 39.555H50.2494C50.4894 39.555 50.7428 39.3094 50.7428 39.0501V35.871C50.7428 35.6255 50.5028 35.3662 50.2494 35.3662H47.1418C46.9017 35.3662 46.6483 35.6118 46.6483 35.871V39.0501C46.6483 39.2957 46.8884 39.555 47.1418 39.555ZM47.6353 36.3759H49.6759V38.4634H47.6353V36.3759Z" fill="#3D3D3D"/>
</g>
<defs>
<clipPath id="clip0_123_932">
<rect width="46" height="48" fill="white" transform="translate(18 14)"/>
</clipPath>
</defs>
</svg>
