<svg width="82" height="82" viewBox="0 0 82 82" fill="none" xmlns="http://www.w3.org/2000/svg">
<circle cx="41" cy="41" r="41" fill="white"/>
<g clip-path="url(#clip0_123_936)">
<path d="M50.7851 20.8302C50.706 21.0877 50.3765 21.169 50.126 21.0877L42.0319 17.5369L36.838 19.8408C36.5875 20.017 36.2843 19.8408 36.1789 19.5969C36.0998 19.3394 36.1789 19.0141 36.4293 18.9464L41.8606 16.4663C42.0319 16.3849 42.111 16.3849 42.2692 16.4663L50.5347 20.1796C50.7851 20.261 50.8642 20.5998 50.7851 20.8302Z" fill="#3D3D3D"/>
<path d="M58.8 28.5011C58.8 21.237 58.8 21.7249 58.8 21.6435C58.8 21.5622 58.8001 21.4809 58.721 21.4809L58.6419 21.3996L58.5628 21.3183C58.4705 21.3183 59.2746 21.63 42.1109 14.0542C41.9396 13.9728 41.8605 13.9728 41.7023 14.0542L25.3296 21.3318C25.1714 21.4131 25 21.5758 25 21.8333C25 21.9959 25.0923 22.2263 25.3296 22.3076L32.0527 25.2892V31.6453C32.0527 31.8892 32.3031 32.1467 32.5536 32.1467H33.2655C29.0602 35.0198 26.3842 39.8852 26.3842 45.2791C26.3842 53.9391 33.3577 61.0271 41.8605 61.0271C46.2503 61.0271 50.205 59.2246 53.0393 56.1617H53.1184L53.2897 55.9991C55.8735 53.1802 57.495 49.3855 57.495 45.1706C57.495 42.4873 56.8359 39.9258 55.6626 37.6897C54.4894 35.44 52.7493 33.5155 50.6005 32.0654H51.3387C51.5892 32.0654 51.8265 31.8079 51.8265 31.564V25.2078L57.8377 22.5651V28.5011C56.7699 28.7586 56.0581 29.6531 56.0581 30.7237V33.5426C56.0581 33.7866 56.2954 34.017 56.5458 34.017H60.1051C60.3556 34.017 60.6061 33.773 60.6061 33.5426V30.7237C60.6061 29.6531 59.8678 28.6637 58.8132 28.5011H58.8ZM35.4669 32.0518H37.4048C36.4425 33.3664 35.546 35.0063 34.9924 36.9172C33.9246 36.2667 32.87 35.5077 31.9736 34.6133C33.0414 33.6239 34.1751 32.7024 35.4669 32.0518ZM31.2617 35.3451C32.3031 36.3344 33.45 37.256 34.6628 37.9065C34.0828 39.9665 33.7796 42.2027 33.7796 44.5743H27.6892C27.6892 41.1185 28.9811 37.8252 31.2617 35.3451ZM27.6101 45.6585H33.7664C33.7664 48.0573 34.0696 50.2799 34.6496 52.3535C33.3577 53.004 32.2109 53.9255 31.2485 54.9149C29.047 52.4348 27.6761 49.2093 27.597 45.6585H27.6101ZM31.8945 55.6467C32.7777 54.7387 33.8455 53.9933 34.8869 53.3428C35.6251 55.4841 36.7588 57.8693 38.4594 59.3601C35.9547 58.7909 33.7664 57.4763 31.8945 55.6467ZM41.5309 59.7802C39.8304 59.6176 38.2089 58.1268 36.917 55.6467C36.5084 54.8336 36.0997 53.8442 35.7965 52.8413C37.5761 52.0011 39.5272 51.5132 41.5309 51.4319V59.7667V59.7802ZM41.5309 50.4426C39.4217 50.5239 37.3916 51.0253 35.546 51.9333C35.0583 49.9411 34.7287 47.9082 34.7287 45.6585H41.5309V50.4426ZM41.5309 44.5879H34.7287C34.7287 42.3653 35.0583 40.224 35.546 38.3266C37.4048 39.2211 39.4349 39.7225 41.5309 39.7903V44.5743V44.5879ZM41.5309 38.8145C39.5272 38.7332 37.5761 38.2453 35.7965 37.4186C36.5084 35.196 37.4971 33.2851 38.7098 32.0518H41.5309V38.801V38.8145ZM42.5987 44.5879V39.8039C44.7079 39.7225 46.738 39.2347 48.6099 38.3402C49.0977 40.224 49.4009 42.3653 49.4009 44.6014H42.5987V44.5879ZM49.4009 45.6585C49.4009 47.9082 49.0977 49.9547 48.6099 51.9333C46.738 51.0253 44.7079 50.5239 42.5987 50.5239V45.6585H49.4009ZM42.5196 38.801V32.0518H45.3539C46.5666 33.2851 47.5422 35.196 48.2672 37.4186C46.4744 38.2318 44.5365 38.7332 42.5064 38.8145L42.5196 38.801ZM42.5987 51.4319C44.6288 51.5132 46.5798 52.0146 48.3595 52.8413C48.0299 53.8307 47.6213 54.8336 47.2258 55.6467C45.9339 58.1268 44.3124 59.6176 42.6119 59.8615V51.4454L42.5987 51.4319ZM45.5911 59.4414C47.384 57.8693 48.5045 55.5654 49.1636 53.3428C50.205 53.9933 51.2728 54.7387 52.156 55.6467C50.3764 57.4763 48.0958 58.7909 45.5911 59.4414ZM52.8943 54.9149C51.8265 53.9255 50.706 53.004 49.4932 52.3535C50.0468 50.2935 50.3764 47.9896 50.3764 45.6585H56.5327C56.4536 49.2093 55.0694 52.4348 52.8811 54.9149H52.8943ZM56.5458 44.5879H50.4555C50.4555 42.2027 50.1259 39.8852 49.5723 37.9201C50.7851 37.2695 51.9319 36.348 52.9734 35.3587C55.0826 37.8388 56.3745 41.132 56.5458 44.5879ZM52.156 34.6133C51.2728 35.5077 50.205 36.2667 49.1636 36.9172C48.6099 34.925 47.7926 33.2851 46.7248 32.0518H48.6759C49.9677 32.7024 51.1805 33.6239 52.156 34.6133ZM50.9433 31.0625H33.2655V25.6551L33.1864 25.6144H33.2655V25.6551L41.8605 29.4091C42.0319 29.4904 42.1109 29.4904 42.2691 29.4091L50.9433 25.6144V31.0625ZM42.0319 28.3385C40.4895 27.6879 28.4934 22.3076 26.8719 21.6435L42.0319 14.9757L57.1786 21.6435C55.6494 22.2941 43.561 27.6744 42.0319 28.3385ZM59.6833 33.0412H57.1786V30.7237C57.1786 29.9919 57.7586 29.4091 58.4705 29.4091C59.1823 29.4091 59.6833 29.9783 59.6833 30.7237V33.0412Z" fill="#3D3D3D"/>
<path d="M52.1561 34.6268C51.2728 35.5213 50.205 36.2803 49.1636 36.9308C48.61 34.9386 47.7926 33.2987 46.7249 32.0654H48.6759C49.9678 32.7159 51.1806 33.6375 52.1561 34.6268Z" fill="#009FE3"/>
<path d="M56.5458 44.5876H50.4555C50.4555 42.2024 50.1259 39.8849 49.5723 37.9198C50.7851 37.2693 51.9319 36.3477 52.9734 35.3584C55.0826 37.8385 56.3745 41.1318 56.5458 44.5876Z" fill="#009FE3"/>
<path d="M56.5458 45.6582C56.4667 49.209 55.0826 52.4344 52.8943 54.9145C51.8265 53.9252 50.706 53.0036 49.4932 52.3531C50.0468 50.2931 50.3764 47.9892 50.3764 45.6582H56.5326H56.5458Z" fill="#009FE3"/>
<path d="M52.156 55.6604C50.3763 57.49 48.0957 58.8045 45.5911 59.4551C47.3839 57.883 48.5044 55.5791 49.1635 53.3564C50.205 54.007 51.2727 54.7523 52.156 55.6604Z" fill="#009FE3"/>
<path d="M48.3594 52.8549C48.0298 53.8442 47.6212 54.8471 47.2257 55.6603C45.9338 58.1404 44.3124 59.6311 42.6118 59.8751V51.459C44.6419 51.5403 46.5929 52.0417 48.3726 52.8684L48.3594 52.8549Z" fill="#009FE3"/>
<path d="M49.4008 45.6582C49.4008 47.9079 49.0976 49.9543 48.6099 51.933C46.738 51.025 44.7078 50.5235 42.5986 50.5235V45.6582H49.4008Z" fill="#009FE3"/>
<path d="M49.4008 44.5875H42.5986V39.8035C44.7078 39.7222 46.738 39.2343 48.6099 38.3398C49.0976 40.2236 49.4008 42.3649 49.4008 44.6011V44.5875Z" fill="#009FE3"/>
<path d="M48.2803 37.4187C46.4875 38.2318 44.5496 38.7332 42.5195 38.8146V32.0654H45.3538C46.5666 33.2987 47.5421 35.2096 48.2671 37.4322L48.2803 37.4187Z" fill="#009FE3"/>
<path d="M41.5308 32.0653V38.8144C39.527 38.7331 37.576 38.2452 35.7964 37.4185C36.5082 35.1959 37.4969 33.285 38.7097 32.0518H41.5308V32.0653Z" fill="#009FE3"/>
<path d="M41.531 39.8044V44.5884H34.7288C34.7288 42.3658 35.0583 40.2245 35.5461 38.3271C37.4048 39.2216 39.4349 39.7231 41.531 39.7908V39.8044Z" fill="#009FE3"/>
<path d="M41.531 45.6582V50.4422C39.4217 50.5235 37.3916 51.025 35.5461 51.933C35.0583 49.9408 34.7288 47.9079 34.7288 45.6582H41.531Z" fill="#009FE3"/>
<path d="M41.5308 51.4452V59.78C39.8302 59.6173 38.2088 58.1266 36.9169 55.6465C36.5082 54.8333 36.0996 53.844 35.7964 52.8411C37.576 52.0008 39.527 51.513 41.5308 51.4316V51.4452Z" fill="#009FE3"/>
<path d="M38.4594 59.3737C35.9548 58.8045 33.7665 57.49 31.8945 55.6604C32.7778 54.7523 33.8455 54.007 34.887 53.3564C35.6252 55.4977 36.7589 57.883 38.4594 59.3737Z" fill="#009FE3"/>
<path d="M34.6628 52.3531C33.3709 53.0036 32.224 53.9252 31.2617 54.9145C29.0602 52.4344 27.6892 49.209 27.6101 45.6582H33.7664C33.7664 48.057 34.0696 50.2796 34.6496 52.3531H34.6628Z" fill="#009FE3"/>
<path d="M34.6628 37.9198C34.0827 39.9798 33.7795 42.216 33.7795 44.5876H27.6892C27.6892 41.1318 28.9811 37.8385 31.2617 35.3584C32.3031 36.3477 33.45 37.2693 34.6628 37.9198Z" fill="#009FE3"/>
<path d="M37.4048 32.0654C36.4425 33.38 35.5461 35.0199 34.9924 36.9308C33.9246 36.2803 32.87 35.5213 31.9736 34.6268C33.0414 33.6375 34.1751 32.7159 35.467 32.0654H37.4048Z" fill="#009FE3"/>
</g>
<defs>
<clipPath id="clip0_123_936">
<rect width="35.6061" height="47" fill="white" transform="translate(25 14)"/>
</clipPath>
</defs>
</svg>
