<svg width="82" height="82" viewBox="0 0 82 82" fill="none" xmlns="http://www.w3.org/2000/svg">
<circle cx="41" cy="41" r="41" fill="white"/>
<g clip-path="url(#clip0_123_933)">
<path d="M28.8605 30.6844V50.2338C28.8605 50.135 28.9108 50.0362 28.961 49.9703C29.0783 49.8056 29.2793 49.6574 29.4803 49.6574H29.5809C29.7819 49.6574 29.9662 49.8056 30.1002 49.9703V30.6844H28.8773H28.8605ZM28.8605 30.6844V50.2338C28.8605 50.135 28.9108 50.0362 28.961 49.9703C29.0783 49.8056 29.2793 49.6574 29.4803 49.6574H29.5809C29.7819 49.6574 29.9662 49.8056 30.1002 49.9703V30.6844H28.8773H28.8605ZM29.4971 22.2685C28.9778 21.5273 28.0899 21.0168 27.068 21.0168H20.0154C18.4072 21.0003 17 22.252 17 23.9154V57.0687C17 58.6333 18.3067 59.9838 20.0154 59.9838H27.068C28.1067 59.9838 29.0113 59.5227 29.5641 58.798C29.8824 58.3698 30.0834 57.8098 30.0834 57.2334V23.9154C30.0834 23.306 29.8824 22.7296 29.4971 22.252V22.2685ZM28.8605 57.0852C28.8605 58.0569 28.0732 58.8474 27.068 58.8474H20.0154C19.0103 58.8474 18.2062 58.0569 18.2062 57.0852V23.9154C18.2062 22.9437 19.0103 22.1532 20.0154 22.1532H27.068C28.0732 22.1532 28.8605 22.9437 28.8605 23.9154V57.0687V57.0852ZM28.8605 30.6844V50.2338C28.8605 50.135 28.9108 50.0362 28.961 49.9703C29.0783 49.8056 29.2793 49.6574 29.4803 49.6574H29.5809C29.7819 49.6574 29.9662 49.8056 30.1002 49.9703V30.6844H28.8773H28.8605ZM28.8605 30.6844V50.2338C28.8605 50.135 28.9108 50.0362 28.961 49.9703C29.0783 49.8056 29.2793 49.6574 29.4803 49.6574H29.5809C29.7819 49.6574 29.9662 49.8056 30.1002 49.9703V30.6844H28.8773H28.8605Z" fill="#3D3D3D"/>
<path d="M29.9662 40.0718L29.5809 39.693L28.9611 39.0836L28.8605 38.9848L24.0527 34.3074C23.7344 34.1098 23.3491 34.1098 23.1481 34.3074L18.2062 39.1165L17.2011 40.0882C17 40.3847 17 40.7635 17.2011 40.9611L18.2062 41.9328L23.1481 46.742C23.2486 46.8408 23.3491 46.9561 23.5334 46.9561C23.6339 46.9561 23.8349 46.8408 24.0527 46.742L28.8605 42.0646L29.9662 40.9776C29.9662 40.9776 30.0667 40.8294 30.0835 40.7635V40.2859C30.0835 40.2859 30.0164 40.1706 29.9662 40.1212V40.0718ZM23.5334 45.4573L18.4072 40.467L23.5334 35.4767L28.6595 40.467L23.5334 45.4573Z" fill="#3D3D3D"/>
<path d="M28.6595 40.4502L23.5334 45.4405L18.4072 40.4502L23.5334 35.46L28.6595 40.4502Z" fill="#004289"/>
<path d="M30.0834 49.9535C29.9662 49.7889 29.7651 49.6406 29.5641 49.6406H17.5863C17.2848 49.6406 17 49.9535 17 50.25V53.9721C17 54.2686 17.3015 54.5486 17.5863 54.5486H29.4636C29.7316 54.5486 29.9829 54.4003 30.0834 54.2356C30.1504 54.1368 30.1839 54.0709 30.1839 53.9721V50.25C30.1839 50.1512 30.1337 50.0524 30.0834 49.9535ZM18.2062 53.3628V50.9253H28.8605V53.3628H18.2062Z" fill="#3D3D3D"/>
<path d="M28.8605 50.9248H18.2062V53.3623H28.8605V50.9248Z" fill="white"/>
<path d="M30.0834 26.1225C29.9829 25.9578 29.7651 25.8096 29.5641 25.8096H17.5863C17.2848 25.8096 17 26.106 17 26.386V30.1081C17 30.4046 17.3015 30.6846 17.5863 30.6846H29.4636C29.7316 30.6846 29.9494 30.5363 30.0834 30.3716C30.1504 30.3058 30.1839 30.207 30.1839 30.1081V26.386C30.1839 26.2872 30.1672 26.1884 30.0834 26.1225ZM18.2062 29.5152V27.0777H28.8605V29.5152H18.2062Z" fill="#3D3D3D"/>
<path d="M28.8605 27.0771H18.2062V29.5146H28.8605V27.0771Z" fill="white"/>
<path d="M41.4748 22.2517C40.9555 21.5106 40.0676 21 39.0122 21H31.9596C30.9545 21 30.0164 21.4776 29.4803 22.2517C29.1285 22.7293 28.9442 23.2893 28.9442 23.9151V57.0684C28.9442 57.7272 29.162 58.3201 29.564 58.8142C30.1001 59.5059 30.9712 60 31.9763 60H39.029C40.0844 60 40.9722 59.5389 41.5083 58.7977C41.8601 58.3201 42.0444 57.7437 42.0444 57.0849V23.9151C42.0444 23.3057 41.8434 22.7293 41.4748 22.2517ZM40.7377 57.0684C40.7377 58.0401 39.9336 58.8307 38.9285 58.8307H31.8758C30.921 58.8307 30.1839 58.1225 30.0834 57.2331V23.9151C30.0834 22.9434 30.8707 22.1529 31.8758 22.1529H38.9285C39.9336 22.1529 40.7377 22.9434 40.7377 23.9151V57.0684Z" fill="#3D3D3D"/>
<path d="M41.944 40.0718L41.5084 39.6436L40.9388 39.1165L40.7378 38.9189L35.997 34.3074C35.6954 34.1098 35.3101 34.1098 35.0923 34.3074L30.0835 39.1824L29.1788 40.0718C28.9611 40.3682 28.9611 40.747 29.1788 40.9447L29.5641 41.3235L30.0835 41.834L35.0923 46.709C35.2096 46.8078 35.3101 46.9231 35.5111 46.9231C35.6117 46.9231 35.8127 46.8078 35.8964 46.709L40.7378 42.0975L40.9388 41.8999L41.4749 41.3729L41.944 40.9447C41.944 40.9447 42.0445 40.7964 42.0445 40.7305V40.2529C42.0445 40.2529 41.9942 40.1376 41.944 40.0882V40.0718ZM35.5111 45.4573L30.385 40.467L35.5111 35.4767L40.6373 40.467L35.5111 45.4573Z" fill="#3D3D3D"/>
<path d="M40.6373 40.4502L35.5112 45.4405L30.385 40.4502L35.5112 35.46L40.6373 40.4502Z" fill="#004289"/>
<path d="M40.7378 49.6406V50.9253H40.8383V50.25C40.8383 50.1512 40.855 50.0524 40.9388 49.9535V49.6406H40.7378ZM40.7378 49.6406V50.9253H40.8383V50.25C40.8383 50.1512 40.855 50.0524 40.9388 49.9535V49.6406H40.7378ZM41.4414 49.6406H29.4636C29.2626 49.6406 29.0783 49.7889 28.9443 49.9535C28.894 50.0194 28.8438 50.1182 28.8438 50.2171V53.9557C28.8438 54.0545 28.894 54.1533 28.9443 54.2521C29.0615 54.4168 29.2626 54.5486 29.4636 54.5486H41.4414C41.7429 54.5486 42.0277 54.2521 42.0277 53.9721V50.25C42.0277 49.9535 41.7261 49.6406 41.4414 49.6406ZM30.1672 53.3628V50.9253H40.8215V53.3628H30.1672ZM40.721 49.6406V50.9253H40.8215V50.25C40.8215 50.1512 40.8383 50.0524 40.922 49.9535V49.6406H40.721Z" fill="#3D3D3D"/>
<path d="M40.7378 50.9248H30.184V53.3623H40.7378V50.9248Z" fill="white"/>
<path d="M41.4414 25.8096H29.4636C29.2626 25.8096 29.0448 25.9578 28.9443 26.1225C28.8773 26.1884 28.8438 26.2872 28.8438 26.386V30.1081C28.8438 30.207 28.8605 30.3058 28.9443 30.3716C29.0448 30.5363 29.2626 30.6846 29.4636 30.6846H41.4414C41.7429 30.6846 42.0277 30.3881 42.0277 30.1081V26.386C42.0277 26.0896 41.7261 25.8096 41.4414 25.8096ZM30.1672 29.5317V27.0942H40.8215V29.5317H30.1672Z" fill="#3D3D3D"/>
<path d="M40.7378 27.0771H30.184V29.5146H40.7378V27.0771Z" fill="white"/>
<path d="M41.4413 30.6841H40.922V40.7965C40.922 40.7965 40.9723 40.8953 41.0225 40.9447L41.4581 41.3729L42.0276 41.8999V30.0912C42.0276 30.3877 41.7261 30.6677 41.4413 30.6677V30.6841ZM41.4413 30.6841H40.922V40.7965C40.922 40.7965 40.9723 40.8953 41.0225 40.9447L41.4581 41.3729L42.0276 41.8999V30.0912C42.0276 30.3877 41.7261 30.6677 41.4413 30.6677V30.6841ZM41.4413 30.6841H40.922V40.7965C40.922 40.7965 40.9723 40.8953 41.0225 40.9447L41.4581 41.3729L42.0276 41.8999V30.0912C42.0276 30.3877 41.7261 30.6677 41.4413 30.6677V30.6841ZM53.4023 22.1858C52.8663 21.4776 51.9952 21 50.99 21H43.9374C42.9323 21 41.9941 21.4776 41.4581 22.2517C41.1063 22.7293 40.922 23.2893 40.922 23.9151V57.0684C40.922 57.6943 41.1398 58.3036 41.4916 58.7813C42.0276 59.5059 42.9155 59.9835 43.9541 59.9835H51.0068C51.9952 59.9835 52.8663 59.5224 53.4191 58.7977C53.8044 58.3201 54.0389 57.7107 54.0389 57.0519V23.9151C54.0389 23.2893 53.8211 22.6634 53.4191 22.1693L53.4023 22.1858ZM52.7155 57.0849C52.7155 58.0566 51.9114 58.8471 50.9063 58.8471H43.8536C42.8485 58.8471 42.0444 58.0566 42.0444 57.0849V23.9151C42.0444 22.9434 42.8485 22.1529 43.8536 22.1529H50.9063C51.9114 22.1529 52.7155 22.9434 52.7155 23.9151V57.0684V57.0849ZM41.4413 30.6841H40.922V40.7965C40.922 40.7965 40.9723 40.8953 41.0225 40.9447L41.4581 41.3729L42.0276 41.8999V30.0912C42.0276 30.3877 41.7261 30.6677 41.4413 30.6677V30.6841ZM41.4413 30.6841H40.922V40.7965C40.922 40.7965 40.9723 40.8953 41.0225 40.9447L41.4581 41.3729L42.0276 41.8999V30.0912C42.0276 30.3877 41.7261 30.6677 41.4413 30.6677V30.6841ZM41.4413 30.6841H40.922V40.7965C40.922 40.7965 40.9723 40.8953 41.0225 40.9447L41.4581 41.3729L42.0276 41.8999V30.0912C42.0276 30.3877 41.7261 30.6677 41.4413 30.6677V30.6841Z" fill="#3D3D3D"/>
<path d="M53.8211 40.0718L53.4358 39.693L52.816 39.1165L52.7155 39.0177L47.8741 34.3074C47.5726 34.1098 47.1705 34.1098 46.9695 34.3074L42.0276 39.1165L41.4916 39.6436L41.0225 40.0718C41.0225 40.0718 40.9555 40.1871 40.922 40.2365V40.7964C40.922 40.7964 40.9723 40.8952 41.0225 40.9447L41.4581 41.3729L42.0276 41.8999L46.9695 46.709C47.07 46.8078 47.1705 46.9231 47.3883 46.9231C47.5893 46.9231 47.7736 46.8078 47.8741 46.709L52.7155 41.9987L52.816 41.8999L53.4358 41.3235L53.8211 40.9447C54.0222 40.6482 54.0222 40.2694 53.8211 40.0718ZM47.4888 45.4573L42.3627 40.467L47.4888 35.4767L52.615 40.467L47.4888 45.4573Z" fill="#3D3D3D"/>
<path d="M52.6151 40.4502L47.4889 45.4405L42.3628 40.4502L47.4889 35.46L52.6151 40.4502Z" fill="#004289"/>
<path d="M53.4024 49.6406H41.4414C41.2236 49.6406 41.0226 49.7889 40.922 49.9535C40.855 50.0524 40.8215 50.1512 40.8215 50.25V53.9721C40.8215 54.0709 40.8383 54.1698 40.922 54.2686C41.0226 54.4333 41.2236 54.565 41.4414 54.565H53.4024C53.7207 54.565 54.0222 54.2686 54.0222 53.9886V50.25C54.0222 49.9535 53.7207 49.6736 53.4024 49.6736V49.6406ZM52.7155 53.3628H42.0444V50.9253H52.7155V53.3628Z" fill="#3D3D3D"/>
<path d="M52.7155 50.9248H42.0444V53.3623H52.7155V50.9248Z" fill="white"/>
<path d="M53.4024 25.8096H41.4414C41.2236 25.8096 41.0226 25.9578 40.922 26.1225C40.855 26.1884 40.8215 26.2872 40.8215 26.386V30.1081C40.8215 30.207 40.8383 30.3058 40.922 30.3716C41.0226 30.5363 41.2236 30.6846 41.4414 30.6846H53.4024C53.7207 30.6846 54.0222 30.3881 54.0222 30.1081V26.386C54.0222 26.0896 53.7207 25.8096 53.4024 25.8096ZM52.7155 29.5317H42.0444V27.0942H52.7155V29.5317Z" fill="#3D3D3D"/>
<path d="M52.7155 27.0771H42.0444V29.5146H52.7155V27.0771Z" fill="white"/>
<path d="M53.4024 30.6841H52.816V49.6571H53.4024C53.7207 49.6571 54.0222 49.9535 54.0222 50.2335V30.0912C54.0222 30.3877 53.7207 30.6677 53.4024 30.6677V30.6841ZM53.4024 30.6841H52.816V49.6571H53.4024C53.7207 49.6571 54.0222 49.9535 54.0222 50.2335V30.0912C54.0222 30.3877 53.7207 30.6677 53.4024 30.6677V30.6841ZM62.8841 21H55.8314C54.8431 21 53.9719 21.4611 53.4024 22.1858C53.0338 22.6634 52.816 23.2728 52.816 23.9316V57.0849C52.816 57.7437 53.0338 58.3366 53.4024 58.8307C53.9384 59.5224 54.8263 60.0165 55.8314 60.0165H62.8841C64.576 60.0165 66 58.7648 65.8995 57.1013V23.9151C65.8995 22.367 64.576 21 62.8841 21ZM64.6933 57.0849C64.6933 58.0566 63.8892 58.8471 62.8841 58.8471H55.8314C54.8263 58.8471 54.0222 58.0566 54.0222 57.0849V23.9151C54.0222 22.9434 54.8263 22.1529 55.8314 22.1529H62.8841C63.8892 22.1529 64.6933 22.9434 64.6933 23.9151V57.0684V57.0849ZM53.4024 30.6841H52.816V49.6571H53.4024C53.7207 49.6571 54.0222 49.9535 54.0222 50.2335V30.0912C54.0222 30.3877 53.7207 30.6677 53.4024 30.6677V30.6841ZM53.4024 30.6841H52.816V49.6571H53.4024C53.7207 49.6571 54.0222 49.9535 54.0222 50.2335V30.0912C54.0222 30.3877 53.7207 30.6677 53.4024 30.6677V30.6841Z" fill="#3D3D3D"/>
<path d="M65.799 40.0718L64.6934 39.0177L59.852 34.3074C59.5337 34.1098 59.1484 34.1098 58.9474 34.3074L54.0055 39.1165L53.4192 39.693L53.0004 40.0718C52.7994 40.3682 52.7994 40.747 53.0004 40.9447L53.4192 41.3235L54.0055 41.8999L58.9474 46.709C59.0479 46.8078 59.1484 46.9231 59.3327 46.9231C59.517 46.9231 59.651 46.8078 59.852 46.709L64.6934 41.9987L65.799 40.9447C65.799 40.9447 65.8995 40.7964 65.8995 40.7305V40.2529C65.8995 40.2529 65.8493 40.1376 65.799 40.0882V40.0718ZM59.4332 45.4573L54.307 40.467L59.4332 35.4767L64.5594 40.467L59.4332 45.4573Z" fill="#3D3D3D"/>
<path d="M64.5761 40.4502L59.4499 45.4405L54.307 40.4502L59.4499 35.46L64.5761 40.4502Z" fill="#004289"/>
<path d="M65.8995 49.9535C65.7989 49.7889 65.5979 49.6406 65.3801 49.6406H53.4024C53.1008 49.6406 52.816 49.9535 52.816 50.25V53.9721C52.816 54.2686 53.1176 54.5486 53.4024 54.5486H65.3801C65.5979 54.5486 65.7989 54.4333 65.8995 54.2521C65.9665 54.1533 66 54.0545 66 53.9557V50.2335C66 50.1347 65.9832 50.0359 65.8995 49.9371V49.9535ZM64.6933 53.3628H54.0222V50.9253H64.6933V53.3628Z" fill="#3D3D3D"/>
<path d="M64.6933 50.9248H54.0222V53.3623H64.6933V50.9248Z" fill="white"/>
<path d="M65.8995 26.1225C65.7989 25.9578 65.5979 25.8096 65.3801 25.8096H53.4024C53.1008 25.8096 52.816 26.106 52.816 26.386V30.1081C52.816 30.4046 53.1176 30.6846 53.4024 30.6846H65.3801C65.5979 30.6846 65.7989 30.5363 65.8995 30.3716C65.9665 30.3058 66 30.207 66 30.1081V26.386C66 26.2872 65.9832 26.1884 65.8995 26.1225ZM64.6933 29.5317H54.0222V27.0942H64.6933V29.5317Z" fill="#3D3D3D"/>
<path d="M64.6933 27.0771H54.0222V29.5146H64.6933V27.0771Z" fill="white"/>
</g>
<defs>
<clipPath id="clip0_123_933">
<rect width="49" height="39" fill="white" transform="translate(17 21)"/>
</clipPath>
</defs>
</svg>
