<svg xmlns="http://www.w3.org/2000/svg" xmlns:xlink="http://www.w3.org/1999/xlink" width="105.874" height="38.743" viewBox="0 0 105.874 38.743">
  <defs>
    <clipPath id="clip-path">
      <rect id="사각형_36" data-name="사각형 36" width="105.874" height="38.743" transform="translate(0 0)" fill="none"/>
    </clipPath>
  </defs>
  <g id="logo_w" transform="translate(0 0)">
    <rect id="사각형_34" data-name="사각형 34" width="2.834" height="9.667" transform="translate(81.354 17.331)" fill="#fff"/>
    <rect id="사각형_35" data-name="사각형 35" width="2.834" height="5.542" transform="translate(81.354 29.206)" fill="#fff"/>
    <g id="그룹_7" data-name="그룹 7">
      <g id="그룹_6" data-name="그룹 6" clip-path="url(#clip-path)">
        <path id="패스_6" data-name="패스 6" d="M3.75,35.416h0s0,.04,0,.1v.233l.012.009c.057.781.377,2.637,2.155,2.637H17.25V36.769h-.021V31.394h.021V29.769H3.75Zm2.833-4.022H14.4v5.375H6.583ZM17.25,17.436H2.916v1.625h11.5v6.791H0v1.625H21.5V25.852H17.25ZM83.812,29.207H70.062v1.625h13.75ZM59.937,31h2.834V17.332H59.937v5.625H55.646v1.625h4.291ZM83.9,21.29H78.228v1.625H83.9Zm-48.87,9.935a6.052,6.052,0,0,0,5.018-5.769A5.7,5.7,0,0,0,37.956,21.1H42.11V19.478H35.026V17.165H32.193v2.313H25.11V21.1h4.154a5.692,5.692,0,0,0-2.088,4.354,6.051,6.051,0,0,0,5.017,5.769v2.94H22.672V35.79H44.547V34.165H35.026Zm-5-5.768a3.588,3.588,0,1,1,3.584,3.416,3.5,3.5,0,0,1-3.584-3.416M51.843,37.116l-.024-6.938-2.833.01L49,35.772V36.1l.013.01c.059.78.385,2.636,2.163,2.629l12-.038-.005-1.625ZM84.26,37.08l-11.337.036-.012-2.368H83.979V33.123h-13.9v.065h-.014l.02,2.916.013.01c.059.781.385,2.636,2.163,2.629l12-.038ZM55.145,17.956H46.229v1.625h6.094c-.247,4.463-6.906,8.25-6.906,8.25l.75,1.083c9.333-4,8.978-10.959,8.978-10.959m16.6,2.209c.917.583,3.833,3.833,3.583,6.917H77.75s-1.5-6.75-5.583-9.167c0,0-1.668-.75-2.334.25S66.75,27,66.75,27H69s1.833-7.416,2.75-6.833" fill="#fff"/>
        <path id="패스_7" data-name="패스 7" d="M96.818,23.37a2.631,2.631,0,0,1-2.478-3.509L98.923,6.947,85.134,11.826A2.629,2.629,0,0,1,83.38,6.869L102.368.151a2.629,2.629,0,0,1,3.354,3.357L99.3,21.619a2.631,2.631,0,0,1-2.478,1.751" fill="#e60019"/>
      </g>
    </g>
  </g>
</svg>
