<?xml version="1.0" encoding="UTF-8"?>
<svg id="Layer_1" data-name="Layer 1" xmlns="http://www.w3.org/2000/svg" viewBox="0 0 16 16">
  <defs>
    <style>
      .cls-1 {
        fill: #4caa49;
      }
    </style>
  </defs>
  <path class="cls-1" d="m8.06,14.15c-.09,0-.17-.02-.25-.05l-.43-.2c-.45-.17-1.82-.8-2.2-2.26-.12-.45-.31-1.56.41-2.27.47-.47,1.08-.51,1.66-.55.45-.03.75.02.98.06.21.04.35.06.62.02.25-.04.55-.08.82-.29.38-.3.62-.87.5-1.2-.03-.08-.05-.1-.36-.23-.31-.13-.73-.3-1.18-.74-.59-.57-.73-1.13-.85-1.58-.1-.39-.17-.68-.51-1.01-.43-.42-1.03-.67-1.8-.73-.72-.06-1.37.09-1.92.44-.92.59-1.23,1.52-1.33,2.03-.09.42-.22,1.06.13,1.67.05.09.52.87,1.22.85.45-.01.79-.34.91-.49.51-.59.51-1.68,0-2.69-.15-.3-.03-.67.27-.82.3-.15.67-.03.82.27.74,1.48.68,3.06-.17,4.04-.23.27-.86.88-1.8.91-1.37.04-2.16-1.2-2.31-1.45-.59-1-.38-2.03-.28-2.52.14-.7.57-1.99,1.87-2.82.78-.5,1.69-.71,2.68-.63.97.08,1.77.39,2.38.92.3-.22.79-.5,1.49-.73,1.12-.36,1.94-.26,2.19-.21,1.71.07,2.9,1.86,2.95,1.93.02.03.04.06.05.1,1.09,2.58.02,4.61-.03,4.7-.01.02-.03.04-.04.06-2.57,3.6-6.08,5.32-6.23,5.39-.08.04-.17.06-.27.06Zm-.56-4.11c-.06,0-.12,0-.18,0-.45.03-.74.05-.88.19-.21.2-.19.7-.09,1.09.25.93,1.27,1.36,1.47,1.43.01,0,.03.01.04.02l.18.08c.82-.45,3.49-2.05,5.49-4.83.11-.22.75-1.69-.02-3.56-.28-.4-1.1-1.32-1.98-1.34-.05,0-.09,0-.13-.02,0,0-.65-.14-1.6.17-.53.17-.89.38-1.11.53.13.27.2.53.26.76.1.39.18.68.52,1.01.28.27.53.37.79.48.37.15.82.34,1.04.94.35.95-.2,2.04-.89,2.58-.52.41-1.09.49-1.4.53-.45.06-.74.01-1-.03-.16-.03-.3-.05-.51-.05Z"/>
  <path class="cls-1" d="m7.04,7.08c-.43,0-.78-.35-.78-.78s.35-.78.78-.78.78.35.78.78-.35.78-.78.78Z"/>
</svg>