<svg width="93" height="90" viewBox="0 0 93 90" fill="none" xmlns="http://www.w3.org/2000/svg">
<g opacity="0.8" clip-path="url(#clip0_37_838)">
<path d="M4.97176 61.345C2.25556 61.345 0 63.5847 0 66.3009C0 67.0951 0.158842 67.7463 0.476527 68.3817C1.1119 70.3037 3.03389 71.7491 5.27356 71.7491C7.98976 71.7491 10.2453 69.5095 10.2453 66.7774C10.2453 65.9832 10.0865 65.3319 9.7688 64.6966C8.97459 62.7746 7.0526 61.3291 4.97176 61.3291V61.345Z" fill="white"/>
<path d="M75.593 16.0113C75.1165 16.0113 74.64 16.4878 74.64 16.9643V74.9418C74.64 82.1532 68.7152 88.078 61.5037 88.078H46.6043V79.9135L52.3703 75.593C52.8468 75.2753 53.4981 75.2753 53.8158 75.7518C54.1335 76.2284 54.1335 76.8796 53.6569 77.1973L48.0498 81.359H53.0216C61.0272 81.359 67.4285 75.1165 68.0798 67.2697H61.0272C59.8994 67.2697 58.7875 67.4285 57.6598 67.5874C57.3421 67.7462 57.0244 67.7462 56.7067 67.905C51.9097 69.3505 47.891 73.1945 46.6202 78.1504V64.8553L52.3862 60.5348C52.8627 60.2171 53.514 60.2171 53.8317 60.6936C54.1493 61.1701 54.1493 61.8214 53.6728 62.1391L48.0657 66.3007H53.0374C54.1652 66.3007 55.2771 66.1419 56.4049 65.9831C56.7226 65.8242 57.0403 65.8242 57.358 65.6654C63.2828 63.9022 67.6033 58.6128 68.0798 52.2114H61.0272C59.8994 52.2114 58.7875 52.3703 57.6598 52.5291C57.3421 52.688 57.0244 52.688 56.7067 52.8468C51.7349 54.2923 47.891 58.1362 46.6202 63.0921V49.797L52.3862 45.4765C52.8627 45.1588 53.514 45.1588 53.8317 45.6354C54.1493 46.1119 54.1493 46.7631 53.6728 47.0808L48.0657 51.2425H53.0374C54.1652 51.2425 55.2771 51.0837 56.4049 50.9248C56.7226 50.766 57.0403 50.766 57.358 50.6071C63.2828 48.844 67.6033 43.5545 68.0798 37.1532H61.0272C59.8994 37.1532 58.7875 37.312 57.6598 37.4709C57.3421 37.6297 57.0244 37.6297 56.7067 37.7886C51.7349 39.234 47.891 43.078 46.6202 48.0339V34.7388L52.3862 30.4183C52.8627 30.1006 53.514 30.1006 53.8317 30.5771C54.1493 31.0537 54.1493 31.7049 53.6728 32.0226L48.0657 36.1843H53.0374C54.1652 36.1843 55.2771 36.0254 56.4049 35.8666C56.7226 35.7077 57.0403 35.7077 57.358 35.5489C63.2828 33.7857 67.6033 28.4963 68.0798 22.095H61.0272C59.8994 22.095 58.7875 22.2538 57.6598 22.4126C57.3421 22.5715 57.0244 22.5715 56.7067 22.7303C51.7349 24.1758 47.891 28.0198 46.6202 32.9756V19.6805L52.3862 15.36C52.8627 15.0424 53.514 15.0424 53.8317 15.5189C54.1493 15.9954 54.1493 16.6467 53.6728 16.9643L48.0657 21.126H53.0374C54.1652 21.126 55.2771 20.9672 56.4049 20.8083C56.7226 20.6495 57.0403 20.6495 57.358 20.4906C63.2828 18.7275 67.6033 13.4381 68.0798 7.03671H61.0272C54.1335 7.03671 48.3834 11.6749 46.6202 17.9333V0.953053C46.6202 0.476527 46.1437 0 45.6672 0C45.1906 0 44.6982 0.476527 44.6982 0.953053V18.251C42.9351 12.0085 37.1691 7.35439 30.2912 7.35439H23.2386C23.7152 13.7557 28.0357 19.0452 33.9605 20.8083C34.2782 20.8083 34.5959 20.9672 34.9135 21.126C36.0413 21.4437 37.1532 21.4437 38.281 21.4437H43.2528L37.6456 17.282C37.1691 16.9643 37.1691 16.329 37.4868 15.8366C37.8045 15.36 38.4398 15.36 38.9323 15.6777L44.6982 19.9982V33.2933C43.2528 28.3216 39.4088 24.4776 34.6117 23.048C34.2941 23.048 33.9764 22.8892 33.6587 22.7303C32.5309 22.4126 31.419 22.4126 30.2912 22.4126H23.2386C23.7152 28.814 28.0357 34.1034 33.9605 35.8666C34.2782 35.8666 34.5959 36.0254 34.9135 36.1843C36.0413 36.5019 37.1532 36.5019 38.281 36.5019H43.2528L37.6456 32.3403C37.1691 32.0226 37.1691 31.3872 37.4868 30.8948C37.8045 30.4183 38.4398 30.4183 38.9323 30.736L44.6982 35.0565V48.3516C43.2528 43.3798 39.4088 39.5517 34.6117 38.1062C34.2941 38.1062 33.9764 37.9474 33.6587 37.7886C32.5309 37.4709 31.419 37.4709 30.2912 37.4709H23.2386C23.7152 43.8722 28.0357 49.1617 33.9605 50.9248C34.2782 50.9248 34.5959 51.0837 34.9135 51.2425C36.0413 51.5602 37.1532 51.5602 38.281 51.5602H43.2528L37.6456 47.3985C37.1691 47.0808 37.1691 46.4455 37.4868 45.9531C37.8045 45.4765 38.4398 45.4765 38.9323 45.7942L44.6982 50.1147V63.4098C43.2528 58.438 39.4088 54.5941 34.6117 53.1645C34.2941 53.1645 33.9764 53.0056 33.6587 52.8468C32.5309 52.5291 31.419 52.5291 30.2912 52.5291H23.2386C23.7152 58.9305 28.0357 64.2199 33.9605 65.9831C34.2782 65.9831 34.5959 66.1419 34.9135 66.3007C36.0413 66.6184 37.1532 66.6184 38.281 66.6184H43.2528L37.6456 62.4568C37.1691 62.1391 37.1691 61.4878 37.4868 61.0113C37.8045 60.5348 38.4398 60.5348 38.9323 60.8525L44.6982 65.173V78.4681C43.2528 73.4963 39.4088 69.6682 34.6117 68.2227C34.2941 68.2227 33.9764 68.0639 33.6587 67.905C32.5309 67.5874 31.419 67.5874 30.2912 67.5874H23.2386C23.7152 75.4342 30.2912 81.6767 38.2969 81.6767H43.2686L37.6615 77.515C37.185 77.1973 37.185 76.5619 37.5027 76.0695C37.8204 75.593 38.4557 75.593 38.9481 75.9107L44.7141 80.2312V88.078H29.8147C22.6033 88.078 16.6785 82.1532 16.6785 74.9418V16.9802C16.6785 16.5037 16.2019 16.0272 15.7095 16.0272C15.2171 16.0272 14.7565 16.5037 14.7565 16.9802V74.9576C14.7565 83.281 21.4755 90.0159 29.8147 90.0159H61.6785C70.0018 90.0159 76.7367 83.2969 76.7367 74.9576V16.9802C76.5779 16.5037 76.1013 16.0272 75.6089 16.0272L75.593 16.0113Z" fill="white"/>
<path d="M91.6044 33.309C90.8101 30.9105 88.5546 29.3062 85.9972 29.3062C82.6298 29.3062 79.9136 32.0224 79.9136 35.3898C79.9136 36.184 80.0724 37.153 80.3901 37.7883C81.1843 40.1868 83.4399 41.7911 85.9972 41.7911C89.3647 41.7911 92.0809 39.0749 92.0809 35.7075C92.2397 34.9133 92.0809 34.1032 91.6044 33.309Z" fill="white"/>
</g>
<defs>
<clipPath id="clip0_37_838">
<rect width="92.1444" height="90" fill="white"/>
</clipPath>
</defs>
</svg>
