<svg width="81" height="90" viewBox="0 0 81 90" fill="none" xmlns="http://www.w3.org/2000/svg">
<g opacity="0.8" clip-path="url(#clip0_37_819)">
<path d="M39.0098 0.31158C38.8541 0.15579 38.5425 0 38.2309 0C37.9193 0 37.6077 0.15579 37.4519 0.31158C36.3458 1.57348 35.4111 2.66401 34.1492 4.0817C28.8056 10.2043 22.8388 17.1213 18.134 24.0228C12.7904 32.0305 10.1263 38.636 10.1263 44.2912C10.1263 59.3716 22.2157 71.7725 37.1404 72.4113V89.0653C37.1404 89.5326 37.6077 90 38.0751 90C38.5425 90 39.0254 89.5326 39.0254 89.0653V72.2555C54.1059 71.7881 66.0394 59.3716 66.0394 44.1354C66.0394 31.7345 53.7943 17.5887 42.9513 5.18781C41.8452 3.45854 40.4431 1.88506 39.0254 0.31158H39.0098ZM44.1977 30.161C44.5092 30.6284 44.3535 31.2671 43.8861 31.5787L39.4928 34.0869V40.0537L44.8364 36.9067C45.3038 36.5951 45.9425 36.7509 46.2541 37.2183C46.5657 37.6856 46.4099 38.3244 45.9425 38.636L39.5084 42.2503V48.6844L47.8276 43.9796C48.2949 43.668 48.9337 43.8238 49.2453 44.2912C49.5568 44.7585 49.4011 45.3973 48.9337 45.7088L39.3526 51.0524V57.8137L51.5977 50.7409C52.0651 50.4293 52.7038 50.5851 53.0154 51.0524C53.327 51.5198 53.1712 52.1586 52.7038 52.4701L39.5084 60.0104V70.2146H37.4675V60.0104L24.2721 52.4701C23.8047 52.1586 23.6489 51.5354 23.9605 51.0524C24.2721 50.5851 24.9108 50.4293 25.3782 50.7409L37.6233 57.8137V51.0524L28.3538 45.7088C27.8864 45.3973 27.7306 44.7741 28.0422 44.2912C28.3538 43.8238 28.977 43.668 29.4599 43.9796L37.7791 48.6844V42.2503L31.345 38.636C30.8776 38.3244 30.7218 37.7012 31.0334 37.2183C31.345 36.7509 31.9837 36.5951 32.4511 36.9067L37.7947 40.0537V33.9311L33.4014 31.4229C32.934 31.1113 32.7782 30.4881 33.0898 30.0052C33.4014 29.5378 34.0401 29.382 34.5075 29.6936L37.9661 31.7345V24.1942C37.9661 23.7268 38.4334 23.2595 38.9008 23.2595C39.3682 23.2595 39.8511 23.7268 39.8511 24.1942V31.7345L43.3097 29.6936C43.3097 29.5378 43.9328 29.6936 44.26 30.161H44.1977Z" fill="white"/>
<path d="M80.4812 59.3718C80.4812 59.0602 80.1697 58.7486 79.7023 58.5928C79.2349 58.437 78.5962 58.437 78.1288 58.437C76.2437 58.437 74.3587 59.0602 73.0968 60.4779C71.3675 62.2071 70.7443 64.5596 71.2117 67.0678C71.2117 67.3794 71.5233 67.691 71.9907 67.8467C72.458 68.0025 73.0968 68.0025 73.5642 68.0025C75.4492 68.0025 77.3343 67.3794 78.5962 65.9617C80.3254 64.3882 80.9486 62.0358 80.4812 59.3718Z" fill="white"/>
<path d="M55.1964 76.1812C54.5733 76.0254 53.7787 75.8696 53.1556 75.8696C51.5821 75.8696 49.8528 76.4928 48.4507 77.5989C48.1391 77.9105 47.9833 78.2221 48.1391 78.705C48.7623 81.2132 50.4916 83.0983 52.6882 83.737C53.3114 83.8928 54.1059 84.0486 54.729 84.0486C56.3025 84.0486 58.0318 83.4255 59.4339 82.3193C59.7455 82.0078 59.9013 81.6962 59.7455 81.2132C59.1223 78.8608 57.3931 76.9757 55.1964 76.1812Z" fill="white"/>
<path d="M7.13514 68.3296C6.51198 68.1739 5.71745 68.0181 5.09429 68.0181C3.5208 68.0181 1.79153 68.6412 0.389421 69.7473C0.0778409 70.0589 -0.0779493 70.3705 0.0778409 70.8534C0.701002 73.3617 2.43027 75.2467 4.62691 75.8855C5.25008 76.0413 6.04461 76.1971 6.66777 76.1971C8.24125 76.1971 9.97052 75.5739 11.3726 74.4678C11.6842 74.1562 11.84 73.8446 11.6842 73.3617C11.0611 71.0092 9.48757 69.1242 7.13514 68.3296Z" fill="white"/>
</g>
<defs>
<clipPath id="clip0_37_819">
<rect width="80.637" height="90" fill="white"/>
</clipPath>
</defs>
</svg>
