<svg width="73" height="34" viewBox="0 0 73 34" fill="none" xmlns="http://www.w3.org/2000/svg">
<path d="M17.5405 26.7069V16.5454L15.5105 12.5886C14.7505 11.3068 12.8205 9.85782 11.4405 9.8764C10.1205 9.88569 7.8305 11.4554 7.0705 12.6722L3.7605 19.6106L0.990504 26.0382C-1.5695 30.7938 1.1005 33.7475 5.9305 33.6732L17.4205 33.4874C18.8305 33.4689 19.9705 33.088 20.7905 32.4471C18.8305 31.1932 17.5405 29.094 17.5405 26.7069Z" fill="#35763C"/>
<path d="M36.6605 14.0004V9.81134C36.6605 5.58513 32.9705 2.15771 28.4205 2.15771H25.5805C21.1405 2.15771 17.5405 5.50153 17.5405 9.62557V16.5454L18.9205 19.239L21.3305 25.5737C22.8105 28.611 22.4805 31.1096 20.7805 32.4378C21.9905 33.2087 23.4505 33.6732 25.0305 33.6732H29.4905C31.9505 33.6732 34.1205 32.5214 35.4105 30.7659C33.1005 28.7875 31.6405 25.9731 31.6405 22.8429C31.6405 19.1833 33.6205 15.9602 36.6505 14.0004H36.6605Z" fill="#A4BC49"/>
<path d="M21.3405 25.5832L18.9305 19.2486L17.5505 16.5549V26.7164C17.5505 29.0942 18.8405 31.2027 20.8005 32.4566C22.5005 31.1284 22.8305 28.6298 21.3505 25.5925L21.3405 25.5832Z" fill="#1B592C"/>
<path d="M49.0605 23.2888L51.4605 14.9107C49.3605 13.1273 46.5505 12.022 43.4505 12.022C40.9205 12.022 38.5805 12.7558 36.6605 14.0004V27.0227C36.6605 28.4067 36.2005 29.6977 35.4205 30.7659C37.5305 32.5679 40.3405 33.6732 43.4505 33.6732C45.8705 33.6732 48.1105 33.0044 49.9805 31.8619C48.2505 30.0786 48.2705 26.9484 49.0505 23.2888H49.0605Z" fill="#68AC45"/>
<path d="M36.6605 14.0005C33.6305 15.9603 31.6505 19.1927 31.6505 22.843C31.6505 25.9732 33.1105 28.7876 35.4205 30.766C36.2005 29.6978 36.6605 28.416 36.6605 27.0228V14.0005Z" fill="#458C39"/>
<path d="M69.3305 13.9166L66.5605 5.25056C64.9605 2.28757 63.7005 -0.0902522 60.6205 0.00263156C57.7405 0.0955153 56.4005 2.48263 54.9005 5.25056L51.9305 13.2757L51.4605 14.9105C53.7905 16.8889 55.2605 19.7126 55.2605 22.852C55.2605 26.6138 53.1605 29.9298 49.9905 31.871C50.9505 32.8649 52.4605 33.4408 54.6905 33.4501L66.5005 33.4779C72.7605 33.4965 72.9905 29.1681 71.1205 22.3319L69.3405 13.9259L69.3305 13.9166Z" fill="#648943"/>
<path d="M55.2605 22.8524C55.2605 19.713 53.7905 16.8893 51.4605 14.9109L49.0605 23.289C48.2805 26.9486 48.2505 30.0788 49.9905 31.8622C53.1705 29.9209 55.2605 26.605 55.2605 22.8432V22.8524Z" fill="#35763C"/>
</svg>
