<svg width="157" height="34" viewBox="0 0 157 34" fill="none" xmlns="http://www.w3.org/2000/svg">
<g clip-path="url(#clip0_57_2316)">
<path d="M17.6051 26.9655V16.7045L15.5675 12.7089C14.8047 11.4146 12.8676 9.95139 11.4824 9.97015C10.1575 9.97953 7.85905 11.5646 7.09623 12.7933L3.77396 19.7997L0.993688 26.2901C-1.5758 31.0924 1.1041 34.075 5.95201 33.9999L17.4846 33.8124C18.8998 33.7936 20.0441 33.409 20.8671 32.7619C18.8998 31.4957 17.6051 29.3759 17.6051 26.9655Z" fill="#35763C"/>
<path d="M36.7959 14.1346V9.90458C36.7959 5.63699 33.0923 2.17603 28.5254 2.17603H25.6749C21.2184 2.17603 17.605 5.55258 17.605 9.71699V16.7046L18.9902 19.4246L21.4091 25.8213C22.8946 28.8883 22.5634 31.4113 20.8571 32.7526C22.0715 33.5311 23.537 34 25.1228 34H29.5994C32.0685 34 34.2465 32.837 35.5413 31.0643C33.2227 29.0665 31.7573 26.2246 31.7573 23.0637C31.7573 19.3683 33.7447 16.1137 36.7859 14.1346H36.7959Z" fill="#A4BC49"/>
<path d="M21.4191 25.8306L19.0002 19.4339L17.6151 16.7139V26.9748C17.6151 29.3759 18.9098 31.505 20.8771 32.7712C22.5834 31.43 22.9146 28.907 21.4291 25.8399L21.4191 25.8306Z" fill="#1B592C"/>
<path d="M49.2419 23.5138L51.6508 15.0537C49.543 13.2529 46.7226 12.1367 43.6111 12.1367C41.0717 12.1367 38.723 12.8777 36.7959 14.1345V27.2843C36.7959 28.6818 36.3342 29.9855 35.5513 31.0642C37.6692 32.8838 40.4896 33.9999 43.6111 33.9999C46.0401 33.9999 48.2884 33.3246 50.1653 32.1709C48.4289 30.3701 48.449 27.2093 49.2319 23.5138H49.2419Z" fill="#68AC45"/>
<path d="M36.7959 14.1345C33.7547 16.1136 31.7673 19.3776 31.7673 23.0636C31.7673 26.2245 33.2327 29.0664 35.5513 31.0642C36.3342 29.9856 36.7959 28.6912 36.7959 27.2843V14.1345Z" fill="#458C39"/>
<path d="M69.5871 14.0499L66.8068 5.29904C65.2009 2.30704 63.9362 -0.0940655 60.8448 -0.000272362C57.9541 0.0935207 56.6091 2.504 55.1036 5.29904L52.1225 13.4028L51.6508 15.0535C53.9894 17.0513 55.4649 19.9026 55.4649 23.0728C55.4649 26.8715 53.3571 30.2199 50.1754 32.1801C51.1389 33.1837 52.6545 33.7652 54.8928 33.7746L66.7466 33.8028C73.0298 33.8215 73.2606 29.4508 71.3837 22.5476L69.5971 14.0593L69.5871 14.0499Z" fill="#648943"/>
<path d="M55.4649 23.073C55.4649 19.9028 53.9895 17.0515 51.6508 15.0537L49.2419 23.5138C48.459 27.2093 48.4289 30.3701 50.1754 32.171C53.3672 30.2107 55.4649 26.8623 55.4649 23.0636V23.073Z" fill="#35763C"/>
<path d="M91.5984 9.83894H93.3148V14.6974H96.0549V2.98267H93.3148V7.65356H91.5984V3.30156H88.9386V14.0971H91.5984V9.83894Z" fill="#1D1D1D"/>
<path d="M82.3743 12.2962C82.9063 11.7053 83.3278 11.0487 83.649 10.3359C83.9401 10.8893 84.3014 11.4052 84.7431 11.8741C85.4256 12.5963 86.2888 13.1403 87.3326 13.5155L88.8583 11.4614C87.985 11.1519 87.2624 10.7298 86.6903 10.2046C86.1182 9.67936 85.6866 9.08847 85.4055 8.43191C85.1245 7.78474 84.984 7.10005 84.984 6.36847V4.11743H82.2037V6.36847C82.2037 7.12819 82.0531 7.85978 81.7721 8.58198C81.4911 9.29481 81.0494 9.96074 80.4372 10.5704C79.8249 11.1801 79.0621 11.6772 78.1387 12.0429L79.6944 14.1158C80.7584 13.7031 81.6516 13.0934 82.3643 12.2962H82.3743Z" fill="#1D1D1D"/>
<path d="M92.8029 21.6944C93.8768 21.4037 94.6999 20.991 95.282 20.447C95.8642 19.9124 96.1553 19.2746 96.1553 18.5336C96.1553 17.7927 95.8642 17.1549 95.282 16.6202C94.6999 16.0856 93.8768 15.6729 92.8029 15.3916C91.7289 15.1102 90.4743 14.9695 89.039 14.9695C87.6037 14.9695 86.339 15.1102 85.2751 15.3916C84.2111 15.6729 83.3881 16.0856 82.8059 16.6202C82.2238 17.1642 81.9427 17.802 81.9427 18.5336C81.9427 19.2652 82.2338 19.9124 82.8059 20.447C83.3881 20.9816 84.2111 21.3943 85.2751 21.6944C86.339 21.9852 87.5936 22.1353 89.039 22.1353C90.4843 22.1353 91.7289 21.9852 92.8029 21.6944ZM85.3152 19.3965C84.984 19.162 84.8234 18.8807 84.8334 18.5336C84.8334 18.196 84.984 17.9052 85.3152 17.6707C85.6464 17.4362 86.1282 17.2487 86.7606 17.1361C87.3929 17.0236 88.1557 16.9579 89.049 16.9673C89.9323 16.9673 90.6951 17.0142 91.3274 17.1361C91.9598 17.258 92.4415 17.4362 92.7728 17.6707C93.104 17.9052 93.2646 18.196 93.2746 18.5336C93.2746 18.8807 93.104 19.162 92.7728 19.3965C92.4415 19.631 91.9698 19.7998 91.3375 19.9218C90.7051 20.0437 89.9423 20.1 89.039 20.1C88.1356 20.1 87.3728 20.0437 86.7405 19.9218C86.1081 19.7998 85.6364 19.631 85.3052 19.3965H85.3152Z" fill="#1D1D1D"/>
<path d="M112.435 15.1288C111.371 14.8381 110.117 14.688 108.661 14.688C107.206 14.688 105.961 14.8381 104.898 15.1288C103.844 15.4196 103.031 15.851 102.458 16.4044C101.886 16.9672 101.605 17.6331 101.605 18.421C101.605 19.2088 101.886 19.8654 102.458 20.4281C103.021 20.9815 103.834 21.413 104.898 21.6943C105.951 21.9851 107.206 22.1258 108.661 22.1258C110.117 22.1258 111.381 21.9851 112.435 21.6943C113.489 21.4036 114.312 20.9815 114.874 20.4281C115.446 19.8654 115.728 19.1994 115.738 18.421C115.738 17.6425 115.446 16.9672 114.874 16.4044C114.302 15.8416 113.489 15.4196 112.435 15.1288ZM112.385 19.3307C112.074 19.5746 111.602 19.7622 110.97 19.8935C110.338 20.0248 109.575 20.0905 108.651 20.0905C107.738 20.0905 106.975 20.0154 106.353 19.8935C105.731 19.7716 105.259 19.584 104.938 19.3307C104.616 19.0869 104.456 18.7867 104.456 18.421C104.456 18.0458 104.616 17.7269 104.938 17.483C105.259 17.2298 105.731 17.0516 106.343 16.9203C106.955 16.7983 107.728 16.7327 108.641 16.7327C109.555 16.7327 110.338 16.7983 110.96 16.9203C111.582 17.0422 112.054 17.2298 112.365 17.483C112.676 17.7363 112.837 18.0458 112.837 18.421C112.837 18.7774 112.676 19.0775 112.365 19.3307H112.385Z" fill="#1D1D1D"/>
<path d="M108.983 11.7523H112.807V14.1816H115.667V2.93579H112.807V5.75896H108.983V4.36145H99.2366V13.1311H108.983V11.7523ZM112.807 7.87869V9.56696H108.983V7.87869H112.807ZM106.152 11.0114H102.087V6.48117H106.152V11.0114Z" fill="#1D1D1D"/>
<path d="M122.071 13.0465C122.944 13.4498 123.908 13.6562 124.982 13.6562C126.056 13.6562 127.019 13.4498 127.882 13.0465C128.756 12.6432 129.428 12.0805 129.92 11.3676C130.412 10.6548 130.663 9.84819 130.663 8.93839C130.663 8.0286 130.412 7.23136 129.92 6.51853C129.428 5.8057 128.746 5.24295 127.882 4.83964C127.019 4.43632 126.046 4.22998 124.982 4.22998C123.918 4.22998 122.934 4.43632 122.071 4.83964C121.208 5.24295 120.525 5.8057 120.023 6.51853C119.522 7.23136 119.281 8.03798 119.281 8.93839C119.281 9.83881 119.532 10.6548 120.023 11.3676C120.515 12.0805 121.198 12.6338 122.071 13.0465ZM122.503 7.66281C122.753 7.29701 123.085 7.02501 123.516 6.83743C123.948 6.64984 124.43 6.55605 124.982 6.54667C125.534 6.54667 126.026 6.64984 126.467 6.83743C126.909 7.02501 127.25 7.29701 127.491 7.66281C127.732 8.0286 127.852 8.45067 127.852 8.93839C127.852 9.42612 127.732 9.86695 127.491 10.214C127.25 10.5704 126.909 10.8424 126.467 11.03C126.026 11.2176 125.534 11.3207 124.982 11.3207C124.43 11.3207 123.948 11.2176 123.516 11.03C123.085 10.8424 122.753 10.5704 122.503 10.214C122.252 9.85757 122.131 9.4355 122.131 8.93839C122.131 8.44129 122.252 8.0286 122.503 7.66281Z" fill="#1D1D1D"/>
<path d="M123.105 18.1958C124.44 18.1583 125.865 18.0832 127.381 17.9613C128.886 17.8394 130.352 17.6424 131.757 17.3892L131.556 15.457C129.599 15.7103 127.541 15.8791 125.363 15.9541C123.185 16.0292 120.877 16.0667 118.427 16.0667L118.769 18.2427C120.335 18.2427 121.78 18.2239 123.115 18.1864L123.105 18.1958Z" fill="#1D1D1D"/>
<path d="M135.561 2.93579H132.71V22.1821H135.561V2.93579Z" fill="#1D1D1D"/>
<path d="M157 13.5999V11.4802H138.291V13.5999H146.18V15.1944H140.278V17.3142H143.089V19.6965H140.118V21.8537H155.223V19.6965H152.232V17.3142H155.003V15.1944H149.051V13.5999H157.01H157ZM149.422 19.6871H145.939V17.3048H149.422V19.6871Z" fill="#1D1D1D"/>
<path d="M144.725 9.25726C145.989 8.61946 146.963 7.8316 147.635 6.88429C147.635 6.88429 147.635 6.87491 147.645 6.86553C148.318 7.80346 149.281 8.60071 150.546 9.2385C151.811 9.88567 153.306 10.3077 155.043 10.5047L156.057 8.43188C154.581 8.27243 153.326 7.95353 152.283 7.46581C151.239 6.98746 150.446 6.41533 149.914 5.76815C149.382 5.12098 149.111 4.44567 149.111 3.76098V3.13257H146.15V3.76098C146.15 4.46443 145.889 5.13974 145.357 5.77753C144.825 6.42471 144.032 6.97809 142.978 7.45643C141.924 7.93477 140.66 8.25367 139.194 8.4225L140.238 10.4953C141.954 10.289 143.44 9.86691 144.705 9.22912L144.725 9.25726Z" fill="#1D1D1D"/>
<path d="M80.4974 33.4373H81.3806V30.4735H84.452V29.7513H81.3806V27.5377H84.7732V26.8062H80.4974V33.4373Z" fill="#1D1D1D"/>
<path d="M90.2534 27.1248C89.7817 26.8435 89.2397 26.7122 88.6375 26.7122C88.0352 26.7122 87.4932 26.8528 87.0115 27.1248C86.5397 27.4062 86.1683 27.8002 85.8973 28.316C85.6263 28.8319 85.4958 29.4322 85.4958 30.1168C85.4958 30.8015 85.6263 31.4018 85.8973 31.9177C86.1683 32.4335 86.5397 32.8275 87.0115 33.1088C87.4832 33.3902 88.0252 33.5215 88.6375 33.5215C89.2497 33.5215 89.7817 33.3808 90.2534 33.1088C90.7252 32.8368 91.0965 32.4335 91.3675 31.9177C91.6385 31.4018 91.769 30.8015 91.769 30.1168C91.769 29.4322 91.6385 28.8319 91.3675 28.316C91.0965 27.8002 90.7252 27.4062 90.2534 27.1248ZM90.6248 31.5425C90.4241 31.9364 90.1531 32.2366 89.8118 32.4429C89.4705 32.6493 89.0791 32.7524 88.6475 32.7524C88.2159 32.7524 87.8245 32.6493 87.4732 32.4429C87.1319 32.2366 86.8609 31.9364 86.6601 31.5425C86.4594 31.1486 86.359 30.6702 86.359 30.1168C86.359 29.5635 86.4594 29.0851 86.6601 28.6912C86.8609 28.2973 87.1319 27.9971 87.4732 27.7908C87.8144 27.5844 88.2059 27.4813 88.6475 27.4813C89.0891 27.4813 89.4705 27.5844 89.8118 27.7908C90.1531 27.9971 90.4241 28.2973 90.6248 28.6912C90.8255 29.0851 90.9259 29.5635 90.9259 30.1168C90.9259 30.6702 90.8255 31.1392 90.6248 31.5425Z" fill="#1D1D1D"/>
<path d="M96.5266 30.6048C96.8879 30.4359 97.1589 30.2015 97.3296 29.9013C97.5002 29.6012 97.5905 29.2542 97.5905 28.8508C97.5905 28.4475 97.5002 28.0911 97.3296 27.7816C97.1589 27.4721 96.8879 27.2376 96.5266 27.0594C96.1653 26.8906 95.7136 26.8062 95.1716 26.8062H92.7627V33.4373H93.646V30.8674H95.1816C95.2419 30.8674 95.292 30.858 95.3422 30.8486L96.8378 33.4373H97.8716L96.2656 30.6892C96.356 30.6611 96.4563 30.6423 96.5366 30.6048H96.5266ZM93.6359 27.5377H95.1214C95.4928 27.5377 95.7939 27.594 96.0348 27.6972C96.2757 27.8004 96.4463 27.9504 96.5467 28.1474C96.6571 28.3444 96.7073 28.5788 96.7073 28.8508C96.7073 29.1228 96.647 29.3479 96.5467 29.5355C96.4363 29.7231 96.2656 29.8638 96.0348 29.967C95.8039 30.0702 95.5028 30.117 95.1314 30.117H93.6359V27.5471V27.5377Z" fill="#1D1D1D"/>
<path d="M99.4373 30.4735H102.629V29.7513H99.4373V27.5377H102.85V26.8062H98.5541V33.4373H102.9V32.7057H99.4373V30.4735Z" fill="#1D1D1D"/>
<path d="M108.17 30.4076C107.778 30.1356 107.306 29.9387 106.754 29.8074L106.052 29.6198C105.68 29.5354 105.359 29.4134 105.088 29.2446C104.817 29.0852 104.687 28.8413 104.677 28.5412C104.677 28.3348 104.747 28.1379 104.877 27.9784C105.008 27.8096 105.189 27.6876 105.43 27.5939C105.67 27.5001 105.931 27.4532 106.243 27.4532C106.524 27.4532 106.785 27.4907 107.015 27.5751C107.246 27.6595 107.427 27.7721 107.567 27.9315C107.708 28.091 107.788 28.2692 107.808 28.4849H108.671C108.671 28.1566 108.551 27.8565 108.35 27.5845C108.14 27.3219 107.858 27.1061 107.497 26.9561C107.136 26.806 106.724 26.731 106.273 26.731C105.821 26.731 105.399 26.806 105.028 26.9561C104.657 27.1061 104.366 27.3312 104.155 27.6126C103.944 27.894 103.834 28.2223 103.834 28.5881C103.834 29.0195 103.984 29.3759 104.295 29.6573C104.606 29.9387 105.058 30.1544 105.63 30.3139L106.503 30.5296C106.795 30.6046 107.045 30.689 107.246 30.7734C107.447 30.8579 107.608 30.9704 107.728 31.1111C107.848 31.2518 107.909 31.4206 107.909 31.627C107.909 31.8614 107.838 32.0678 107.688 32.2554C107.537 32.443 107.337 32.5743 107.076 32.6774C106.815 32.7712 106.524 32.8275 106.192 32.8275C105.901 32.8275 105.64 32.79 105.399 32.715C105.159 32.6305 104.958 32.5086 104.807 32.3492C104.647 32.1803 104.566 31.9834 104.536 31.7489H103.633C103.663 32.1147 103.783 32.4336 103.994 32.715C104.205 32.987 104.496 33.2027 104.877 33.3621C105.259 33.5216 105.69 33.5966 106.192 33.5966C106.724 33.5966 107.196 33.5122 107.577 33.3434C107.969 33.1745 108.26 32.9494 108.461 32.6587C108.661 32.3679 108.762 32.0396 108.762 31.6739C108.762 31.1299 108.561 30.7172 108.17 30.4452V30.4076Z" fill="#1D1D1D"/>
<path d="M109.324 27.5377H111.562V33.4373H112.455V27.5377H114.684V26.8062H109.324V27.5377Z" fill="#1D1D1D"/>
<path d="M117.755 33.4373H118.638V30.4735H121.7V29.7513H118.638V27.5377H122.031V26.8062H117.755V33.4373Z" fill="#1D1D1D"/>
<path d="M127.511 27.1248C127.039 26.8435 126.497 26.7122 125.895 26.7122C125.293 26.7122 124.751 26.8528 124.269 27.1248C123.797 27.4062 123.426 27.8002 123.155 28.316C122.884 28.8319 122.753 29.4322 122.753 30.1168C122.753 30.8015 122.884 31.4018 123.155 31.9177C123.426 32.4335 123.797 32.8275 124.269 33.1088C124.741 33.3902 125.283 33.5215 125.895 33.5215C126.507 33.5215 127.039 33.3808 127.511 33.1088C127.983 32.8368 128.354 32.4335 128.625 31.9177C128.896 31.4018 129.027 30.8015 129.027 30.1168C129.027 29.4322 128.896 28.8319 128.625 28.316C128.354 27.8002 127.983 27.4062 127.511 27.1248ZM127.872 31.5425C127.672 31.9364 127.401 32.2366 127.059 32.4429C126.718 32.6493 126.327 32.7524 125.895 32.7524C125.463 32.7524 125.072 32.6493 124.721 32.4429C124.379 32.2366 124.108 31.9364 123.908 31.5425C123.707 31.1486 123.607 30.6702 123.607 30.1168C123.607 29.5635 123.707 29.0851 123.908 28.6912C124.108 28.2973 124.379 27.9971 124.721 27.7908C125.062 27.5844 125.453 27.4813 125.895 27.4813C126.337 27.4813 126.718 27.5844 127.059 27.7908C127.401 27.9971 127.672 28.2973 127.872 28.6912C128.073 29.0851 128.173 29.5635 128.173 30.1168C128.173 30.6702 128.073 31.1392 127.872 31.5425Z" fill="#1D1D1D"/>
<path d="M133.784 30.6048C134.146 30.4359 134.417 30.2015 134.587 29.9013C134.758 29.6012 134.848 29.2542 134.848 28.8508C134.848 28.4475 134.758 28.0911 134.587 27.7816C134.417 27.4721 134.146 27.2376 133.784 27.0594C133.423 26.8906 132.971 26.8062 132.429 26.8062H130.02V33.4373H130.904V30.8674H132.439C132.499 30.8674 132.55 30.858 132.6 30.8486L134.095 33.4373H135.129L133.523 30.6892C133.614 30.6611 133.714 30.6423 133.794 30.6048H133.784ZM130.894 27.5377H132.379C132.75 27.5377 133.052 27.594 133.292 27.6972C133.533 27.8004 133.704 27.9504 133.804 28.1474C133.915 28.3444 133.965 28.5788 133.965 28.8508C133.965 29.1228 133.905 29.3479 133.804 29.5355C133.694 29.7231 133.523 29.8638 133.292 29.967C133.062 30.0702 132.76 30.117 132.389 30.117H130.894V27.5471V27.5377Z" fill="#1D1D1D"/>
<path d="M138.893 26.8062H138.01V33.4373H142.185V32.7057H138.893V26.8062Z" fill="#1D1D1D"/>
<path d="M143.942 26.8062H143.058V33.4373H143.942V26.8062Z" fill="#1D1D1D"/>
<path d="M145.196 33.4373H146.08V30.4735H149.141V29.7513H146.08V27.5377H149.472V26.8062H145.196V33.4373Z" fill="#1D1D1D"/>
<path d="M151.349 30.4735H154.551V29.7513H151.349V27.5377H154.772V26.8062H150.466V33.4373H154.822V32.7057H151.349V30.4735Z" fill="#1D1D1D"/>
</g>
<defs>
<clipPath id="clip0_57_2316">
<rect width="157" height="34" fill="white"/>
</clipPath>
</defs>
</svg>
