<svg width="186" height="44" viewBox="0 0 186 44" fill="none" xmlns="http://www.w3.org/2000/svg">
<g opacity="0.8" clip-path="url(#clip0_50_1470)">
<path d="M83.0043 18.7373C82.9331 18.3542 82.8381 17.983 82.7313 17.5999L79.9059 8.00972C79.6922 7.29135 79.4073 6.56101 79.0512 5.85461C77.401 2.58604 75.7153 -0.119807 72.2489 -7.95396e-05C68.9249 0.107676 67.2629 2.86142 65.5772 6.16591C65.316 6.66876 65.0905 7.20754 64.9005 7.77026L61.7903 16.9055C61.6953 17.1809 61.6122 17.4682 61.541 17.7436L61.2204 18.9648C58.7156 16.7977 55.451 15.4807 51.8777 15.4807C49.0167 15.4807 46.3575 16.3308 44.1138 17.7795V12.9425C44.1138 7.33924 39.5909 2.77761 34.0351 2.77761H30.6636C25.2384 2.77761 20.8223 7.23148 20.8223 12.703V20.9164L18.7448 15.9237C16.8454 13.0982 15.6108 12.1403 13.8776 12.1403H13.8301C12.1087 12.1523 10.8741 12.4516 8.41675 16.4984L4.47547 25.4541L1.19898 33.7153C-0.652949 37.4508 -0.0475109 39.8214 0.783482 41.1624C1.92313 42.9942 4.16681 43.988 7.09903 43.988C7.17026 43.988 7.25336 43.988 7.32459 43.988L20.9647 43.7485C22.5911 43.7246 23.9444 43.2696 24.9416 42.4435C26.4018 43.4133 28.135 43.988 30.0107 43.988H35.3053C38.2019 43.988 40.778 42.5632 42.3806 40.3722C44.9092 42.6111 48.2332 43.988 51.8658 43.988C54.7031 43.988 57.3385 43.1499 59.5584 41.7371C60.8168 43.0182 62.7043 43.6886 65.1973 43.6886L79.2174 43.7245H79.2648C81.9478 43.7245 83.7997 43.0182 84.9275 41.5575C86.6369 39.3425 86.6607 35.583 84.9868 29.01L82.9806 18.7254L83.0043 18.7373ZM20.9766 43.1618L7.33646 43.4013C4.51108 43.4492 2.36237 42.5512 1.30582 40.8511C0.22553 39.127 0.379857 36.7564 1.75693 33.9667L5.04529 25.6816L8.96283 16.7738C11.4083 12.7509 12.548 12.739 13.8657 12.727H13.9013C15.4208 12.727 16.4893 13.589 18.2462 16.1991L20.8342 22.4489V34.709C20.8342 37.7022 22.2587 40.3722 24.4549 42.0723C23.5764 42.7548 22.413 43.1259 20.9885 43.1618H20.9766ZM21.4277 34.721V23.8976L25.3571 33.3801C26.5799 36.5648 26.6036 39.3066 25.4165 41.0905C25.274 41.318 25.0722 41.4856 24.8942 41.6772C22.7929 40.0968 21.4277 37.5705 21.4277 34.733V34.721ZM35.3291 43.4013H30.0344C28.3368 43.4013 26.7461 42.8984 25.4046 42.0244C25.5827 41.8328 25.7489 41.6293 25.9032 41.4018C27.2091 39.4503 27.2091 36.5169 25.9032 33.1406L21.4159 22.3411V12.703C21.4159 7.55475 25.5708 3.37625 30.6636 3.37625H34.0351C39.2703 3.37625 43.5203 7.66251 43.5203 12.9425V18.1986C39.9233 20.7967 37.5727 24.9991 37.5727 29.7403C37.5727 33.7632 39.2585 37.3909 41.9533 39.9771C40.4575 42.0484 38.0476 43.4013 35.3291 43.4013ZM38.1782 29.7523C38.1782 25.3583 40.2794 21.4432 43.5321 18.9528V35.1401C43.5321 36.7324 43.0692 38.229 42.2975 39.4862C39.7571 37.0078 38.1782 33.5597 38.1782 29.7523ZM42.7368 39.8933C43.6034 38.5164 44.1257 36.8881 44.1257 35.1401V18.5099C46.3338 16.9893 49.0048 16.0913 51.8896 16.0913C55.4153 16.0913 58.6206 17.4323 61.0542 19.6233L58.3713 29.7882C58.2882 30.0995 58.217 30.4108 58.1576 30.7221C57.2079 35.8465 57.5403 39.1988 59.1786 41.2941C57.0655 42.6231 54.5725 43.4013 51.8896 43.4013C48.3756 43.4013 45.1704 42.0603 42.7368 39.8933ZM65.601 29.7523C65.601 34.3977 63.2504 38.5164 59.6772 40.9828C58.1339 39.0671 57.8371 35.7507 58.7393 30.8418C58.7987 30.5425 58.8699 30.2432 58.9411 29.9558L61.541 20.0783C64.0458 22.5567 65.5891 25.9809 65.5891 29.7643L65.601 29.7523ZM84.4764 41.1983C83.4673 42.5153 81.7578 43.1499 79.2411 43.1379L65.2211 43.102C62.918 43.102 61.2323 42.5392 60.0808 41.4138C63.7728 38.8277 66.1945 34.5654 66.1945 29.7403C66.1945 25.6696 64.4732 22.0059 61.719 19.4078L62.1227 17.8873C62.1939 17.6119 62.277 17.3485 62.3601 17.0851L65.4704 7.94985C65.6484 7.42305 65.8621 6.90822 66.1114 6.42931C67.7615 3.18468 69.2692 0.682369 72.2726 0.586587C72.3439 0.586587 72.4032 0.586587 72.4744 0.586587C75.4898 0.586587 76.9499 2.98115 78.5288 6.11802C78.8731 6.80047 79.1461 7.48291 79.3479 8.17734L82.1733 17.7675C82.2802 18.1267 82.3633 18.4859 82.4345 18.8451L84.4407 29.1417C86.0315 35.4514 86.0552 39.1749 84.4882 41.1983H84.4764Z" fill="white"/>
<path d="M97.7249 15.9954C98.3541 15.2412 98.8527 14.4031 99.2325 13.4931C99.5768 14.1995 100.004 14.858 100.527 15.4567C101.334 16.3786 102.355 17.073 103.589 17.5519L105.394 14.9299C104.361 14.5348 103.506 13.996 102.83 13.3255C102.153 12.655 101.642 11.9008 101.322 11.0627C100.989 10.2365 100.823 9.36252 100.823 8.42865V5.55518H97.5349V8.42865C97.5349 9.39844 97.3569 10.3323 97.0245 11.2542C96.6921 12.1642 96.1697 13.0142 95.4456 13.7925C94.7214 14.5707 93.8192 15.2052 92.7271 15.6722L94.5671 18.3182C95.8255 17.7914 96.882 17.0131 97.7249 15.9954Z" fill="white"/>
<path d="M108.646 12.8586H110.676V19.0724H113.917V4.10645H110.676V10.0689H108.646V4.51352H105.5V18.3062H108.646V12.8586Z" fill="white"/>
<path d="M105.619 28.5432C107.317 28.5432 108.801 28.3516 110.071 27.9805C111.341 27.6093 112.315 27.0825 113.003 26.3881C113.692 25.7057 114.036 24.8915 114.036 23.9457C114.036 22.9998 113.692 22.1857 113.003 21.5032C112.315 20.8088 111.341 20.294 110.071 19.9348C108.801 19.5756 107.329 19.396 105.619 19.396C103.91 19.396 102.426 19.5756 101.168 19.9348C99.9091 20.294 98.9357 20.8208 98.2472 21.5032C97.5586 22.1976 97.2144 23.0118 97.2144 23.9457C97.2144 24.8795 97.5586 25.7057 98.2472 26.3881C98.9357 27.0706 99.9091 27.5974 101.168 27.9805C102.426 28.3516 103.91 28.5432 105.619 28.5432ZM100.633 23.9576C100.633 23.5266 100.811 23.1555 101.203 22.8561C101.595 22.5568 102.165 22.3174 102.913 22.1737C103.66 22.03 104.563 21.9462 105.619 21.9582C106.664 21.9582 107.566 22.018 108.314 22.1737C109.062 22.3293 109.632 22.5568 110.024 22.8561C110.415 23.1555 110.605 23.5266 110.617 23.9576C110.617 24.4006 110.415 24.7598 110.024 25.0591C109.632 25.3584 109.074 25.574 108.326 25.7296C107.59 25.8852 106.676 25.9571 105.607 25.9571C104.539 25.9571 103.637 25.8852 102.889 25.7296C102.141 25.574 101.583 25.3584 101.191 25.0591C100.799 24.7598 100.61 24.4006 100.621 23.9576H100.633Z" fill="white"/>
<path d="M133.279 19.6115C132.021 19.2404 130.537 19.0488 128.816 19.0488C127.094 19.0488 125.622 19.2404 124.364 19.6115C123.118 19.9827 122.156 20.5335 121.479 21.2398C120.803 21.9462 120.47 22.8083 120.47 23.814C120.47 24.8197 120.803 25.6578 121.479 26.3762C122.156 27.0826 123.106 27.6333 124.364 27.9925C125.622 28.3517 127.094 28.5433 128.816 28.5433C130.537 28.5433 132.033 28.3637 133.279 27.9925C134.526 27.6213 135.499 27.0826 136.164 26.3762C136.841 25.6578 137.173 24.8077 137.185 23.814C137.185 22.8203 136.841 21.9582 136.164 21.2398C135.499 20.5215 134.526 19.9827 133.279 19.6115ZM133.232 24.9754C132.864 25.2867 132.306 25.5261 131.558 25.6937C130.822 25.8494 129.908 25.9452 128.816 25.9452C127.735 25.9452 126.833 25.8494 126.097 25.6937C125.361 25.5381 124.803 25.2986 124.423 24.9754C124.043 24.6641 123.854 24.2809 123.854 23.814C123.854 23.3351 124.043 22.928 124.423 22.6167C124.803 22.2935 125.361 22.066 126.085 21.8984C126.81 21.7427 127.724 21.6589 128.804 21.6589C129.884 21.6589 130.81 21.7427 131.546 21.8984C132.282 22.054 132.84 22.2935 133.208 22.6167C133.576 22.94 133.766 23.3351 133.766 23.814C133.766 24.269 133.576 24.6521 133.208 24.9754H133.232Z" fill="white"/>
<path d="M117.669 17.0613H129.196V15.3013H133.719V18.4022H137.102V4.04688H133.719V7.65068H129.196V5.86674H117.669V17.0613ZM133.719 10.3565V12.5116H129.196V10.3565H133.719ZM121.04 8.58456H125.848V14.3674H121.04V8.58456Z" fill="white"/>
<path d="M160.643 4.04688H157.271V28.615H160.643V4.04688Z" fill="white"/>
<path d="M140.758 23.5982C142.61 23.5982 144.32 23.5742 145.899 23.5263C147.478 23.4784 149.163 23.3827 150.956 23.227C152.737 23.0714 154.47 22.8199 156.132 22.4967L155.894 20.0303C153.58 20.3535 151.146 20.569 148.57 20.6648C145.994 20.7606 143.263 20.8085 140.367 20.8085L140.77 23.5862L140.758 23.5982Z" fill="white"/>
<path d="M142.254 8.62058C141.673 9.53051 141.376 10.5602 141.376 11.7096C141.376 12.8589 141.673 13.9006 142.254 14.8105C142.836 15.7204 143.643 16.4268 144.676 16.9536C145.709 17.4685 146.848 17.7319 148.119 17.7319C149.389 17.7319 150.529 17.4685 151.549 16.9536C152.582 16.4388 153.378 15.7204 153.959 14.8105C154.541 13.9006 154.838 12.8709 154.838 11.7096C154.838 10.5482 154.541 9.53051 153.959 8.62058C153.378 7.71065 152.57 6.99228 151.549 6.47745C150.529 5.96262 149.377 5.69922 148.119 5.69922C146.86 5.69922 145.697 5.96262 144.676 6.47745C143.655 6.99228 142.848 7.71065 142.254 8.62058ZM145.186 10.0813C145.483 9.61432 145.875 9.26711 146.385 9.02765C146.896 8.7882 147.466 8.66847 148.119 8.6565C148.772 8.6565 149.353 8.7882 149.876 9.02765C150.398 9.26711 150.802 9.61432 151.086 10.0813C151.371 10.5482 151.526 11.087 151.526 11.7096C151.526 12.3321 151.383 12.8949 151.086 13.3379C150.802 13.7928 150.398 14.14 149.876 14.3795C149.353 14.6189 148.772 14.7506 148.119 14.7506C147.466 14.7506 146.896 14.6189 146.385 14.3795C145.875 14.14 145.483 13.7928 145.186 13.3379C144.89 12.8829 144.747 12.3441 144.747 11.7096C144.747 11.075 144.89 10.5482 145.186 10.0813Z" fill="white"/>
<path d="M164.952 11.0747L166.187 13.7207C168.217 13.4573 169.974 12.9185 171.47 12.1044C172.965 11.2902 174.117 10.2845 174.912 9.07525C174.912 9.07525 174.912 9.06328 174.924 9.0513C175.72 10.2486 176.859 11.2663 178.355 12.0804C179.851 12.9065 181.62 13.4453 183.673 13.6967L184.872 11.0508C183.127 10.8472 181.643 10.4401 180.409 9.81756C179.174 9.20695 178.236 8.47661 177.607 7.65049C176.978 6.82436 176.657 5.96232 176.657 5.08831V4.28613H173.155V5.08831C173.155 5.98627 172.847 6.84831 172.217 7.66246C171.588 8.48858 170.65 9.19498 169.404 9.80559C168.157 10.4162 166.662 10.8233 164.928 11.0388L164.952 11.0747Z" fill="white"/>
<path d="M173.203 19.6831H166.222V22.389H169.546V25.4301H166.032V28.1838H183.899V25.4301H180.361V22.389H183.638V19.6831H176.598V17.6477H186.012V14.9419H163.884V17.6477H173.215V19.6831H173.203ZM177.025 25.4301H172.906V22.389H177.025V25.4301Z" fill="white"/>
<path d="M100.562 35.4515V34.5176H95.5166V42.9823H96.5613V39.1989H100.182V38.277H96.5613V35.4515H100.562Z" fill="white"/>
<path d="M103.304 42.5634C103.862 42.9226 104.503 43.0902 105.227 43.0902C105.952 43.0902 106.581 42.9106 107.139 42.5634C107.697 42.2162 108.136 41.7013 108.456 41.0428C108.777 40.3843 108.931 39.6181 108.931 38.7441C108.931 37.8701 108.777 37.1038 108.456 36.4453C108.136 35.7868 107.697 35.2839 107.139 34.9248C106.581 34.5656 105.94 34.3979 105.227 34.3979C104.515 34.3979 103.874 34.5775 103.304 34.9248C102.746 35.2839 102.307 35.7868 101.987 36.4453C101.666 37.1038 101.512 37.8701 101.512 38.7441C101.512 39.6181 101.666 40.3843 101.987 41.0428C102.307 41.7013 102.746 42.2042 103.304 42.5634ZM102.877 36.9242C103.114 36.4214 103.435 36.0382 103.838 35.7748C104.242 35.5114 104.705 35.3797 105.227 35.3797C105.75 35.3797 106.201 35.5114 106.605 35.7748C107.008 36.0382 107.329 36.4214 107.566 36.9242C107.804 37.4271 107.922 38.0377 107.922 38.7441C107.922 39.4505 107.804 40.0491 107.566 40.5639C107.329 41.0668 107.008 41.4499 106.605 41.7133C106.201 41.9767 105.738 42.1084 105.227 42.1084C104.717 42.1084 104.254 41.9767 103.838 41.7133C103.435 41.4499 103.114 41.0668 102.877 40.5639C102.639 40.0611 102.521 39.4505 102.521 38.7441C102.521 38.0377 102.639 37.4271 102.877 36.9242Z" fill="white"/>
<path d="M116.22 42.9823L114.321 39.4743C114.428 39.4384 114.546 39.4145 114.641 39.3666C115.069 39.151 115.389 38.8517 115.591 38.4686C115.793 38.0855 115.9 37.6425 115.9 37.1276C115.9 36.6128 115.793 36.1579 115.591 35.7627C115.389 35.3676 115.069 35.0683 114.641 34.8408C114.214 34.6253 113.68 34.5176 113.039 34.5176H110.19V42.9823H111.234V39.7018H113.051C113.122 39.7018 113.181 39.6898 113.241 39.6778L115.009 42.9823H116.232H116.22ZM111.223 35.4515H112.979C113.419 35.4515 113.775 35.5233 114.06 35.655C114.345 35.7867 114.546 35.9783 114.665 36.2297C114.796 36.4811 114.855 36.7804 114.855 37.1276C114.855 37.4749 114.784 37.7622 114.665 38.0017C114.535 38.2411 114.333 38.4207 114.06 38.5524C113.787 38.6841 113.431 38.744 112.991 38.744H111.223V35.4634V35.4515Z" fill="white"/>
<path d="M122.263 42.0485H118.155V39.1989H121.93V38.277H118.155V35.4515H122.203V34.5176H117.111V42.9823H122.263V42.0485Z" fill="white"/>
<path d="M127.273 41.9887C126.964 42.1084 126.62 42.1802 126.228 42.1802C125.884 42.1802 125.575 42.1323 125.29 42.0365C125.005 41.9288 124.768 41.7731 124.59 41.5696C124.412 41.3541 124.305 41.1027 124.269 40.8034H123.201C123.236 41.2703 123.379 41.6774 123.628 42.0365C123.877 42.3838 124.233 42.6591 124.673 42.8627C125.112 43.0662 125.634 43.162 126.228 43.162C126.857 43.162 127.403 43.0542 127.866 42.8387C128.329 42.6232 128.673 42.3359 128.911 41.9647C129.148 41.5936 129.267 41.1745 129.267 40.7076C129.267 40.0131 129.03 39.4863 128.567 39.1391C128.104 38.7919 127.546 38.5405 126.893 38.3729L126.062 38.1334C125.611 38.0257 125.231 37.87 124.922 37.6545C124.602 37.451 124.447 37.1397 124.435 36.7565C124.435 36.4931 124.507 36.2417 124.673 36.0382C124.827 35.8227 125.041 35.667 125.326 35.5473C125.611 35.4276 125.919 35.3677 126.287 35.3677C126.62 35.3677 126.928 35.4156 127.201 35.5234C127.474 35.6311 127.688 35.7748 127.854 35.9783C128.02 36.1819 128.115 36.4093 128.139 36.6847H129.16C129.16 36.2657 129.018 35.8825 128.768 35.5353C128.519 35.2001 128.187 34.9247 127.759 34.7331C127.332 34.5416 126.845 34.4458 126.311 34.4458C125.777 34.4458 125.278 34.5416 124.839 34.7331C124.4 34.9247 124.055 35.2121 123.806 35.5712C123.557 35.9304 123.426 36.3495 123.426 36.8164C123.426 37.3672 123.604 37.8221 123.972 38.1813C124.34 38.5405 124.875 38.8159 125.563 39.0194L126.596 39.2948C126.94 39.3906 127.225 39.4983 127.462 39.6061C127.7 39.7138 127.89 39.8575 128.032 40.0371C128.175 40.2167 128.246 40.4322 128.246 40.6956C128.246 40.9949 128.163 41.2583 127.985 41.4978C127.807 41.7372 127.569 41.9048 127.261 42.0365L127.273 41.9887Z" fill="white"/>
<path d="M133.73 42.9823V35.4515H136.354V34.5176H130.027V35.4515H132.674V42.9823H133.73Z" fill="white"/>
<path d="M141.198 39.1989H144.83V38.277H141.198V35.4515H145.21V34.5176H140.153V42.9823H141.198V39.1989Z" fill="white"/>
<path d="M151.787 34.9248C151.229 34.5656 150.588 34.3979 149.876 34.3979C149.163 34.3979 148.522 34.5775 147.952 34.9248C147.395 35.2839 146.955 35.7868 146.635 36.4453C146.314 37.1038 146.16 37.8701 146.16 38.7441C146.16 39.6181 146.314 40.3843 146.635 41.0428C146.955 41.7013 147.395 42.2042 147.952 42.5634C148.51 42.9226 149.151 43.0902 149.876 43.0902C150.6 43.0902 151.229 42.9106 151.787 42.5634C152.345 42.2162 152.784 41.7013 153.105 41.0428C153.425 40.3843 153.579 39.6181 153.579 38.7441C153.579 37.8701 153.425 37.1038 153.105 36.4453C152.784 35.7868 152.345 35.2839 151.787 34.9248ZM152.214 40.5639C151.977 41.0668 151.656 41.4499 151.253 41.7133C150.849 41.9767 150.386 42.1084 149.876 42.1084C149.365 42.1084 148.902 41.9767 148.487 41.7133C148.083 41.4499 147.763 41.0668 147.525 40.5639C147.288 40.0611 147.169 39.4505 147.169 38.7441C147.169 38.0377 147.288 37.4271 147.525 36.9242C147.763 36.4214 148.083 36.0382 148.487 35.7748C148.89 35.5114 149.353 35.3797 149.876 35.3797C150.398 35.3797 150.849 35.5114 151.253 35.7748C151.656 36.0382 151.977 36.4214 152.214 36.9242C152.452 37.4271 152.57 38.0377 152.57 38.7441C152.57 39.4505 152.452 40.0491 152.214 40.5639Z" fill="white"/>
<path d="M155.859 39.6896H157.675C157.746 39.6896 157.806 39.6776 157.865 39.6656L159.634 42.9701H160.857L158.957 39.4621C159.064 39.4262 159.183 39.4022 159.278 39.3544C159.705 39.1388 160.026 38.8395 160.227 38.4564C160.429 38.0733 160.536 37.6303 160.536 37.1154C160.536 36.6006 160.429 36.1456 160.227 35.7505C160.026 35.3554 159.705 35.0561 159.278 34.8286C158.85 34.6131 158.316 34.5054 157.687 34.5054H154.838V42.9701H155.883V39.6896H155.859ZM157.628 35.4512C158.067 35.4512 158.423 35.5231 158.708 35.6548C158.993 35.7865 159.195 35.978 159.313 36.2295C159.444 36.4809 159.503 36.7802 159.503 37.1274C159.503 37.4746 159.432 37.762 159.313 38.0014C159.183 38.2409 158.993 38.4205 158.708 38.5522C158.435 38.6839 158.079 38.7437 157.64 38.7437H155.871V35.4632H157.628V35.4512Z" fill="white"/>
<path d="M164.454 34.5176V42.9823H169.392V42.0485H165.498V34.5176H164.454Z" fill="white"/>
<path d="M171.541 34.5176H170.496V42.9823H171.541V34.5176Z" fill="white"/>
<path d="M178.165 35.4515V34.5176H173.108V42.9823H174.152V39.1989H177.785V38.277H174.152V35.4515H178.165Z" fill="white"/>
<path d="M184.528 35.4515V34.5176H179.435V42.9823H184.587V42.0485H180.48V39.1989H184.255V38.277H180.48V35.4515H184.528Z" fill="white"/>
</g>
<defs>
<clipPath id="clip0_50_1470">
<rect width="186" height="44" fill="white"/>
</clipPath>
</defs>
</svg>
