<svg width="22" height="22" viewBox="0 0 22 22" fill="none" xmlns="http://www.w3.org/2000/svg">
<path d="M11 22C9.49667 22 8.07583 21.7112 6.7375 21.1337C5.39917 20.5562 4.23042 19.7679 3.23125 18.7687C2.23208 17.7696 1.44375 16.6008 0.86625 15.2625C0.28875 13.9242 0 12.5033 0 11C0 9.47833 0.28875 8.05292 0.86625 6.72375C1.44375 5.39458 2.23208 4.23042 3.23125 3.23125C4.23042 2.23208 5.39917 1.44375 6.7375 0.86625C8.07583 0.28875 9.49667 0 11 0C12.5217 0 13.9471 0.28875 15.2762 0.86625C16.6054 1.44375 17.7696 2.23208 18.7687 3.23125C19.7679 4.23042 20.5562 5.39458 21.1337 6.72375C21.7112 8.05292 22 9.47833 22 11C22 12.5033 21.7112 13.9242 21.1337 15.2625C20.5562 16.6008 19.7679 17.7696 18.7687 18.7687C17.7696 19.7679 16.6054 20.5562 15.2762 21.1337C13.9471 21.7112 12.5217 22 11 22ZM11 19.745C11.4767 19.085 11.8892 18.3975 12.2375 17.6825C12.5858 16.9675 12.87 16.2067 13.09 15.4H8.91C9.13 16.2067 9.41417 16.9675 9.7625 17.6825C10.1108 18.3975 10.5233 19.085 11 19.745ZM8.14 19.305C7.81 18.7 7.52125 18.0721 7.27375 17.4212C7.02625 16.7704 6.82 16.0967 6.655 15.4H3.41C3.94167 16.3167 4.60625 17.1142 5.40375 17.7925C6.20125 18.4708 7.11333 18.975 8.14 19.305ZM13.86 19.305C14.8867 18.975 15.7987 18.4708 16.5962 17.7925C17.3937 17.1142 18.0583 16.3167 18.59 15.4H15.345C15.18 16.0967 14.9737 16.7704 14.7262 17.4212C14.4787 18.0721 14.19 18.7 13.86 19.305ZM2.475 13.2H6.215C6.16 12.8333 6.11875 12.4712 6.09125 12.1137C6.06375 11.7562 6.05 11.385 6.05 11C6.05 10.615 6.06375 10.2437 6.09125 9.88625C6.11875 9.52875 6.16 9.16667 6.215 8.8H2.475C2.38333 9.16667 2.31458 9.52875 2.26875 9.88625C2.22292 10.2437 2.2 10.615 2.2 11C2.2 11.385 2.22292 11.7562 2.26875 12.1137C2.31458 12.4712 2.38333 12.8333 2.475 13.2ZM8.415 13.2H13.585C13.64 12.8333 13.6812 12.4712 13.7087 12.1137C13.7362 11.7562 13.75 11.385 13.75 11C13.75 10.615 13.7362 10.2437 13.7087 9.88625C13.6812 9.52875 13.64 9.16667 13.585 8.8H8.415C8.36 9.16667 8.31875 9.52875 8.29125 9.88625C8.26375 10.2437 8.25 10.615 8.25 11C8.25 11.385 8.26375 11.7562 8.29125 12.1137C8.31875 12.4712 8.36 12.8333 8.415 13.2ZM15.785 13.2H19.525C19.6167 12.8333 19.6854 12.4712 19.7312 12.1137C19.7771 11.7562 19.8 11.385 19.8 11C19.8 10.615 19.7771 10.2437 19.7312 9.88625C19.6854 9.52875 19.6167 9.16667 19.525 8.8H15.785C15.84 9.16667 15.8812 9.52875 15.9087 9.88625C15.9362 10.2437 15.95 10.615 15.95 11C15.95 11.385 15.9362 11.7562 15.9087 12.1137C15.8812 12.4712 15.84 12.8333 15.785 13.2ZM15.345 6.6H18.59C18.0583 5.68333 17.3937 4.88583 16.5962 4.2075C15.7987 3.52917 14.8867 3.025 13.86 2.695C14.19 3.3 14.4787 3.92792 14.7262 4.57875C14.9737 5.22958 15.18 5.90333 15.345 6.6ZM8.91 6.6H13.09C12.87 5.79333 12.5858 5.0325 12.2375 4.3175C11.8892 3.6025 11.4767 2.915 11 2.255C10.5233 2.915 10.1108 3.6025 9.7625 4.3175C9.41417 5.0325 9.13 5.79333 8.91 6.6ZM3.41 6.6H6.655C6.82 5.90333 7.02625 5.22958 7.27375 4.57875C7.52125 3.92792 7.81 3.3 8.14 2.695C7.11333 3.025 6.20125 3.52917 5.40375 4.2075C4.60625 4.88583 3.94167 5.68333 3.41 6.6Z" fill="white"/>
</svg>
