<svg width="22" height="22" viewBox="0 0 22 22" fill="none" xmlns="http://www.w3.org/2000/svg">
<path d="M5.36242 15.6747C6.14159 15.0788 7.01242 14.609 7.97492 14.2653C8.93742 13.9215 9.94575 13.7497 10.9999 13.7497C12.0541 13.7497 13.0624 13.9215 14.0249 14.2653C14.9874 14.609 15.8583 15.0788 16.6374 15.6747C17.1721 15.0483 17.5885 14.3379 17.8864 13.5434C18.1843 12.749 18.3333 11.9011 18.3333 10.9997C18.3333 8.96773 17.619 7.23752 16.1905 5.80905C14.7621 4.38058 13.0319 3.66634 10.9999 3.66634C8.96797 3.66634 7.23777 4.38058 5.80929 5.80905C4.38082 7.23752 3.66659 8.96773 3.66659 10.9997C3.66659 11.9011 3.81554 12.749 4.11346 13.5434C4.41138 14.3379 4.8277 15.0483 5.36242 15.6747ZM10.9999 11.9163C10.0985 11.9163 9.33846 11.607 8.71971 10.9882C8.10096 10.3695 7.79159 9.6094 7.79159 8.70801C7.79159 7.80662 8.10096 7.04655 8.71971 6.4278C9.33846 5.80905 10.0985 5.49967 10.9999 5.49967C11.9013 5.49967 12.6614 5.80905 13.2801 6.4278C13.8989 7.04655 14.2083 7.80662 14.2083 8.70801C14.2083 9.6094 13.8989 10.3695 13.2801 10.9882C12.6614 11.607 11.9013 11.9163 10.9999 11.9163ZM10.9999 20.1663C9.73186 20.1663 8.5402 19.9257 7.42492 19.4445C6.30964 18.9632 5.3395 18.3101 4.5145 17.4851C3.6895 16.6601 3.03638 15.69 2.55513 14.5747C2.07388 13.4594 1.83325 12.2677 1.83325 10.9997C1.83325 9.73162 2.07388 8.53995 2.55513 7.42467C3.03638 6.3094 3.6895 5.33926 4.5145 4.51426C5.3395 3.68926 6.30964 3.03613 7.42492 2.55488C8.5402 2.07363 9.73186 1.83301 10.9999 1.83301C12.268 1.83301 13.4596 2.07363 14.5749 2.55488C15.6902 3.03613 16.6603 3.68926 17.4853 4.51426C18.3103 5.33926 18.9635 6.3094 19.4447 7.42467C19.926 8.53995 20.1666 9.73162 20.1666 10.9997C20.1666 12.2677 19.926 13.4594 19.4447 14.5747C18.9635 15.69 18.3103 16.6601 17.4853 17.4851C16.6603 18.3101 15.6902 18.9632 14.5749 19.4445C13.4596 19.9257 12.268 20.1663 10.9999 20.1663ZM10.9999 18.333C11.8096 18.333 12.5735 18.2146 13.2916 17.9778C14.0096 17.741 14.6666 17.4011 15.2624 16.958C14.6666 16.515 14.0096 16.175 13.2916 15.9382C12.5735 15.7014 11.8096 15.583 10.9999 15.583C10.1902 15.583 9.42631 15.7014 8.70825 15.9382C7.9902 16.175 7.33325 16.515 6.73742 16.958C7.33325 17.4011 7.9902 17.741 8.70825 17.9778C9.42631 18.2146 10.1902 18.333 10.9999 18.333ZM10.9999 10.083C11.3971 10.083 11.7256 9.95315 11.9853 9.69342C12.2451 9.4337 12.3749 9.10523 12.3749 8.70801C12.3749 8.31079 12.2451 7.98231 11.9853 7.72259C11.7256 7.46287 11.3971 7.33301 10.9999 7.33301C10.6027 7.33301 10.2742 7.46287 10.0145 7.72259C9.75478 7.98231 9.62492 8.31079 9.62492 8.70801C9.62492 9.10523 9.75478 9.4337 10.0145 9.69342C10.2742 9.95315 10.6027 10.083 10.9999 10.083Z" fill="white"/>
</svg>
