<svg width="160" height="53" viewBox="0 0 160 53" fill="none" xmlns="http://www.w3.org/2000/svg">
<path d="M46.8041 40.3C45.7108 39.9099 45.5037 39.6498 45.5037 39.2024C45.5037 38.755 45.8182 38.3993 46.5663 38.3993C47.1149 38.3993 47.4793 38.5791 47.8782 38.9079L48.2695 38.4299C47.8092 38.0628 47.3412 37.8486 46.6046 37.8486C45.5842 37.8486 44.8937 38.3687 44.8937 39.2407C44.8937 40.0284 45.2927 40.4109 46.4742 40.8315C47.4754 41.191 47.7785 41.4778 47.7785 41.9826C47.7785 42.5601 47.3258 42.9196 46.6008 42.9196C46.0369 42.9196 45.5612 42.6595 45.1469 42.2656L44.7441 42.7169C45.1738 43.1528 45.8374 43.4741 46.5816 43.4741C47.721 43.4741 48.3923 42.8087 48.3923 41.9559C48.3923 41.1031 48.0202 40.7397 46.808 40.3038L46.8041 40.3Z" fill="#004289"/>
<path d="M50.8705 39.2137C50.3373 39.2137 49.8539 39.3437 49.4933 39.5388L49.7158 40.013C50.0496 39.8179 50.4025 39.6994 50.8321 39.6994C51.4306 39.6994 51.7221 39.9938 51.7221 40.6057V41.0876C51.4804 40.9537 51.1083 40.8505 50.6979 40.8505C49.8885 40.8505 49.1289 41.2405 49.1289 42.1584C49.1289 43.145 49.8002 43.4662 50.437 43.4662C51.0278 43.4662 51.4306 43.1909 51.7221 42.8811V43.3821H52.3052V40.5292C52.3052 39.5808 51.7528 39.2061 50.8705 39.2061V39.2137ZM51.7221 42.384C51.4728 42.7243 51.0738 42.9959 50.5444 42.9959C50.0419 42.9959 49.7043 42.732 49.7043 42.1239C49.7043 41.6115 50.0649 41.3209 50.6672 41.3209C51.1659 41.3209 51.4536 41.4126 51.7221 41.558V42.3878V42.384Z" fill="#004289"/>
<path d="M58.1896 40.9921V43.3861H58.7727V40.8965C58.7727 39.7034 58.251 39.2139 57.4147 39.2139C56.7472 39.2139 56.4135 39.5236 56.1718 39.9137C55.9762 39.5236 55.6271 39.2139 55.0478 39.2139C54.5645 39.2139 54.2192 39.4471 54.0082 39.799V39.3018H53.4175V43.3899H54.0082V40.996C54.0082 40.0896 54.3573 39.7187 54.9212 39.7187C55.4851 39.7187 55.8035 40.059 55.8035 40.996V43.3899H56.3905V40.996C56.3905 40.0896 56.7472 39.7187 57.3035 39.7187C57.8942 39.7187 58.1858 40.059 58.1858 40.996L58.1896 40.9921Z" fill="#004289"/>
<path d="M61.1244 41.0074C60.43 40.6938 60.2229 40.5599 60.2229 40.2119C60.2229 39.9136 60.4684 39.7071 60.9019 39.7071C61.3354 39.7071 61.6039 39.8218 61.9223 40.0742L62.2484 39.6421C61.9376 39.3859 61.5003 39.21 60.9402 39.21C60.1922 39.21 59.659 39.6306 59.659 40.2502C59.659 40.9041 60.0004 41.1527 60.8252 41.5045C61.5502 41.8143 61.7919 42.0016 61.7919 42.3382C61.7919 42.7359 61.5272 42.9692 60.9633 42.9692C60.5566 42.9692 60.173 42.8047 59.847 42.5179L59.5017 42.9424C59.893 43.256 60.384 43.4663 60.9479 43.4663C61.6576 43.4663 62.3519 43.1183 62.3519 42.3114C62.3519 41.581 61.8993 41.3554 61.1205 41.0035L61.1244 41.0074Z" fill="#004289"/>
<path d="M65.7736 41.688C65.7736 42.5829 65.3248 42.9615 64.7609 42.9615C64.1011 42.9615 63.7904 42.5676 63.7904 41.688V39.2979H63.2073V41.7874C63.2073 42.9615 63.7789 43.4701 64.642 43.4701C65.1598 43.4701 65.5396 43.2292 65.7736 42.885V43.386H66.3606V39.2979H65.7736V41.688Z" fill="#004289"/>
<path d="M70.5035 43.3861V40.8965C70.5035 39.7187 69.932 39.2139 69.065 39.2139C68.551 39.2139 68.1674 39.4548 67.9372 39.799V39.3018H67.3464V43.3899H67.9372V40.996C67.9372 40.1011 68.3783 39.7187 68.9461 39.7187C69.6021 39.7187 69.9166 40.1164 69.9166 40.996V43.3899H70.5035V43.3861Z" fill="#004289"/>
<path d="M72.3486 44.4415L72.5366 44.8851C74.0595 44.8392 74.6119 44.2465 74.6119 43.0151V39.2941H74.025V39.753C73.7373 39.4241 73.3844 39.21 72.8703 39.21C72.0111 39.21 71.3206 39.9557 71.3206 41.4051C71.3206 42.8545 71.9727 43.4663 72.7898 43.4663C73.346 43.4663 73.7373 43.191 74.025 42.8812V43.0916C74.025 44.0438 73.7143 44.4033 72.3448 44.4377L72.3486 44.4415ZM72.9394 42.9615C72.2911 42.9615 71.8998 42.4261 71.8998 41.3974C71.8998 40.2999 72.2336 39.7148 72.9164 39.7148C73.4036 39.7148 73.7987 39.9863 74.025 40.3266V42.3726C73.7373 42.7321 73.3767 42.9615 72.9394 42.9615Z" fill="#004289"/>
<path d="M81.0798 40.6211C81.0798 38.751 80.0211 37.9326 78.5863 37.9326H77.1401V43.386H78.4789C79.9405 43.386 81.0798 42.5982 81.0798 40.6211ZM77.7501 38.4833H78.5403C79.7986 38.4833 80.4699 39.2481 80.4699 40.6402C80.4699 42.2081 79.7333 42.8315 78.5557 42.8315H77.7501V38.4833Z" fill="#004289"/>
<path d="M82.6409 39.8029V39.2981H82.054V43.3862H82.6409V40.9846C82.6409 40.2044 82.9631 39.7493 83.5347 39.7493C83.8071 39.7493 83.9835 39.8105 84.1485 39.9061L84.2942 39.3172C84.1561 39.256 83.9605 39.2178 83.6536 39.2178C83.2125 39.2178 82.825 39.4816 82.6409 39.8067V39.8029Z" fill="#004289"/>
<path d="M87.8005 42.9961L87.5243 42.5754C87.1484 42.824 86.8684 42.9655 86.3888 42.9655C85.7214 42.9655 85.3032 42.411 85.2495 41.5429H87.9808C88 41.4473 88.0077 41.3632 88.0077 41.2255C88.0077 40.0591 87.4246 39.2178 86.3543 39.2178C85.38 39.2178 84.6626 40.0247 84.6626 41.3211C84.6626 42.9311 85.5756 43.4741 86.3275 43.4741C86.9451 43.4741 87.3057 43.3097 87.8005 42.9999V42.9961ZM86.3543 39.7187C87.0717 39.7187 87.4169 40.2733 87.463 41.0649H85.2495C85.3186 40.1509 85.7444 39.7187 86.3543 39.7187Z" fill="#004289"/>
<path d="M89.9642 43.4702C90.5511 43.4702 90.9539 43.1948 91.2416 42.885V43.386H91.8285V40.5331C91.8285 39.5847 91.2761 39.21 90.3938 39.21C89.8606 39.21 89.3772 39.34 89.0166 39.535L89.2353 40.0092C89.5729 39.8142 89.922 39.6956 90.3516 39.6956C90.9539 39.6956 91.2416 39.9901 91.2416 40.602V41.0838C90.9999 40.95 90.6316 40.8467 90.2212 40.8467C89.4079 40.8467 88.6445 41.2368 88.6445 42.1546C88.6445 43.1413 89.3197 43.4625 89.9603 43.4625L89.9642 43.4702ZM90.1905 41.3171C90.6892 41.3171 90.9807 41.4089 91.2454 41.5542V42.3841C90.9961 42.7244 90.5971 42.9959 90.0677 42.9959C89.569 42.9959 89.2276 42.7321 89.2276 42.124C89.2276 41.6116 89.592 41.3209 90.1905 41.3209V41.3171Z" fill="#004289"/>
<path d="M97.7131 40.9921V43.3861H98.3V40.8965C98.3 39.7034 97.7783 39.2139 96.942 39.2139C96.2784 39.2139 95.9408 39.5236 95.7029 39.9137C95.5073 39.5236 95.1582 39.2139 94.579 39.2139C94.0918 39.2139 93.7504 39.4471 93.5394 39.799V39.3018H92.9563V43.3899H93.5394V40.996C93.5394 40.0896 93.8923 39.7187 94.4562 39.7187C95.0201 39.7187 95.3423 40.059 95.3423 40.996V43.3899H95.9254V40.996C95.9254 40.0896 96.2822 39.7187 96.8423 39.7187C97.433 39.7187 97.7246 40.059 97.7246 40.996L97.7131 40.9921Z" fill="#004289"/>
<path d="M46.8041 48.4104C45.707 48.0203 45.5075 47.7641 45.5075 47.3128C45.5075 46.8616 45.8221 46.5136 46.5701 46.5136C47.1187 46.5136 47.487 46.6895 47.8821 47.0184L48.2734 46.5442C47.813 46.1809 47.3412 45.9629 46.6085 45.9629C45.5842 45.9629 44.8976 46.4753 44.8976 47.3549C44.8976 48.1427 45.2965 48.5213 46.4781 48.942C47.4793 49.3053 47.7823 49.5883 47.7823 50.0969C47.7823 50.6705 47.3297 51.03 46.6008 51.03C46.0369 51.03 45.5612 50.7699 45.1469 50.376L44.7441 50.8273C45.1738 51.2633 45.8374 51.5807 46.5816 51.5807C47.721 51.5807 48.3884 50.9191 48.3884 50.0625C48.3884 49.2058 48.0163 48.8464 46.808 48.4104H46.8041Z" fill="#004289"/>
<path d="M50.878 47.8299C51.2923 47.8299 51.5647 47.9752 51.8601 48.2429L52.213 47.807C51.8908 47.524 51.465 47.3213 50.9164 47.3213C50.0571 47.3213 49.1479 47.9599 49.1479 49.4705C49.1479 50.8969 49.9727 51.5777 50.8742 51.5777C51.4496 51.5777 51.8486 51.3597 52.1938 51.0078L51.8409 50.6369C51.5609 50.9084 51.2962 51.069 50.8972 51.069C50.1722 51.069 49.7387 50.4227 49.7387 49.417C49.7387 48.4112 50.2336 47.8223 50.8742 47.8223L50.878 47.8299Z" fill="#004289"/>
<path d="M54.7181 47.3249C54.204 47.3249 53.8166 47.5658 53.5826 47.91V45.9902H52.9995V51.5048H53.5826V49.1108C53.5826 48.2159 54.0314 47.8335 54.5992 47.8335C55.259 47.8335 55.5697 48.2274 55.5697 49.1108V51.5048H56.1566V49.0075C56.1566 47.8335 55.585 47.3249 54.7181 47.3249Z" fill="#004289"/>
<path d="M58.7727 47.3242C57.7753 47.3242 56.9812 48.0699 56.9812 49.4581C56.9812 50.8463 57.7446 51.5844 58.742 51.5844C59.7394 51.5844 60.5411 50.8157 60.5411 49.4275C60.5411 48.0393 59.7701 47.3242 58.7727 47.3242ZM58.7612 51.0758C58.0476 51.0758 57.5681 50.5174 57.5681 49.4428C57.5681 48.3682 58.0476 47.8328 58.7612 47.8328C59.4747 47.8328 59.9542 48.3682 59.9542 49.4428C59.9542 50.5174 59.4708 51.0758 58.7612 51.0758Z" fill="#004289"/>
<path d="M62.0105 45.9863H61.4236V51.5009H62.0105V45.9863Z" fill="#004289"/>
<path d="M64.6919 47.3242C64.1586 47.3242 63.6753 47.4581 63.3185 47.6531L63.5372 48.1311C63.8748 47.9361 64.2277 47.8175 64.6573 47.8175C65.2558 47.8175 65.5473 48.1158 65.5473 48.7201V49.2057C65.3056 49.0719 64.9374 48.9686 64.5269 48.9686C63.7137 48.9686 62.9541 49.3587 62.9541 50.2803C62.9541 51.267 63.6254 51.5844 64.266 51.5844C64.853 51.5844 65.2558 51.3129 65.5473 51.0031V51.5041H66.1342V48.6551C66.1342 47.699 65.578 47.328 64.6957 47.328L64.6919 47.3242ZM65.5435 50.4945C65.298 50.831 64.8913 51.1064 64.3658 51.1064C63.8671 51.1064 63.5295 50.8425 63.5295 50.2345C63.5295 49.7182 63.8901 49.4352 64.4924 49.4352C64.9911 49.4352 65.2788 49.5193 65.5435 49.6685V50.4945Z" fill="#004289"/>
<path d="M67.8337 47.9178V47.4053H67.2468V51.4973H67.8337V49.0957C67.8337 48.3193 68.1483 47.8566 68.7237 47.8566C68.9999 47.8566 69.1764 47.9178 69.3413 48.0134L69.4909 47.4206C69.349 47.3594 69.1572 47.3174 68.8503 47.3174C68.413 47.3174 68.0179 47.5813 67.8376 47.914L67.8337 47.9178Z" fill="#004289"/>
<path d="M71.7388 49.1216C71.0445 48.808 70.8335 48.6665 70.8335 48.3262C70.8335 48.0317 71.0828 47.8214 71.5125 47.8214C71.9421 47.8214 72.2183 47.9399 72.5367 48.1885L72.8628 47.7602C72.5482 47.504 72.1148 47.3242 71.5508 47.3242C70.8066 47.3242 70.2657 47.7449 70.2657 48.3682C70.2657 48.9916 70.611 49.2708 71.4319 49.6188C72.1569 49.9285 72.3986 50.1197 72.3986 50.4524C72.3986 50.854 72.1339 51.0834 71.5739 51.0834C71.1634 51.0834 70.7836 50.919 70.4537 50.6322L70.1123 51.0605C70.5036 51.3741 70.9946 51.5806 71.5585 51.5806C72.2682 51.5806 72.9625 51.2288 72.9625 50.4295C72.9625 49.6952 72.5099 49.4734 71.735 49.1216H71.7388Z" fill="#004289"/>
<path d="M75.6401 47.3249C75.1184 47.3249 74.7387 47.5658 74.5046 47.91V45.9902H73.9177V51.5048H74.5046V49.1108C74.5046 48.2159 74.9496 47.8335 75.5212 47.8335C76.1772 47.8335 76.4879 48.2274 76.4879 49.1108V51.5048H77.0748V49.0075C77.0748 47.8335 76.5071 47.3249 75.6401 47.3249Z" fill="#004289"/>
<path d="M78.8165 47.4053H78.2334V51.4972H78.8165V47.4053Z" fill="#004289"/>
<path d="M78.5364 45.8447C78.2986 45.8447 78.1106 46.0321 78.1106 46.2692C78.1106 46.5063 78.2986 46.6822 78.5364 46.6822C78.7551 46.6822 78.943 46.491 78.943 46.2692C78.943 46.0321 78.7551 45.8447 78.5364 45.8447Z" fill="#004289"/>
<path d="M81.82 47.3242C81.2676 47.3242 80.8763 47.5996 80.5847 47.9093V47.4084H79.9978V53.0032H80.5847V51.0414C80.8724 51.3664 81.2254 51.5844 81.7432 51.5844C82.5987 51.5844 83.2892 50.8349 83.2892 49.3893C83.2892 47.9437 82.637 47.3242 81.82 47.3242ZM81.6934 51.0758C81.21 51.0758 80.8111 50.8043 80.5847 50.4601V48.4179C80.8724 48.0623 81.233 47.829 81.6703 47.829C82.3225 47.829 82.7138 48.3644 82.7138 49.3931C82.7138 50.4907 82.3762 51.072 81.6972 51.072L81.6934 51.0758Z" fill="#004289"/>
<path d="M86.3927 46.5985H88.9935V46.0479H85.7827V51.5012H86.3927V48.9581H87.8926V48.4074H86.3927V46.5985Z" fill="#004289"/>
<path d="M90.7736 47.3242C89.7762 47.3242 88.9783 48.0699 88.9783 49.4581C88.9783 50.8463 89.7455 51.5844 90.7429 51.5844C91.7403 51.5844 92.542 50.8157 92.542 49.4275C92.542 48.0393 91.7786 47.3242 90.7736 47.3242ZM90.7582 51.0758C90.0447 51.0758 89.5729 50.5174 89.5729 49.4428C89.5729 48.3682 90.0485 47.8328 90.7582 47.8328C91.4679 47.8328 91.9551 48.3682 91.9551 49.4428C91.9551 50.5174 91.4717 51.0758 90.7582 51.0758Z" fill="#004289"/>
<path d="M95.7758 49.7992C95.7758 50.6941 95.3347 51.0765 94.7631 51.0765C94.1071 51.0765 93.7926 50.6826 93.7926 49.7992V47.4053H93.2095V49.8987C93.2095 51.0727 93.7811 51.5813 94.648 51.5813C95.1582 51.5813 95.5418 51.3442 95.7758 51V51.501H96.3666V47.4091H95.7758V49.8031V49.7992Z" fill="#004289"/>
<path d="M99.0672 47.3251C98.5532 47.3251 98.1696 47.566 97.9356 47.9102V47.4092H97.3486V51.5012H97.9356V49.1072C97.9356 48.2123 98.3805 47.8299 98.9521 47.8299C99.6081 47.8299 99.9188 48.2238 99.9188 49.1072V51.5012H100.506V49.004C100.506 47.8299 99.9342 47.3213 99.0672 47.3213V47.3251Z" fill="#004289"/>
<path d="M104.031 47.8717C103.74 47.5428 103.39 47.321 102.873 47.321C102.013 47.321 101.327 48.0667 101.327 49.5199C101.327 50.9731 101.975 51.5812 102.796 51.5812C103.352 51.5812 103.74 51.3097 104.027 50.9999V51.5009H104.614V45.9863H104.027V47.8717H104.031ZM104.031 50.4836C103.74 50.8393 103.383 51.0726 102.945 51.0726C102.297 51.0726 101.906 50.5372 101.906 49.5084C101.906 48.4071 102.24 47.8258 102.922 47.8258C103.406 47.8258 103.801 48.0973 104.031 48.4415V50.4798V50.4836Z" fill="#004289"/>
<path d="M107.1 47.3242C106.571 47.3242 106.087 47.4581 105.727 47.6531L105.941 48.1311C106.279 47.9361 106.632 47.8175 107.062 47.8175C107.66 47.8175 107.948 48.1158 107.948 48.7201V49.2057C107.706 49.0719 107.338 48.9686 106.923 48.9686C106.114 48.9686 105.354 49.3587 105.354 50.2803C105.354 51.267 106.03 51.5844 106.67 51.5844C107.257 51.5844 107.66 51.3129 107.948 51.0031V51.5041H108.535V48.6551C108.535 47.699 107.982 47.328 107.096 47.328L107.1 47.3242ZM107.948 50.4945C107.698 50.831 107.303 51.1064 106.766 51.1064C106.271 51.1064 105.938 50.8425 105.938 50.2345C105.938 49.7182 106.294 49.4352 106.897 49.4352C107.395 49.4352 107.687 49.5193 107.948 49.6685V50.4945Z" fill="#004289"/>
<path d="M110.407 45.9863H109.816V47.4051H109.31V47.8984H109.816V50.6557C109.816 51.3326 110.092 51.5774 110.602 51.5774C110.909 51.5774 111.128 51.5315 111.354 51.4397L111.396 50.9349C111.208 51.0114 111.055 51.0496 110.817 51.0496C110.506 51.0496 110.407 50.9234 110.407 50.5601V47.8984H111.423V47.4051H110.407V45.9863Z" fill="#004289"/>
<path d="M112.754 45.8447C112.513 45.8447 112.321 46.0321 112.321 46.2692C112.321 46.5063 112.513 46.6822 112.754 46.6822C112.973 46.6822 113.157 46.491 113.157 46.2692C113.157 46.0321 112.969 45.8447 112.754 45.8447Z" fill="#004289"/>
<path d="M113.034 47.4053H112.448V51.4972H113.034V47.4053Z" fill="#004289"/>
<path d="M115.712 47.3242C114.715 47.3242 113.917 48.0699 113.917 49.4581C113.917 50.8463 114.68 51.5844 115.681 51.5844C116.683 51.5844 117.477 50.8157 117.477 49.4275C117.477 48.0393 116.709 47.3242 115.712 47.3242ZM115.697 51.0758C114.987 51.0758 114.508 50.5174 114.508 49.4428C114.508 48.3682 114.987 47.8328 115.697 47.8328C116.406 47.8328 116.894 48.3682 116.894 49.4428C116.894 50.5174 116.41 51.0758 115.697 51.0758Z" fill="#004289"/>
<path d="M120.043 47.3251C119.529 47.3251 119.145 47.566 118.907 47.9102V47.4092H118.321V51.5012H118.907V49.1072C118.907 48.2123 119.352 47.8299 119.924 47.8299C120.58 47.8299 120.895 48.2238 120.895 49.1072V51.5012H121.478V49.004C121.478 47.8299 120.906 47.3213 120.043 47.3213V47.3251Z" fill="#004289"/>
<path d="M67.3116 27.1982C64.9562 27.2021 63.0151 29.0377 63.0151 31.3399C63.0151 33.6421 64.9562 35.4586 67.3116 35.4662C69.69 35.4586 71.6118 33.6191 71.6118 31.3399C71.6118 29.0606 69.69 27.2021 67.3116 27.1982ZM67.254 33.5771C66.0226 33.5771 65.0943 32.5751 65.0943 31.3399C65.0943 30.1047 66.0879 29.0836 67.3154 29.0836C68.543 29.0836 69.502 30.0855 69.502 31.3399C69.502 32.5942 68.4969 33.5771 67.2579 33.5771H67.254Z" fill="#004289"/>
<path d="M47.5979 24.3489C48.2539 24.9952 49.0058 25.5611 49.7461 25.9244L49.8229 25.9665L51.0926 24.4712L50.9699 24.4024C49.7653 23.7523 48.8216 22.9301 48.204 21.8937C47.5903 20.8726 47.2757 19.6871 47.2757 18.2683V16.9375H45.0047V18.1268C45.0047 19.6642 44.6556 20.8726 43.9997 21.9319C43.267 23.106 42.1813 24.0506 40.7927 24.9263L40.6699 25.0028L42.0471 26.4254L42.1238 26.3833C42.9447 25.9397 43.8155 25.2552 44.5712 24.4904C45.2272 23.8211 45.795 23.106 46.1402 22.4291C46.4739 23.0945 46.9841 23.7714 47.5979 24.3527V24.3489Z" fill="#004289"/>
<path d="M45.1389 34.4871H54.6448V28.0127H45.1389V34.4871ZM47.2756 29.8407H52.5081V32.6591H47.2756V29.8407Z" fill="#004289"/>
<path d="M76.8328 34.4871H87.5815V28.0127H76.8328V34.4871ZM78.9465 29.8407H85.4717V32.6591H78.9465V29.8407Z" fill="#004289"/>
<path d="M54.6833 16.5547H52.5696V27.2702H54.6833V22.5281H57.1576V20.6237H54.6833V16.5547Z" fill="#004289"/>
<path d="M98.5069 24.8955C99.2013 25.4959 99.9954 26.0007 100.743 26.3257L100.82 26.3601L101.963 24.819L101.841 24.7578C100.751 24.2033 99.7805 23.5149 99.0824 22.6736C98.3727 21.817 97.9507 20.7844 97.9507 19.5415V19.1782H101.096V17.335H92.5571V19.1782H95.6989V19.6219C95.6989 20.7538 95.323 21.8093 94.6977 22.7233C93.965 23.8209 92.8947 24.7043 91.8551 25.2779L91.717 25.3505L93.1211 26.7999L93.1978 26.7617C93.9535 26.3334 94.7898 25.6871 95.5033 24.9605C96.0749 24.3639 96.5889 23.7329 96.9035 23.1019C97.2832 23.7138 97.8663 24.3257 98.5108 24.8955H98.5069Z" fill="#004289"/>
<path d="M113.794 29.8827H121.477V34.4832H123.61V28.0547H113.794V29.8827Z" fill="#004289"/>
<path d="M119.095 22.5132C119.095 21.4997 118.639 20.5666 117.964 19.8553H120.073V18.0312H116.046V16.0234H113.755V18.0312H109.632V19.8553H111.787C111.128 20.5666 110.671 21.4921 110.671 22.5132C110.671 24.7733 112.539 26.6089 114.876 26.6166C117.212 26.6089 119.091 24.7733 119.095 22.5132ZM112.708 22.429C112.708 21.1785 113.767 20.1192 114.876 20.1192C115.984 20.1192 117.039 21.1823 117.043 22.429C117.043 23.6604 115.984 24.7236 114.876 24.7274C113.763 24.7236 112.712 23.6604 112.708 22.429Z" fill="#004289"/>
<path d="M123.61 16.5547H121.5V27.3084H123.61V23.205H126.092V21.3006H123.61V16.5547Z" fill="#004289"/>
<path d="M105.707 16.5547H103.597V27.3084H105.707V22.5281H108.185V20.6237H105.707V16.5547Z" fill="#004289"/>
<path d="M69.8934 19.7441H66.5713V21.6294H69.8934V27.6488H72.0071V16.5547H69.8934V19.7441Z" fill="#004289"/>
<path d="M64.5266 24.628C65.1864 25.2705 65.9574 25.8365 66.694 26.2189L66.7745 26.2648L68.0443 24.7695L67.9215 24.7007C66.717 24.0697 65.7925 23.2513 65.171 22.2302C64.5419 21.2168 64.2273 19.9854 64.2273 18.5666V16.9375H61.9525V18.4289C61.9525 19.9663 61.6073 21.1709 60.9667 22.2111C60.2378 23.4043 59.1292 24.3565 57.7405 25.2246L57.6216 25.3011L59.0064 26.7275L59.0755 26.6816C59.8926 26.2342 60.7442 25.5879 61.4999 24.8498C62.1827 24.1729 62.7504 23.4349 63.0957 22.7274C63.4218 23.3737 63.9205 24.0314 64.5266 24.6319V24.628Z" fill="#004289"/>
<path d="M101.177 27.1982C98.8214 27.2021 96.8803 29.0377 96.8765 31.3399C96.8803 33.6191 98.8175 35.4586 101.177 35.4662C103.551 35.4586 105.477 33.6191 105.477 31.3399C105.477 29.0606 103.551 27.2021 101.177 27.1982ZM101.115 33.5771C99.8878 33.5771 98.9518 32.5751 98.9518 31.3399C98.9518 30.1047 99.9415 29.0836 101.177 29.0836C102.412 29.0836 103.359 30.0855 103.363 31.3399C103.363 32.5713 102.354 33.5771 101.115 33.5771Z" fill="#004289"/>
<path d="M79.407 22.701H81.5207V17.2285H75.8164V19.0488H79.407V22.701Z" fill="#004289"/>
<path d="M85.7518 22.701H87.8693V17.2285H82.165V19.0488H85.7518V22.701Z" fill="#004289"/>
<path d="M139.63 21.4H137.854V16.853H135.855V34.0238H137.854V23.4651H139.63V34.4827H141.701V16.5547H139.63V21.4Z" fill="#004289"/>
<path d="M132.924 23.7747C132.449 22.7383 132.253 21.5796 132.253 20.157V19.4801H134.651V17.5488H127.684V19.4801H130.158V20.1952C130.158 21.5413 129.982 22.6427 129.556 23.6638C129.061 24.8378 128.229 25.8933 126.902 27.0253L126.81 27.1094L128.122 28.4058L128.202 28.3446C128.862 27.859 129.552 27.1553 130.128 26.4287C130.615 25.8168 131.025 25.182 131.282 24.6237C131.547 25.1667 131.961 25.79 132.445 26.3713C133.005 27.052 133.638 27.6983 134.244 28.0846L134.324 28.1381L135.429 26.8226L135.341 26.7423C134.152 25.7097 133.415 24.7881 132.932 23.7709L132.924 23.7747Z" fill="#004289"/>
<path d="M74.0479 25.2478H81.0641V27.29H83.3542V25.2478H90.4817V23.416H74.0479V25.2478Z" fill="#004289"/>
<path d="M153.735 24.6622H146.592V19.2433H152.032V17.335H144.452V26.5131H153.735V24.6622Z" fill="#004289"/>
<path d="M149.696 28.7695H147.559V34.4829H157.552V32.6014H149.696V28.7695Z" fill="#004289"/>
<path d="M157.502 21.5185V16.5508H155.392V29.7788H157.502V23.4229H159.999V21.5185H157.502Z" fill="#004289"/>
<path d="M44.8094 11.0214L39.3353 8.76131L44.8094 6.50119L43.8351 4.16459L38.3648 6.42471L40.6319 0.96753L38.2842 0L36.0209 5.45718L33.7538 0L31.4061 0.96753L33.6732 6.42471L28.203 4.16459L27.2324 6.50119L32.7027 8.76131L27.2324 11.0214L28.203 13.358L33.6732 11.0979L31.4061 16.5551L33.7538 17.5226L36.0209 12.0693L38.2842 17.5226L40.6319 16.5513L38.3648 11.0979L43.8351 13.358L44.8094 11.0214Z" fill="#009FE3"/>
<path d="M9.3907 26.2453H13.0312V16.5547H0.583008V19.8206H9.3907V26.2453Z" fill="#009FE3"/>
<path d="M23.5921 26.2453H27.2326V16.5547H14.7844V19.8206H23.5921V26.2453Z" fill="#009FE3"/>
<path d="M0 31.2591H23.592V36.2497H27.2325V27.9932H0V31.2591Z" fill="#009FE3"/>
<path d="M8.80762 51.5009H27.2324V37.9287H8.80762V51.5009ZM12.4481 41.1946H23.5958V48.235H12.4481V41.1946Z" fill="#009FE3"/>
</svg>
