<svg width="160" height="53" viewBox="0 0 160 53" fill="none" xmlns="http://www.w3.org/2000/svg">
<g clip-path="url(#clip0_66_4124)">
<path d="M46.8043 40.3C45.711 39.9099 45.5038 39.6498 45.5038 39.2024C45.5038 38.755 45.8184 38.3993 46.5664 38.3993C47.115 38.3993 47.4794 38.5791 47.8784 38.9079L48.2696 38.4299C47.8093 38.0628 47.3413 37.8486 46.6048 37.8486C45.5844 37.8486 44.8939 38.3687 44.8939 39.2407C44.8939 40.0284 45.2928 40.4109 46.4743 40.8315C47.4756 41.191 47.7786 41.4778 47.7786 41.9826C47.7786 42.5601 47.326 42.9196 46.6009 42.9196C46.037 42.9196 45.5614 42.6595 45.1471 42.2656L44.7443 42.7169C45.1739 43.1528 45.8376 43.4741 46.5818 43.4741C47.7211 43.4741 48.3924 42.8087 48.3924 41.9559C48.3924 41.1031 48.0203 40.7397 46.8081 40.3038L46.8043 40.3Z" fill="white"/>
<path d="M50.8705 39.2137C50.3373 39.2137 49.8539 39.3437 49.4933 39.5388L49.7158 40.013C50.0496 39.8179 50.4025 39.6994 50.8321 39.6994C51.4306 39.6994 51.7221 39.9938 51.7221 40.6057V41.0876C51.4804 40.9537 51.1083 40.8505 50.6979 40.8505C49.8885 40.8505 49.1289 41.2405 49.1289 42.1584C49.1289 43.145 49.8002 43.4662 50.437 43.4662C51.0278 43.4662 51.4306 43.1909 51.7221 42.8811V43.3821H52.3052V40.5292C52.3052 39.5808 51.7528 39.2061 50.8705 39.2061V39.2137ZM51.7221 42.384C51.4728 42.7243 51.0738 42.9959 50.5444 42.9959C50.0419 42.9959 49.7043 42.732 49.7043 42.1239C49.7043 41.6115 50.0649 41.3209 50.6672 41.3209C51.1659 41.3209 51.4536 41.4126 51.7221 41.558V42.3878V42.384Z" fill="white"/>
<path d="M58.1898 40.9921V43.3861H58.7729V40.8965C58.7729 39.7034 58.2512 39.2139 57.4149 39.2139C56.7475 39.2139 56.4137 39.5236 56.172 39.9137C55.9764 39.5236 55.6273 39.2139 55.0481 39.2139C54.5647 39.2139 54.2195 39.4471 54.0085 39.799V39.3018H53.4177V43.3899H54.0085V40.996C54.0085 40.0896 54.3576 39.7187 54.9215 39.7187C55.4854 39.7187 55.8038 40.059 55.8038 40.996V43.3899H56.3907V40.996C56.3907 40.0896 56.7475 39.7187 57.3037 39.7187C57.8945 39.7187 58.186 40.059 58.186 40.996L58.1898 40.9921Z" fill="white"/>
<path d="M61.1244 41.0074C60.43 40.6938 60.2229 40.5599 60.2229 40.2119C60.2229 39.9136 60.4684 39.7071 60.9019 39.7071C61.3354 39.7071 61.6039 39.8218 61.9223 40.0742L62.2484 39.6421C61.9376 39.3859 61.5003 39.21 60.9402 39.21C60.1922 39.21 59.659 39.6306 59.659 40.2502C59.659 40.9041 60.0004 41.1527 60.8252 41.5045C61.5502 41.8143 61.7919 42.0016 61.7919 42.3382C61.7919 42.7359 61.5272 42.9692 60.9633 42.9692C60.5566 42.9692 60.173 42.8047 59.847 42.5179L59.5017 42.9424C59.893 43.256 60.384 43.4663 60.9479 43.4663C61.6576 43.4663 62.3519 43.1183 62.3519 42.3114C62.3519 41.581 61.8993 41.3554 61.1205 41.0035L61.1244 41.0074Z" fill="white"/>
<path d="M65.7738 41.688C65.7738 42.5829 65.3249 42.9615 64.761 42.9615C64.1012 42.9615 63.7905 42.5676 63.7905 41.688V39.2979H63.2074V41.7874C63.2074 42.9615 63.779 43.4701 64.6421 43.4701C65.16 43.4701 65.5397 43.2292 65.7738 42.885V43.386H66.3607V39.2979H65.7738V41.688Z" fill="white"/>
<path d="M70.5037 43.3861V40.8965C70.5037 39.7187 69.9321 39.2139 69.0651 39.2139C68.5511 39.2139 68.1675 39.4548 67.9373 39.799V39.3018H67.3466V43.3899H67.9373V40.996C67.9373 40.1011 68.3785 39.7187 68.9462 39.7187C69.6022 39.7187 69.9167 40.1164 69.9167 40.996V43.3899H70.5037V43.3861Z" fill="white"/>
<path d="M72.3489 44.4415L72.5368 44.8851C74.0598 44.8392 74.6122 44.2465 74.6122 43.0151V39.2941H74.0253V39.753C73.7375 39.4241 73.3846 39.21 72.8706 39.21C72.0113 39.21 71.3208 39.9557 71.3208 41.4051C71.3208 42.8545 71.9729 43.4663 72.79 43.4663C73.3463 43.4663 73.7375 43.191 74.0253 42.8812V43.0916C74.0253 44.0438 73.7145 44.4033 72.345 44.4377L72.3489 44.4415ZM72.9396 42.9615C72.2913 42.9615 71.9001 42.4261 71.9001 41.3974C71.9001 40.2999 72.2338 39.7148 72.9166 39.7148C73.4038 39.7148 73.7989 39.9863 74.0253 40.3266V42.3726C73.7375 42.7321 73.377 42.9615 72.9396 42.9615Z" fill="white"/>
<path d="M81.0798 40.6211C81.0798 38.751 80.0211 37.9326 78.5863 37.9326H77.1401V43.386H78.4789C79.9405 43.386 81.0798 42.5982 81.0798 40.6211ZM77.7501 38.4833H78.5403C79.7986 38.4833 80.4699 39.2481 80.4699 40.6402C80.4699 42.2081 79.7333 42.8315 78.5557 42.8315H77.7501V38.4833Z" fill="white"/>
<path d="M82.6411 39.8029V39.2981H82.0542V43.3862H82.6411V40.9846C82.6411 40.2044 82.9634 39.7493 83.5349 39.7493C83.8073 39.7493 83.9838 39.8105 84.1487 39.9061L84.2945 39.3172C84.1564 39.256 83.9607 39.2178 83.6539 39.2178C83.2127 39.2178 82.8253 39.4816 82.6411 39.8067V39.8029Z" fill="white"/>
<path d="M87.8007 42.9961L87.5245 42.5754C87.1485 42.824 86.8685 42.9655 86.389 42.9655C85.7215 42.9655 85.3033 42.411 85.2496 41.5429H87.981C88.0001 41.4473 88.0078 41.3632 88.0078 41.2255C88.0078 40.0591 87.4247 39.2178 86.3544 39.2178C85.3801 39.2178 84.6627 40.0247 84.6627 41.3211C84.6627 42.9311 85.5757 43.4741 86.3276 43.4741C86.9452 43.4741 87.3058 43.3097 87.8007 42.9999V42.9961ZM86.3544 39.7187C87.0718 39.7187 87.417 40.2733 87.4631 41.0649H85.2496C85.3187 40.1509 85.7445 39.7187 86.3544 39.7187Z" fill="white"/>
<path d="M89.9643 43.4702C90.5512 43.4702 90.954 43.1948 91.2417 42.885V43.386H91.8286V40.5331C91.8286 39.5847 91.2762 39.21 90.3939 39.21C89.8607 39.21 89.3773 39.34 89.0168 39.535L89.2354 40.0092C89.573 39.8142 89.9221 39.6956 90.3517 39.6956C90.954 39.6956 91.2417 39.9901 91.2417 40.602V41.0838C91 40.95 90.6318 40.8467 90.2213 40.8467C89.408 40.8467 88.6447 41.2368 88.6447 42.1546C88.6447 43.1413 89.3198 43.4625 89.9604 43.4625L89.9643 43.4702ZM90.1906 41.3171C90.6893 41.3171 90.9808 41.4089 91.2455 41.5542V42.3841C90.9962 42.7244 90.5972 42.9959 90.0678 42.9959C89.5692 42.9959 89.2277 42.7321 89.2277 42.124C89.2277 41.6116 89.5922 41.3209 90.1906 41.3209V41.3171Z" fill="white"/>
<path d="M97.7132 40.9921V43.3861H98.3001V40.8965C98.3001 39.7034 97.7784 39.2139 96.9421 39.2139C96.2785 39.2139 95.9409 39.5236 95.7031 39.9137C95.5074 39.5236 95.1583 39.2139 94.5791 39.2139C94.0919 39.2139 93.7505 39.4471 93.5395 39.799V39.3018H92.9564V43.3899H93.5395V40.996C93.5395 40.0896 93.8924 39.7187 94.4563 39.7187C95.0202 39.7187 95.3425 40.059 95.3425 40.996V43.3899H95.9256V40.996C95.9256 40.0896 96.2823 39.7187 96.8424 39.7187C97.4331 39.7187 97.7247 40.059 97.7247 40.996L97.7132 40.9921Z" fill="white"/>
<path d="M46.8043 48.4104C45.7071 48.0203 45.5076 47.7641 45.5076 47.3128C45.5076 46.8616 45.8222 46.5136 46.5702 46.5136C47.1188 46.5136 47.4871 46.6895 47.8822 47.0184L48.2735 46.5442C47.8131 46.1809 47.3413 45.9629 46.6086 45.9629C45.5844 45.9629 44.8977 46.4753 44.8977 47.3549C44.8977 48.1427 45.2967 48.5213 46.4782 48.942C47.4794 49.3053 47.7825 49.5883 47.7825 50.0969C47.7825 50.6705 47.3298 51.03 46.6009 51.03C46.037 51.03 45.5614 50.7699 45.1471 50.376L44.7443 50.8273C45.1739 51.2633 45.8376 51.5807 46.5818 51.5807C47.7211 51.5807 48.3886 50.9191 48.3886 50.0625C48.3886 49.2058 48.0165 48.8464 46.8081 48.4104H46.8043Z" fill="white"/>
<path d="M50.8782 47.8299C51.2925 47.8299 51.5648 47.9752 51.8602 48.2429L52.2131 47.807C51.8909 47.524 51.4651 47.3213 50.9165 47.3213C50.0572 47.3213 49.1481 47.9599 49.1481 49.4705C49.1481 50.8969 49.9728 51.5777 50.8743 51.5777C51.4497 51.5777 51.8487 51.3597 52.1939 51.0078L51.841 50.6369C51.561 50.9084 51.2963 51.069 50.8973 51.069C50.1723 51.069 49.7388 50.4227 49.7388 49.417C49.7388 48.4112 50.2337 47.8223 50.8743 47.8223L50.8782 47.8299Z" fill="white"/>
<path d="M54.7181 47.3249C54.204 47.3249 53.8166 47.5658 53.5826 47.91V45.9902H52.9995V51.5048H53.5826V49.1108C53.5826 48.2159 54.0314 47.8335 54.5992 47.8335C55.259 47.8335 55.5697 48.2274 55.5697 49.1108V51.5048H56.1566V49.0075C56.1566 47.8335 55.585 47.3249 54.7181 47.3249Z" fill="white"/>
<path d="M58.7729 47.3242C57.7755 47.3242 56.9814 48.0699 56.9814 49.4581C56.9814 50.8463 57.7448 51.5844 58.7422 51.5844C59.7396 51.5844 60.5414 50.8157 60.5414 49.4275C60.5414 48.0393 59.7703 47.3242 58.7729 47.3242ZM58.7614 51.0758C58.0479 51.0758 57.5684 50.5174 57.5684 49.4428C57.5684 48.3682 58.0479 47.8328 58.7614 47.8328C59.4749 47.8328 59.9544 48.3682 59.9544 49.4428C59.9544 50.5174 59.4711 51.0758 58.7614 51.0758Z" fill="white"/>
<path d="M62.0105 45.9863H61.4236V51.5009H62.0105V45.9863Z" fill="white"/>
<path d="M64.692 47.3242C64.1588 47.3242 63.6754 47.4581 63.3187 47.6531L63.5373 48.1311C63.8749 47.9361 64.2278 47.8175 64.6575 47.8175C65.2559 47.8175 65.5474 48.1158 65.5474 48.7201V49.2057C65.3058 49.0719 64.9375 48.9686 64.527 48.9686C63.7138 48.9686 62.9542 49.3587 62.9542 50.2803C62.9542 51.267 63.6255 51.5844 64.2662 51.5844C64.8531 51.5844 65.2559 51.3129 65.5474 51.0031V51.5041H66.1344V48.6551C66.1344 47.699 65.5781 47.328 64.6958 47.328L64.692 47.3242ZM65.5436 50.4945C65.2981 50.831 64.8915 51.1064 64.3659 51.1064C63.8672 51.1064 63.5296 50.8425 63.5296 50.2345C63.5296 49.7182 63.8902 49.4352 64.4925 49.4352C64.9912 49.4352 65.2789 49.5193 65.5436 49.6685V50.4945Z" fill="white"/>
<path d="M67.8337 47.9178V47.4053H67.2468V51.4973H67.8337V49.0957C67.8337 48.3193 68.1483 47.8566 68.7237 47.8566C68.9999 47.8566 69.1764 47.9178 69.3413 48.0134L69.4909 47.4206C69.349 47.3594 69.1572 47.3174 68.8503 47.3174C68.413 47.3174 68.0179 47.5813 67.8376 47.914L67.8337 47.9178Z" fill="white"/>
<path d="M71.7389 49.1216C71.0446 48.808 70.8336 48.6665 70.8336 48.3262C70.8336 48.0317 71.083 47.8214 71.5126 47.8214C71.9422 47.8214 72.2184 47.9399 72.5368 48.1885L72.8629 47.7602C72.5484 47.504 72.1149 47.3242 71.551 47.3242C70.8068 47.3242 70.2659 47.7449 70.2659 48.3682C70.2659 48.9916 70.6111 49.2708 71.432 49.6188C72.1571 49.9285 72.3987 50.1197 72.3987 50.4524C72.3987 50.854 72.1341 51.0834 71.574 51.0834C71.1635 51.0834 70.7837 50.919 70.4538 50.6322L70.1124 51.0605C70.5037 51.3741 70.9947 51.5806 71.5586 51.5806C72.2683 51.5806 72.9626 51.2288 72.9626 50.4295C72.9626 49.6952 72.51 49.4734 71.7351 49.1216H71.7389Z" fill="white"/>
<path d="M75.6403 47.3249C75.1185 47.3249 74.7388 47.5658 74.5048 47.91V45.9902H73.9178V51.5048H74.5048V49.1108C74.5048 48.2159 74.9498 47.8335 75.5213 47.8335C76.1773 47.8335 76.488 48.2274 76.488 49.1108V51.5048H77.075V49.0075C77.075 47.8335 76.5072 47.3249 75.6403 47.3249Z" fill="white"/>
<path d="M78.8165 47.4053H78.2334V51.4972H78.8165V47.4053Z" fill="white"/>
<path d="M78.5365 45.8447C78.2987 45.8447 78.1107 46.0321 78.1107 46.2692C78.1107 46.5063 78.2987 46.6822 78.5365 46.6822C78.7552 46.6822 78.9432 46.491 78.9432 46.2692C78.9432 46.0321 78.7552 45.8447 78.5365 45.8447Z" fill="white"/>
<path d="M81.8202 47.3242C81.2678 47.3242 80.8765 47.5996 80.585 47.9093V47.4084H79.998V53.0032H80.585V51.0414C80.8727 51.3664 81.2256 51.5844 81.7435 51.5844C82.5989 51.5844 83.2894 50.8349 83.2894 49.3893C83.2894 47.9437 82.6373 47.3242 81.8202 47.3242ZM81.6936 51.0758C81.2103 51.0758 80.8113 50.8043 80.585 50.4601V48.4179C80.8727 48.0623 81.2333 47.829 81.6706 47.829C82.3227 47.829 82.714 48.3644 82.714 49.3931C82.714 50.4907 82.3764 51.072 81.6974 51.072L81.6936 51.0758Z" fill="white"/>
<path d="M86.3928 46.5985H88.9937V46.0479H85.7828V51.5012H86.3928V48.9581H87.8927V48.4074H86.3928V46.5985Z" fill="white"/>
<path d="M90.7737 47.3242C89.7763 47.3242 88.9784 48.0699 88.9784 49.4581C88.9784 50.8463 89.7456 51.5844 90.743 51.5844C91.7404 51.5844 92.5421 50.8157 92.5421 49.4275C92.5421 48.0393 91.7788 47.3242 90.7737 47.3242ZM90.7583 51.0758C90.0448 51.0758 89.573 50.5174 89.573 49.4428C89.573 48.3682 90.0487 47.8328 90.7583 47.8328C91.468 47.8328 91.9552 48.3682 91.9552 49.4428C91.9552 50.5174 91.4719 51.0758 90.7583 51.0758Z" fill="white"/>
<path d="M95.7759 49.7992C95.7759 50.6941 95.3348 51.0765 94.7632 51.0765C94.1072 51.0765 93.7927 50.6826 93.7927 49.7992V47.4053H93.2096V49.8987C93.2096 51.0727 93.7812 51.5813 94.6481 51.5813C95.1583 51.5813 95.5419 51.3442 95.7759 51V51.501H96.3667V47.4091H95.7759V49.8031V49.7992Z" fill="white"/>
<path d="M99.0673 47.3251C98.5533 47.3251 98.1697 47.566 97.9357 47.9102V47.4092H97.3488V51.5012H97.9357V49.1072C97.9357 48.2123 98.3807 47.8299 98.9522 47.8299C99.6082 47.8299 99.9189 48.2238 99.9189 49.1072V51.5012H100.506V49.004C100.506 47.8299 99.9343 47.3213 99.0673 47.3213V47.3251Z" fill="white"/>
<path d="M104.031 47.8717C103.74 47.5428 103.391 47.321 102.873 47.321C102.013 47.321 101.327 48.0667 101.327 49.5199C101.327 50.9731 101.975 51.5812 102.796 51.5812C103.352 51.5812 103.74 51.3097 104.027 50.9999V51.5009H104.614V45.9863H104.027V47.8717H104.031ZM104.031 50.4836C103.74 50.8393 103.383 51.0726 102.946 51.0726C102.297 51.0726 101.906 50.5372 101.906 49.5084C101.906 48.4071 102.24 47.8258 102.923 47.8258C103.406 47.8258 103.801 48.0973 104.031 48.4415V50.4798V50.4836Z" fill="white"/>
<path d="M107.1 47.3242C106.571 47.3242 106.087 47.4581 105.727 47.6531L105.942 48.1311C106.279 47.9361 106.632 47.8175 107.062 47.8175C107.66 47.8175 107.948 48.1158 107.948 48.7201V49.2057C107.706 49.0719 107.338 48.9686 106.924 48.9686C106.114 48.9686 105.355 49.3587 105.355 50.2803C105.355 51.267 106.03 51.5844 106.671 51.5844C107.257 51.5844 107.66 51.3129 107.948 51.0031V51.5041H108.535V48.6551C108.535 47.699 107.982 47.328 107.096 47.328L107.1 47.3242ZM107.948 50.4945C107.699 50.831 107.303 51.1064 106.766 51.1064C106.272 51.1064 105.938 50.8425 105.938 50.2345C105.938 49.7182 106.295 49.4352 106.897 49.4352C107.396 49.4352 107.687 49.5193 107.948 49.6685V50.4945Z" fill="white"/>
<path d="M110.407 45.9863H109.816V47.4051H109.31V47.8984H109.816V50.6557C109.816 51.3326 110.092 51.5774 110.602 51.5774C110.909 51.5774 111.128 51.5315 111.354 51.4397L111.397 50.9349C111.209 51.0114 111.055 51.0496 110.817 51.0496C110.507 51.0496 110.407 50.9234 110.407 50.5601V47.8984H111.423V47.4051H110.407V45.9863Z" fill="white"/>
<path d="M112.755 45.8447C112.513 45.8447 112.321 46.0321 112.321 46.2692C112.321 46.5063 112.513 46.6822 112.755 46.6822C112.973 46.6822 113.157 46.491 113.157 46.2692C113.157 46.0321 112.969 45.8447 112.755 45.8447Z" fill="white"/>
<path d="M113.035 47.4053H112.448V51.4972H113.035V47.4053Z" fill="white"/>
<path d="M115.712 47.3242C114.715 47.3242 113.917 48.0699 113.917 49.4581C113.917 50.8463 114.68 51.5844 115.681 51.5844C116.683 51.5844 117.477 50.8157 117.477 49.4275C117.477 48.0393 116.71 47.3242 115.712 47.3242ZM115.697 51.0758C114.987 51.0758 114.508 50.5174 114.508 49.4428C114.508 48.3682 114.987 47.8328 115.697 47.8328C116.407 47.8328 116.894 48.3682 116.894 49.4428C116.894 50.5174 116.41 51.0758 115.697 51.0758Z" fill="white"/>
<path d="M120.043 47.3251C119.529 47.3251 119.145 47.566 118.908 47.9102V47.4092H118.321V51.5012H118.908V49.1072C118.908 48.2123 119.353 47.8299 119.924 47.8299C120.58 47.8299 120.895 48.2238 120.895 49.1072V51.5012H121.478V49.004C121.478 47.8299 120.906 47.3213 120.043 47.3213V47.3251Z" fill="white"/>
<path d="M67.3122 27.1982C64.9568 27.2021 63.0157 29.0377 63.0157 31.3399C63.0157 33.6421 64.9568 35.4586 67.3122 35.4662C69.6906 35.4586 71.6124 33.6191 71.6124 31.3399C71.6124 29.0606 69.6906 27.2021 67.3122 27.1982ZM67.2546 33.5771C66.0233 33.5771 65.0949 32.5751 65.0949 31.3399C65.0949 30.1047 66.0885 29.0836 67.316 29.0836C68.5436 29.0836 69.5026 30.0855 69.5026 31.3399C69.5026 32.5942 68.4975 33.5771 67.2585 33.5771H67.2546Z" fill="white"/>
<path d="M47.5984 24.3489C48.2544 24.9952 49.0063 25.5611 49.7466 25.9244L49.8234 25.9665L51.0931 24.4712L50.9703 24.4024C49.7658 23.7523 48.8221 22.9301 48.2045 21.8937C47.5907 20.8726 47.2762 19.6871 47.2762 18.2683V16.9375H45.0052V18.1268C45.0052 19.6642 44.6561 20.8726 44.0001 21.9319C43.2675 23.106 42.1818 24.0506 40.7932 24.9263L40.6704 25.0028L42.0476 26.4254L42.1243 26.3833C42.9452 25.9397 43.816 25.2552 44.5717 24.4904C45.2277 23.8211 45.7954 23.106 46.1407 22.4291C46.4744 23.0945 46.9846 23.7714 47.5984 24.3527V24.3489Z" fill="white"/>
<path d="M45.1395 34.4871H54.6454V28.0127H45.1395V34.4871ZM47.2762 29.8407H52.5087V32.6591H47.2762V29.8407Z" fill="white"/>
<path d="M76.8334 34.4871H87.5821V28.0127H76.8334V34.4871ZM78.9471 29.8407H85.4723V32.6591H78.9471V29.8407Z" fill="white"/>
<path d="M54.6836 16.5547H52.5699V27.2702H54.6836V22.5281H57.1579V20.6237H54.6836V16.5547Z" fill="white"/>
<path d="M98.5073 24.8955C99.2016 25.4959 99.9957 26.0007 100.744 26.3257L100.82 26.3601L101.964 24.819L101.841 24.7578C100.751 24.2033 99.7809 23.5149 99.0827 22.6736C98.3731 21.817 97.9511 20.7844 97.9511 19.5415V19.1782H101.097V17.335H92.5575V19.1782H95.6993V19.6219C95.6993 20.7538 95.3233 21.8093 94.6981 22.7233C93.9654 23.8209 92.8951 24.7043 91.8555 25.2779L91.7174 25.3505L93.1214 26.7999L93.1981 26.7617C93.9539 26.3334 94.7901 25.6871 95.5036 24.9605C96.0752 24.3639 96.5893 23.7329 96.9038 23.1019C97.2836 23.7138 97.8667 24.3257 98.5111 24.8955H98.5073Z" fill="white"/>
<path d="M113.794 29.8827H121.478V34.4832H123.611V28.0547H113.794V29.8827Z" fill="white"/>
<path d="M119.096 22.5132C119.096 21.4997 118.639 20.5666 117.964 19.8553H120.074V18.0312H116.046V16.0234H113.756V18.0312H109.632V19.8553H111.788C111.128 20.5666 110.672 21.4921 110.672 22.5132C110.672 24.7733 112.54 26.6089 114.876 26.6166C117.212 26.6089 119.092 24.7733 119.096 22.5132ZM112.709 22.429C112.709 21.1785 113.767 20.1192 114.876 20.1192C115.985 20.1192 117.04 21.1823 117.043 22.429C117.043 23.6604 115.985 24.7236 114.876 24.7274C113.764 24.7236 112.712 23.6604 112.709 22.429Z" fill="white"/>
<path d="M123.611 16.5547H121.501V27.3084H123.611V23.205H126.093V21.3006H123.611V16.5547Z" fill="white"/>
<path d="M105.708 16.5547H103.598V27.3084H105.708V22.5281H108.186V20.6237H105.708V16.5547Z" fill="white"/>
<path d="M69.8938 19.7441H66.5718V21.6294H69.8938V27.6488H72.0075V16.5547H69.8938V19.7441Z" fill="white"/>
<path d="M64.5272 24.628C65.187 25.2705 65.958 25.8365 66.6946 26.2189L66.7751 26.2648L68.0449 24.7695L67.9221 24.7007C66.7176 24.0697 65.7931 23.2513 65.1716 22.2302C64.5425 21.2168 64.228 19.9854 64.228 18.5666V16.9375H61.9531V18.4289C61.9531 19.9663 61.6079 21.1709 60.9673 22.2111C60.2384 23.4043 59.1298 24.3565 57.7411 25.2246L57.6222 25.3011L59.007 26.7275L59.0761 26.6816C59.8932 26.2342 60.7448 25.5879 61.5005 24.8498C62.1833 24.1729 62.7511 23.4349 63.0963 22.7274C63.4224 23.3737 63.9211 24.0314 64.5272 24.6319V24.628Z" fill="white"/>
<path d="M101.177 27.1982C98.8219 27.2021 96.8808 29.0377 96.877 31.3399C96.8808 33.6191 98.818 35.4586 101.177 35.4662C103.552 35.4586 105.477 33.6191 105.477 31.3399C105.477 29.0606 103.552 27.2021 101.177 27.1982ZM101.116 33.5771C99.8883 33.5771 98.9523 32.5751 98.9523 31.3399C98.9523 30.1047 99.942 29.0836 101.177 29.0836C102.412 29.0836 103.36 30.0855 103.364 31.3399C103.364 32.5713 102.355 33.5771 101.116 33.5771Z" fill="white"/>
<path d="M79.4074 22.701H81.5211V17.2285H75.8168V19.0488H79.4074V22.701Z" fill="white"/>
<path d="M85.7523 22.701H87.8698V17.2285H82.1655V19.0488H85.7523V22.701Z" fill="white"/>
<path d="M139.63 21.4H137.854V16.853H135.856V34.0238H137.854V23.4651H139.63V34.4827H141.702V16.5547H139.63V21.4Z" fill="white"/>
<path d="M132.925 23.7747C132.449 22.7383 132.253 21.5796 132.253 20.157V19.4801H134.651V17.5488H127.685V19.4801H130.159V20.1952C130.159 21.5413 129.983 22.6427 129.557 23.6638C129.062 24.8378 128.229 25.8933 126.902 27.0253L126.81 27.1094L128.122 28.4058L128.203 28.3446C128.862 27.859 129.553 27.1553 130.128 26.4287C130.615 25.8168 131.026 25.182 131.283 24.6237C131.548 25.1667 131.962 25.79 132.445 26.3713C133.005 27.052 133.638 27.6983 134.244 28.0846L134.325 28.1381L135.43 26.8226L135.342 26.7423C134.152 25.7097 133.416 24.7881 132.932 23.7709L132.925 23.7747Z" fill="white"/>
<path d="M74.0483 25.2478H81.0646V27.29H83.3547V25.2478H90.4822V23.416H74.0483V25.2478Z" fill="white"/>
<path d="M153.736 24.6622H146.593V19.2433H152.033V17.335H144.452V26.5131H153.736V24.6622Z" fill="white"/>
<path d="M149.696 28.7695H147.56V34.4829H157.553V32.6014H149.696V28.7695Z" fill="white"/>
<path d="M157.503 21.5185V16.5508H155.393V29.7788H157.503V23.4229H160V21.5185H157.503Z" fill="white"/>
<path d="M44.8096 11.0214L39.3354 8.76131L44.8096 6.50119L43.8352 4.16459L38.3649 6.42471L40.6321 0.96753L38.2844 0L36.0211 5.45718L33.7539 0L31.4062 0.96753L33.6734 6.42471L28.2031 4.16459L27.2325 6.50119L32.7028 8.76131L27.2325 11.0214L28.2031 13.358L33.6734 11.0979L31.4062 16.5551L33.7539 17.5226L36.0211 12.0693L38.2844 17.5226L40.6321 16.5513L38.3649 11.0979L43.8352 13.358L44.8096 11.0214Z" fill="white"/>
<path d="M9.39082 26.2453H13.0313V16.5547H0.58313V19.8206H9.39082V26.2453Z" fill="white"/>
<path d="M23.592 26.2453H27.2325V16.5547H14.7843V19.8206H23.592V26.2453Z" fill="white"/>
<path d="M0 31.2591H23.592V36.2497H27.2325V27.9932H0V31.2591Z" fill="white"/>
<path d="M8.80774 51.5009H27.2325V37.9287H8.80774V51.5009ZM12.4482 41.1946H23.5959V48.235H12.4482V41.1946Z" fill="white"/>
</g>
<defs>
<clipPath id="clip0_66_4124">
<rect width="160" height="53" fill="white"/>
</clipPath>
</defs>
</svg>
