<svg width="82" height="82" viewBox="0 0 82 82" fill="none" xmlns="http://www.w3.org/2000/svg">
<circle cx="41" cy="41" r="41" fill="white"/>
<path d="M47.9077 34.4668C48.0012 34.2013 47.8142 34.0095 47.518 34.0095H44.0893L43.0451 30.9411C42.936 30.6608 42.749 30.5723 42.4529 30.5723C42.1723 30.5723 41.9697 30.764 41.8762 30.9411L40.832 34.0095H37.3877C37.1072 34.0095 36.9046 34.2013 36.811 34.3783C36.7175 34.5701 36.811 34.8356 37.0137 35.0274L39.7722 36.9304L38.728 40.0873C38.6345 40.3676 38.728 40.5446 38.915 40.7069C39.1176 40.8987 39.3982 40.8987 39.6008 40.7069L42.3594 38.8039L45.1491 40.7069C45.3361 40.8987 45.6322 40.8987 45.8037 40.7069C45.9907 40.5299 46.0998 40.3676 45.9907 40.0873L44.9465 37.0189L47.7362 35.1159C47.9233 34.9241 48.0168 34.7471 47.9233 34.4668H47.9077ZM44.0893 36.2813C43.8867 36.4731 43.7932 36.6501 43.8867 36.9304L44.5724 38.7301L42.9204 37.5647C42.7334 37.373 42.4373 37.373 42.2503 37.5647L40.6294 38.7301L41.284 36.9304C41.3775 36.6501 41.284 36.4731 41.097 36.2813L39.4761 35.1159H41.4866C41.7671 35.1159 41.9386 34.9241 42.0632 34.7471L42.7178 32.9326L43.3724 34.7471C43.4659 35.0274 43.6685 35.1159 43.949 35.1159H45.9595L44.0581 36.2813H44.0893Z" fill="#3D3D3D"/>
<path d="M47.8297 26.707H37.1072C36.8266 26.707 36.5305 26.9726 36.5305 27.2529C36.5305 27.5331 36.811 27.7987 37.1072 27.7987H47.9233C48.2038 27.7987 48.4999 27.5331 48.4999 27.2529C48.4999 26.9726 48.2194 26.707 47.8297 26.707Z" fill="#3D3D3D"/>
<path d="M60.4537 20.9831H53.8456V17.5458C53.8456 17.2655 53.5494 17 53.2845 17H31.7458C31.4653 17 31.1692 17.2655 31.1692 17.5458V20.9831H24.5767C24.2805 20.9831 24 21.2633 24 21.5141V27.769C24 32.4749 27.3664 36.4727 32.0419 37.6529C32.79 39.5411 34.2394 41.1638 35.9694 42.3588C37.7773 43.5242 38.4318 45.7075 37.7773 47.699H35.2836C35.0187 47.699 34.7226 47.9793 34.7226 48.2448V52.1246H30.5146C30.2185 52.1246 29.9379 52.4049 29.9379 52.6704V63.4542C29.9379 63.7345 30.2185 64 30.5146 64H54.4222C54.7183 64 54.9989 63.7345 54.9989 63.4542V52.6704C54.9989 52.4049 54.7183 52.1246 54.4222 52.1246H50.2142V48.2448C50.2142 47.9793 49.9181 47.699 49.6531 47.699H47.5336C46.7699 45.7075 47.4401 43.4357 49.2635 42.167C50.9779 41.0016 52.2247 39.4674 52.9884 37.6529C57.6639 36.4727 61.0303 32.4749 61.0303 27.769V21.5141C61.0303 21.2633 60.7498 20.9831 60.4537 20.9831ZM30.8575 35.9711C30.6237 35.8974 30.4055 35.7941 30.1873 35.6908C29.3145 35.2778 28.5197 34.732 27.8495 34.0829C27.6625 33.9206 27.5067 33.7583 27.3508 33.5813C26.8988 33.065 26.5092 32.4896 26.1663 31.8848C25.5118 30.6456 25.1533 29.2442 25.1533 27.7837V22.0747H31.1692V33.478C31.1692 34.3927 31.2627 35.3663 31.5588 36.1924C31.325 36.1334 31.0912 36.0449 30.8575 35.9711ZM32.3225 18.1654H52.5987V20.9831H32.3225V18.1654ZM53.8456 62.9083H31.0912V56.6682H53.8456V62.9083ZM53.8456 53.3195V55.5618H31.0912V53.3195H53.8456ZM49.0609 48.8644V52.1246H35.8603V48.8644H49.0609ZM52.7078 33.478C52.5987 36.5612 51.1805 39.3788 48.5934 41.2819C46.3803 42.8161 45.5231 45.3387 46.2868 47.699H39.0241C39.6942 45.3387 38.728 42.8161 36.6396 41.3704C33.9589 39.5411 32.3225 36.6497 32.3225 33.478V24.8628H52.7078V33.478ZM52.7078 23.8745H32.3225V22.1632H52.7078V23.8745ZM59.877 27.887C59.8147 30.2621 58.786 32.5044 57.1184 34.1419C56.7756 34.4664 56.4171 34.7762 56.0431 35.0565C55.4664 35.4843 54.8274 35.8384 54.1573 36.1186C53.9391 36.2072 53.7053 36.2957 53.4715 36.3694C53.7676 35.4843 53.8456 34.5844 53.8456 33.6846V22.1632H59.877V27.887Z" fill="#3D3D3D"/>
<path d="M52.7235 22.1631H32.3225V23.8743H52.7235V22.1631Z" fill="#004289"/>
<path d="M43.9023 36.9304L44.588 38.7302L42.936 37.5648C42.749 37.373 42.4529 37.373 42.2659 37.5648L40.645 38.7302L41.2996 36.9304C41.3931 36.6501 41.2996 36.4731 41.1126 36.2813L39.4917 35.1159H41.5022C41.7827 35.1159 41.9542 34.9241 42.0788 34.7471L42.7334 32.9326L43.388 34.7471C43.4815 35.0274 43.6841 35.1159 43.9646 35.1159H45.9751L44.0737 36.2813C43.8711 36.4731 43.7776 36.6501 43.8711 36.9304H43.9023Z" fill="#004289"/>
</svg>
