<svg width="82" height="82" viewBox="0 0 82 82" fill="none" xmlns="http://www.w3.org/2000/svg">
<circle cx="41" cy="41" r="41" fill="white"/>
<g clip-path="url(#clip0_123_935)">
<path d="M60.0763 34.1599H53.9824C56.9943 28.7352 56.2238 21.8888 51.5869 17.2095C51.5869 17.1267 51.4888 17.1267 51.4888 17.1267C45.8152 11.6192 36.7794 11.6192 31.1198 17.1267C31.0218 17.1267 31.0218 17.2095 31.0218 17.2095C26.3848 21.806 25.6003 28.7352 28.6262 34.1599H22.5183C22.2522 34.1599 22 34.4222 22 34.6706V41.5446C22 41.7931 22.2522 42.0553 22.5183 42.0553H25.9505L28.9624 46.4586V59.5026C28.9624 59.7511 29.2146 60.0133 29.4808 60.0133C29.7469 60.0133 29.9991 59.7511 29.9991 59.5026V55.2512H32.1565V59.5026C32.1565 59.7511 32.4086 60.0133 32.6748 60.0133C32.941 60.0133 33.1931 59.7511 33.1931 59.5026V55.2512H35.3505V59.5026C35.3505 59.7511 35.6027 60.0133 35.8689 60.0133C36.135 60.0133 36.3872 59.7511 36.3872 59.5026V55.2512H38.5446V59.5026C38.5446 59.7511 38.7967 60.0133 39.0629 60.0133C39.3291 60.0133 39.5812 59.7511 39.5812 59.5026V55.2512H42.8453V59.5026C42.8453 59.7511 43.1115 60.0133 43.3636 60.0133C43.6298 60.0133 43.896 59.7511 43.896 59.5026V55.2512H46.0253V59.5026C46.0253 59.7511 46.2915 60.0133 46.5437 60.0133C46.8098 60.0133 47.076 59.7511 47.076 59.5026V55.2512H49.2054V59.5026C49.2054 59.7511 49.4715 60.0133 49.7237 60.0133C49.9899 60.0133 50.256 59.7511 50.256 59.5026V55.2512H52.3854V59.5026C52.3854 59.7511 52.6516 60.0133 52.9037 60.0133C53.1699 60.0133 53.4361 59.7511 53.4361 59.5026V46.5414L56.434 42.1382H59.8802C60.1323 42.1382 60.3985 41.8759 60.3985 41.6274V34.7534C60.6507 34.436 60.3985 34.1599 60.1323 34.1599H60.0763ZM52.6796 34.1599H48.9812L47.006 32.2136C49.0653 30.3502 51.727 29.0803 54.5568 28.818C54.3046 30.6815 53.6882 32.5587 52.6656 34.1599H52.6796ZM46.2355 32.9866L47.4402 34.1599H45.1988C45.521 33.732 45.8712 33.3041 46.2215 32.9866H46.2355ZM43.91 34.1599H35.0423L41.2483 28.0727L45.451 32.2136C44.8486 32.7934 44.3443 33.4835 43.91 34.1599ZM54.6408 27.7276C51.4608 28.0727 48.5469 29.3288 46.2215 31.4545L42.0188 27.3135L51.1386 18.3276C53.4641 20.8536 54.837 24.1664 54.6548 27.7276H54.6408ZM41.3323 13.9934C44.7785 13.9934 47.9586 15.3461 50.3681 17.4718L41.2483 26.5267L37.4659 22.7998C39.7914 20.4395 41.0802 17.2923 41.3183 13.9796L41.3323 13.9934ZM40.2256 14.0762C39.9595 17.0439 38.7407 19.8459 36.6954 22.0407L32.1425 17.5546C34.2999 15.6084 37.1297 14.3385 40.2256 14.0762ZM31.358 18.3276L35.9109 22.8136C33.6694 24.8427 30.8396 26.0298 27.8277 26.2921C28.0939 23.2415 29.3827 20.4533 31.358 18.3276ZM27.8277 27.3825C31.1899 27.1202 34.2999 25.8642 36.7794 23.5866L40.5618 27.3135L33.5154 34.1737H29.817C28.5282 32.1446 27.8277 29.7705 27.8277 27.3963V27.3825ZM32.1425 54.2436H29.9851V52.6286H32.1425V54.2436ZM32.1425 51.621H29.9851V50.0198H32.1425V51.621ZM32.1425 48.9984H29.9851V46.9003H32.1425V48.9984ZM35.3225 54.2574H33.1651V52.6424H35.3225V54.2574ZM35.3225 51.6348H33.1651V50.0336H35.3225V51.6348ZM35.3225 49.0122H33.1651V46.9141H35.3225V49.0122ZM38.5866 54.2712H36.4292V52.6562H38.5866V54.2712ZM38.5866 51.6486H36.4292V50.0474H38.5866V51.6486ZM38.5866 49.026H36.4292V46.9279H38.5866V49.026ZM42.8733 54.285H39.6092V52.67H42.8733V54.285ZM42.8733 51.6624H39.6092V50.0612H42.8733V51.6624ZM42.8733 49.0398H39.6092V46.9417H42.8733V49.0398ZM46.0534 54.2988H43.924V52.6838H46.0534V54.2988ZM46.0534 51.6762H43.924V50.075H46.0534V51.6762ZM46.0534 49.0536H43.924V46.9555H46.0534V49.0536ZM49.3314 54.3126H47.1741V52.6976H49.3314V54.3126ZM49.3314 51.69H47.1741V50.0888H49.3314V51.69ZM49.3314 49.0674H47.1741V46.9693H49.3314V49.0674ZM52.5115 54.3264H50.3541V52.7114H52.5115V54.3264ZM52.5115 51.7038H50.3541V50.1026H52.5115V51.7038ZM52.5115 49.0812H50.3541V46.9831H52.5115V49.0812ZM52.7636 45.865H29.7329L27.2253 42.1382H55.3553L52.7636 45.865ZM59.558 41.1167H23.0227V35.278H59.558V41.1167Z" fill="#3D3D3D"/>
<path d="M35.925 22.8142C33.6835 24.8433 30.8537 26.0303 27.8418 26.2926C28.108 23.2421 29.3968 20.4538 31.372 18.3281L35.925 22.8142Z" fill="#009FE3"/>
<path d="M40.5618 27.3L33.5153 34.1602H29.8169C28.5281 32.1311 27.8276 29.757 27.8276 27.3828C31.1898 27.1205 34.2998 25.8644 36.7794 23.5869L40.5618 27.3138V27.3Z" fill="#009FE3"/>
<path d="M47.4543 34.1606H45.2129C45.5351 33.7327 45.8853 33.3048 46.2355 32.9873L47.4403 34.1606H47.4543Z" fill="#009FE3"/>
<path d="M45.465 32.2142C44.8627 32.7939 44.3583 33.4841 43.9241 34.1605H35.0564L41.2624 28.0732L45.465 32.2142Z" fill="#009FE3"/>
<path d="M54.5848 28.8184C54.3327 30.6818 53.7163 32.559 52.6936 34.1602H48.9953L47.02 32.214C49.0793 30.3505 51.741 29.0806 54.5708 28.8184H54.5848Z" fill="#009FE3"/>
<path d="M54.6548 27.7281C51.4747 28.0732 48.5609 29.3293 46.2354 31.455L42.0327 27.314L51.1525 18.3281C53.478 20.8541 54.8509 24.1669 54.6688 27.7281H54.6548Z" fill="#009FE3"/>
<path d="M50.3681 17.4727L41.2482 26.5276L37.4658 22.8007C39.7913 20.4404 41.0801 17.2932 41.3183 13.9805C44.7645 13.9805 47.9445 15.3332 50.354 17.4589L50.3681 17.4727Z" fill="#009FE3"/>
<path d="M40.2257 14.0762C39.9596 17.0439 38.7408 19.8459 36.6955 22.0406L32.1426 17.5546C34.3 15.6083 37.1298 14.3384 40.2257 14.0762Z" fill="#009FE3"/>
</g>
<defs>
<clipPath id="clip0_123_935">
<rect width="38.4545" height="47" fill="white" transform="translate(22 13)"/>
</clipPath>
</defs>
</svg>
