<svg width="82" height="82" viewBox="0 0 82 82" fill="none" xmlns="http://www.w3.org/2000/svg">
<circle cx="41" cy="41" r="41" fill="white"/>
<g clip-path="url(#clip0_123_934)">
<path d="M64.7683 40.7761C64.7683 21.9842 64.7683 22.9284 64.7683 22.837V22.7456C64.7683 22.7456 64.7683 22.639 64.675 22.639L64.5818 22.5476C64.5818 22.5476 64.473 22.5476 64.473 22.4563C64.3798 22.3649 64.5818 22.4563 40.7316 16.0146H40.4519L18.4041 22.3649C18.1088 22.4563 17.9224 22.639 18.0156 22.9284C18.0156 23.2177 18.2176 23.4004 18.4973 23.4918L26.9031 25.6542V36.9385C26.9031 37.2278 27.1828 37.5172 27.478 37.5172H55.6166C55.8963 37.5172 56.1915 37.2278 56.1915 36.9385V25.5324L63.634 23.7659V40.7761C61.8161 41.0654 60.3711 42.6492 60.3711 44.5223V49.2735C60.3711 49.5629 60.6663 49.8522 60.946 49.8522H67.4407C67.7359 49.8522 68.0156 49.5629 68.0156 49.2735V44.5223C68.0156 42.5578 66.6017 41.0654 64.7838 40.7761H64.7683ZM54.933 36.3751H27.9441V26.0045C41.1977 29.4613 40.4364 29.2786 40.5296 29.2786C40.6228 29.2786 39.7527 29.4613 54.9174 25.8218V36.3751H54.933ZM40.5451 28.0451L20.7036 22.9131L40.5451 17.1111L61.8161 22.9131L40.5451 28.0451ZM66.8658 48.6187H61.5209V44.4309C61.5209 43.0299 62.7794 41.7964 64.2089 41.7964C65.6384 41.7964 66.8658 43.0299 66.8658 44.4309V48.6187Z" fill="#3D3D3D"/>
<path d="M66.8657 44.4314V48.6192H61.5208V44.4314C61.5208 43.0304 62.7793 41.7969 64.2088 41.7969C65.6382 41.7969 66.8657 43.0304 66.8657 44.4314Z" fill="#009FE3"/>
<path d="M61.8006 22.9134L40.5451 28.0453L20.7036 22.9134L40.5451 17.1113L61.8006 22.9134Z" fill="#009FE3"/>
<path d="M54.0007 47.4924H46.8223C46.7291 46.7614 46.3406 46 45.7813 45.5279C44.4606 44.4163 42.3475 44.5076 41.12 45.9087C40.8248 46.198 40.6383 46.7614 40.4674 47.4924C40.2654 46.3807 39.8925 45.1777 39.4264 44.2335C39.2244 43.9442 38.9447 43.8528 38.6495 43.9442C38.3698 44.1269 38.2611 44.4163 38.3698 44.7056C38.7272 45.4366 39.0224 46.3807 39.2089 47.3097C39.1156 47.2183 39.1156 47.1117 39.0224 47.1117C37.7639 46.0914 35.8838 46.198 34.9205 47.4924H23.6402C21.1542 47.4924 19.1809 49.4569 19.1809 51.8934C19.1809 54.33 21.1542 56.2944 23.6402 56.2944H30.8186C29.56 57.8782 29.0939 59.3706 29.0939 59.5686C29.0939 60.0406 29.5756 60.2995 29.964 60.132L33.0094 58.6396L34.4388 60.7868C34.6253 60.9696 34.9205 61.0762 35.1846 60.9696C35.4799 60.8782 35.5731 60.6193 35.5731 60.33C35.2779 59.1269 35.9615 57.7259 36.9093 56.3097H43.5749C44.5383 57.7107 45.1909 59.1269 44.9112 60.33C44.8024 60.7107 45.0976 60.9696 45.4861 60.9696C45.6725 60.9696 45.8434 60.8782 45.9677 60.6955L47.3972 58.5482L50.4426 60.0406C50.7999 60.2234 51.2816 59.934 51.2816 59.462C51.2816 59.2792 50.7999 57.8782 49.5725 56.2031H53.9696C56.4245 56.2031 58.4289 54.2386 58.4289 51.8021C58.4289 49.3655 56.4245 47.4924 53.9696 47.4924H54.0007ZM41.9746 46.6701C42.7204 45.7259 44.1654 45.6193 45.0199 46.3807C45.859 47.1117 45.9833 48.4366 45.1132 49.3655C44.7247 49.8376 42.9224 50.3097 41.7726 50.6752C41.4929 50.7665 41.1977 50.8579 41.0268 50.8579C41.12 49.6548 41.5084 47.1117 41.9901 46.6701H41.9746ZM35.8683 47.9645C36.4432 47.401 37.4842 47.401 38.1523 47.9645C38.4475 48.2538 38.9292 49.7462 39.1933 50.5686C39.1933 50.6752 39.2866 50.8579 39.2866 50.9493C39.1001 50.9493 39.0069 50.9493 38.8049 50.8579C37.9659 50.7665 36.4432 50.4772 36.0547 50.2031C35.3866 49.6396 35.2779 48.6193 35.8683 47.9493V47.9645ZM23.6402 55.0762C21.9311 55.0762 20.3152 53.6751 20.3152 51.8782C20.3152 50.0812 21.7446 48.7107 23.547 48.7107C25.3493 48.7107 26.8099 50.1117 26.8099 51.8782C26.8099 53.6447 25.3804 55.0762 23.6402 55.0762ZM26.5923 55.0762C28.5035 53.2944 28.5035 50.3858 26.5923 48.6345H34.3301C34.2213 49.5482 34.5165 50.4924 35.2623 51.1625C35.6508 51.4366 36.2257 51.6345 36.987 51.8173C34.501 52.5482 32.8851 53.8731 31.6421 55.0914H26.5923V55.0762ZM34.4233 58.533L33.6464 57.3909C33.46 57.1168 33.1647 57.0406 32.9006 57.2081L30.8963 58.2285C31.1759 57.665 31.6421 57.0254 32.217 56.264C33.8639 54.3909 35.8528 53.1878 38.3388 52.6244C36.8161 54.2081 34.905 56.3554 34.4233 58.5178V58.533ZM37.6551 55.0762C38.5252 54.0254 39.473 53.1117 40.1411 52.4416C40.7937 53.1117 41.757 53.934 42.6271 55.0762H37.6707H37.6551ZM47.4904 57.2234C47.1952 57.132 46.9155 57.132 46.7135 57.4061L45.9677 58.5482C45.3928 56.3858 43.5749 54.1472 42.0523 52.6548C44.5383 53.2183 46.5426 54.4213 48.1585 56.2944C48.7334 56.934 49.1996 57.6955 49.4948 58.2589L47.4904 57.2386V57.2234ZM53.9851 55.0762H48.6402C47.4127 53.7665 45.5016 52.3503 42.6271 51.6193C44.2431 51.1472 45.5016 50.6751 45.9677 50.1269C46.3251 49.6548 46.6203 49.1828 46.7135 48.6345H53.9696C55.772 48.6345 57.2014 50.0203 57.2014 51.8021C57.2014 53.5838 55.772 55.0762 53.9696 55.0762H53.9851Z" fill="#3D3D3D"/>
</g>
<defs>
<clipPath id="clip0_123_934">
<rect width="50" height="45" fill="white" transform="translate(18 16)"/>
</clipPath>
</defs>
</svg>
