<svg width="12" height="12" viewBox="0 0 12 12" fill="none" xmlns="http://www.w3.org/2000/svg">
<path d="M5.25 6.75H1.5C1.2875 6.75 1.10938 6.67813 0.965625 6.53438C0.821875 6.39062 0.75 6.2125 0.75 6C0.75 5.7875 0.821875 5.60938 0.965625 5.46563C1.10938 5.32188 1.2875 5.25 1.5 5.25H5.25V1.5C5.25 1.2875 5.32188 1.10938 5.46563 0.965625C5.60938 0.821875 5.7875 0.75 6 0.75C6.2125 0.75 6.39062 0.821875 6.53438 0.965625C6.67813 1.10938 6.75 1.2875 6.75 1.5V5.25H10.5C10.7125 5.25 10.8906 5.32188 11.0344 5.46563C11.1781 5.60938 11.25 5.7875 11.25 6C11.25 6.2125 11.1781 6.39062 11.0344 6.53438C10.8906 6.67813 10.7125 6.75 10.5 6.75H6.75V10.5C6.75 10.7125 6.67813 10.8906 6.53438 11.0344C6.39062 11.1781 6.2125 11.25 6 11.25C5.7875 11.25 5.60938 11.1781 5.46563 11.0344C5.32188 10.8906 5.25 10.7125 5.25 10.5V6.75Z" fill="white" fill-opacity="0.8"/>
</svg>
