<svg xmlns="http://www.w3.org/2000/svg" xmlns:xlink="http://www.w3.org/1999/xlink" width="180.963" height="40.259" viewBox="0 0 180.963 40.259">
  <defs>
    <clipPath id="clip-path">
      <rect id="사각형_30" data-name="사각형 30" width="180.963" height="40.259" transform="translate(0 0)" fill="none"/>
    </clipPath>
  </defs>
  <g id="그룹_1" data-name="그룹 1" transform="translate(0 0)" clip-path="url(#clip-path)">
    <path id="패스_1" data-name="패스 1" d="M23.467,40.259a1.99,1.99,0,0,1-.827-.179l-1.419-.645c-1.464-.556-5.955-2.626-7.219-7.387-.386-1.463-1.026-5.1,1.33-7.446,1.551-1.541,3.534-1.667,5.452-1.788a12.467,12.467,0,0,1,3.209.2,5.459,5.459,0,0,0,2.017.081,5.287,5.287,0,0,0,2.677-.938c1.254-.984,2.038-2.854,1.644-3.922-.094-.257-.149-.326-1.174-.749A11.092,11.092,0,0,1,25.3,15.08,9.875,9.875,0,0,1,22.525,9.9a6.012,6.012,0,0,0-1.671-3.3,9.226,9.226,0,0,0-5.892-2.39A9.908,9.908,0,0,0,8.672,5.65,10.224,10.224,0,0,0,4.312,12.3a7.433,7.433,0,0,0,.439,5.453c.169.29,1.718,2.864,4,2.774a4.368,4.368,0,0,0,2.98-1.594c1.678-1.942,1.677-5.486-.005-8.82a2,2,0,0,1,3.572-1.8c2.44,4.838,2.227,10.034-.542,13.237a8.366,8.366,0,0,1-5.9,2.977c-4.476.116-7.089-3.941-7.565-4.757a11.313,11.313,0,0,1-.9-8.266A14.194,14.194,0,0,1,6.523,2.277,13.826,13.826,0,0,1,15.3.223,13.361,13.361,0,0,1,23.1,3.234,17.235,17.235,0,0,1,27.965.849,15.042,15.042,0,0,1,35.132.168c5.6.232,9.481,6.081,9.645,6.333a2.023,2.023,0,0,1,.17.318,18.644,18.644,0,0,1-.083,15.376,1.946,1.946,0,0,1-.133.213A59.532,59.532,0,0,1,24.336,40.06a1.991,1.991,0,0,1-.869.2M21.639,26.786c-.184,0-.383.006-.6.02-1.489.094-2.424.175-2.884.633-.673.669-.628,2.281-.285,3.582.812,3.06,4.156,4.445,4.818,4.691.043.017.087.034.129.054l.589.268A56.984,56.984,0,0,0,41.388,20.2a14.712,14.712,0,0,0-.055-11.657c-.923-1.326-3.61-4.337-6.468-4.387a2,2,0,0,1-.437-.055,11.16,11.16,0,0,0-5.238.551,13.518,13.518,0,0,0-3.63,1.738A13.506,13.506,0,0,1,26.4,8.9a5.984,5.984,0,0,0,1.692,3.317,7.229,7.229,0,0,0,2.592,1.578,5.183,5.183,0,0,1,3.4,3.065c1.141,3.1-.657,6.666-2.927,8.449a9.158,9.158,0,0,1-4.585,1.752,9.293,9.293,0,0,1-3.265-.1,8.9,8.9,0,0,0-1.669-.173" fill="#fff"/>
    <path id="패스_2" data-name="패스 2" d="M20.132,17.126a2.538,2.538,0,1,1,2.538-2.538,2.541,2.541,0,0,1-2.538,2.538" fill="#fff"/>
    <path id="패스_3" data-name="패스 3" d="M57.6,15.164,56.375,18.68H53.494l5.02-13.76h3.4l5,13.76h-2.85L62.84,15.164Zm2.617-8.125q-.1.39-.274.937c-.118.365-.2.622-.253.772L58.24,13h3.955L60.711,8.66c-.091-.267-.176-.537-.253-.81s-.159-.544-.244-.811" fill="#fff"/>
    <path id="패스_4" data-name="패스 4" d="M71.136,10.564v8.115H68.577V4.919h3.291L77.952,15.6a23.066,23.066,0,0,1-.175-2.685v-8h2.558v13.76H76.956l-6-10.6q.088.771.132,1.391t.044,1.089" fill="#fff"/>
    <rect id="사각형_28" data-name="사각형 28" width="2.881" height="13.76" transform="translate(82.821 4.92)" fill="#fff"/>
    <path id="패스_5" data-name="패스 5" d="M90.737,10.34v8.34H88.178V4.92h3.858L94.5,12.615q.165.645.342,1.294T95.18,15.2q.108-.37.205-.737c.066-.244.132-.49.2-.737s.138-.492.21-.733L98.325,4.92h3.838V18.68H99.6V10.34q0-.284.025-1.138t.073-1.86q-.342,1.31-.6,2.227T98.676,11L96.2,18.68H94.145L91.665,11,90.62,7.342q.058,1.133.088,1.88c.019.5.029.87.029,1.118" fill="#fff"/>
    <path id="패스_6" data-name="패스 6" d="M107.9,15.164l-1.221,3.516H103.8l5.02-13.76h3.4l5,13.76h-2.851l-1.221-3.516Zm2.617-8.125q-.1.39-.273.937t-.254.772L108.544,13H112.5L111.015,8.66q-.136-.4-.254-.81t-.244-.811" fill="#fff"/>
    <path id="패스_7" data-name="패스 7" d="M129.145,16.453V18.68H118.881V4.92h2.881V16.453Z" fill="#fff"/>
    <path id="패스_8" data-name="패스 8" d="M65.653,29.275a4.556,4.556,0,0,1-.61,2.368,4.216,4.216,0,0,1-1.733,1.612,5.762,5.762,0,0,1-2.676.581H57.216v4.843H54.335V24.92h6.182a5.694,5.694,0,0,1,3.8,1.137,4,4,0,0,1,1.333,3.218m-2.9.049q0-2.167-2.559-2.168H57.216v4.463h3.057a2.619,2.619,0,0,0,1.835-.591,2.2,2.2,0,0,0,.645-1.7" fill="#fff"/>
    <path id="패스_9" data-name="패스 9" d="M70.356,33.455V38.68H67.475V24.92H74.35a5.983,5.983,0,0,1,3.8,1.06,3.651,3.651,0,0,1,1.338,3.042,3.932,3.932,0,0,1-.82,2.5A3.845,3.845,0,0,1,76.449,32.9L80.17,38.68H76.928l-3.194-5.225Zm6.23-4.316a1.771,1.771,0,0,0-.635-1.484,3.049,3.049,0,0,0-1.9-.5H70.356v4.062h3.769a2.71,2.71,0,0,0,1.836-.547,1.928,1.928,0,0,0,.625-1.533" fill="#fff"/>
    <path id="패스_10" data-name="패스 10" d="M95.1,31.736a7.812,7.812,0,0,1-.864,3.755A6.167,6.167,0,0,1,91.8,37.986a7.336,7.336,0,0,1-3.677.889,7.508,7.508,0,0,1-3.711-.865,5.831,5.831,0,0,1-2.383-2.465,8.174,8.174,0,0,1-.83-3.809,8.039,8.039,0,0,1,.825-3.779,5.651,5.651,0,0,1,2.383-2.408,8.747,8.747,0,0,1,7.476.01,5.742,5.742,0,0,1,2.382,2.417,7.951,7.951,0,0,1,.83,3.76m-2.939,0A5.291,5.291,0,0,0,91.1,28.245a3.64,3.64,0,0,0-2.959-1.265,3.688,3.688,0,0,0-2.988,1.255,5.282,5.282,0,0,0-1.055,3.5,6.33,6.33,0,0,0,.489,2.6,3.662,3.662,0,0,0,3.535,2.275,3.653,3.653,0,0,0,2.983-1.269,5.512,5.512,0,0,0,1.05-3.6" fill="#fff"/>
    <path id="패스_11" data-name="패스 11" d="M103.286,27.146V38.679H100.4V27.146H95.962V24.919h11.777v2.227Z" fill="#fff"/>
    <path id="패스_12" data-name="패스 12" d="M120.312,36.453V38.68H109.091V24.92h10.821v2.226h-7.94V30.6h7.344V32.83h-7.344v3.623Z" fill="#fff"/>
    <path id="패스_13" data-name="패스 13" d="M128.657,36.609a3.641,3.641,0,0,0,3.623-2.617l2.51.947a6.018,6.018,0,0,1-2.378,2.964,6.985,6.985,0,0,1-3.755.972,7.769,7.769,0,0,1-3.76-.845,5.625,5.625,0,0,1-2.368-2.446,8.389,8.389,0,0,1-.815-3.848,8.5,8.5,0,0,1,.781-3.828A5.329,5.329,0,0,1,124.8,25.53a7.811,7.811,0,0,1,3.73-.816,7.226,7.226,0,0,1,3.945.972,5.151,5.151,0,0,1,2.139,2.857l-2.539.693a2.967,2.967,0,0,0-1.265-1.646,4,4,0,0,0-2.221-.61,3.642,3.642,0,0,0-2.964,1.211,5.408,5.408,0,0,0-1.011,3.545,6.767,6.767,0,0,0,.464,2.666,3.482,3.482,0,0,0,1.367,1.645,4.109,4.109,0,0,0,2.212.562" fill="#fff"/>
    <path id="패스_14" data-name="패스 14" d="M142.685,27.146V38.679H139.8V27.146h-4.443V24.919h11.777v2.227Z" fill="#fff"/>
    <rect id="사각형_29" data-name="사각형 29" width="2.881" height="13.76" transform="translate(148.491 24.92)" fill="#fff"/>
    <path id="패스_15" data-name="패스 15" d="M167.227,31.736a7.812,7.812,0,0,1-.864,3.755,6.167,6.167,0,0,1-2.431,2.495,7.336,7.336,0,0,1-3.677.889,7.508,7.508,0,0,1-3.711-.865,5.831,5.831,0,0,1-2.383-2.465,8.174,8.174,0,0,1-.83-3.809,8.039,8.039,0,0,1,.825-3.779,5.651,5.651,0,0,1,2.383-2.408,8.747,8.747,0,0,1,7.476.01,5.742,5.742,0,0,1,2.382,2.417,7.951,7.951,0,0,1,.83,3.76m-2.939,0a5.291,5.291,0,0,0-1.055-3.491,3.64,3.64,0,0,0-2.959-1.265,3.688,3.688,0,0,0-2.988,1.255,5.282,5.282,0,0,0-1.055,3.5,6.329,6.329,0,0,0,.489,2.6,3.662,3.662,0,0,0,3.535,2.275,3.653,3.653,0,0,0,2.983-1.269,5.512,5.512,0,0,0,1.05-3.6" fill="#fff"/>
    <path id="패스_16" data-name="패스 16" d="M171.763,30.564v8.115H169.2V24.919h3.291L178.579,35.6a23.069,23.069,0,0,1-.175-2.685v-8h2.558v13.76h-3.379l-6-10.6q.088.771.132,1.391t.044,1.089" fill="#fff"/>
  </g>
</svg>
