<svg xmlns="http://www.w3.org/2000/svg" xmlns:xlink="http://www.w3.org/1999/xlink" width="140" height="140" viewBox="0 0 140 140">
  <defs>
    <clipPath id="clip-path">
      <rect id="사각형_443" data-name="사각형 443" width="139.473" height="139.512" fill="#fff"/>
    </clipPath>
  </defs>
  <g id="그룹_286" data-name="그룹 286" transform="translate(-432 -636)">
    <g id="그룹_273" data-name="그룹 273" transform="translate(432.527 636)" style="mix-blend-mode: difference;isolation: isolate">
      <g id="그룹_272" data-name="그룹 272" clip-path="url(#clip-path)">
        <path id="패스_671" data-name="패스 671" d="M10.738,81.545l3.487.587.456,2.7L1,82.308.458,79.124l12.1-6.862.452,2.671-3.1,1.7ZM2.712,80.38c.255.021.562.056.923.108s.614.09.763.116l4.207.681L7.979,77.58,4.152,79.657c-.236.128-.475.249-.718.367s-.485.235-.722.356" fill="#fff"/>
        <path id="패스_672" data-name="패스 672" d="M7.42,68.227l5.375.233-.112,2.605L4.9,70.727q-.807-.034-1.322-.035c-.344,0-.651,0-.924.012l.108-2.485c.074-.009.25-.016.525-.023s.558-.012.846-.014.5,0,.627,0v-.037a3.84,3.84,0,0,1-1.611-1.4,3.411,3.411,0,0,1-.436-1.921A3.065,3.065,0,0,1,3.8,62.424,4.264,4.264,0,0,1,6.711,61.7l6.367.277-.113,2.6-5.627-.245a3.591,3.591,0,0,0-2,.359A1.518,1.518,0,0,0,4.619,66a1.792,1.792,0,0,0,.745,1.559,3.5,3.5,0,0,0,2.056.67" fill="#fff"/>
        <path id="패스_673" data-name="패스 673" d="M.472,54.887l1.889.348L1.889,57.8,0,57.452Zm3.668.675,9.872,1.815-.472,2.564L3.668,58.125Z" fill="#fff"/>
        <path id="패스_674" data-name="패스 674" d="M9.974,50.828,15,52.752l-.931,2.434L6.79,52.4c-.5-.192-.917-.343-1.243-.45s-.619-.2-.88-.283l.888-2.322q.111.022.506.144c.265.081.533.166.808.254s.47.156.592.2l.014-.034a3.806,3.806,0,0,1-1.131-1.719A2.865,2.865,0,0,1,6.473,46.4a2.921,2.921,0,0,1,1.174-1.533,2.746,2.746,0,0,1,1.87-.293l.02-.052a3.918,3.918,0,0,1-1.131-1.744,3.056,3.056,0,0,1,.173-1.88,2.651,2.651,0,0,1,1.731-1.732,4.6,4.6,0,0,1,2.948.3l5.952,2.277-.924,2.417-5.26-2.012a4.083,4.083,0,0,0-1.99-.354,1.236,1.236,0,0,0-1.023.831,1.51,1.51,0,0,0,.234,1.45,3.537,3.537,0,0,0,1.72,1.2l5.139,1.967-.926,2.417-5.259-2.013a4.069,4.069,0,0,0-1.99-.353,1.234,1.234,0,0,0-1.023.83,1.471,1.471,0,0,0,.3,1.488,3.93,3.93,0,0,0,1.771,1.209" fill="#fff"/>
        <path id="패스_675" data-name="패스 675" d="M21.826,38.513A3.133,3.133,0,0,1,19.9,39.952a2.968,2.968,0,0,1-2.306-.573A2.838,2.838,0,0,1,16.2,37.213a4.806,4.806,0,0,1,.949-2.913l1.18-1.812L17.9,32.2a2.521,2.521,0,0,0-1.4-.533,1.284,1.284,0,0,0-1.025.663,1.473,1.473,0,0,0-.321,1.065,1.749,1.749,0,0,0,.667.959l-1.63,2.18Q12.01,34.447,14.14,31.3a4.2,4.2,0,0,1,2.416-1.905,3.417,3.417,0,0,1,2.783.636l3.03,2.046a2.447,2.447,0,0,0,1.071.494.678.678,0,0,0,.621-.347,2.98,2.98,0,0,0,.276-.507L25.5,32.5c-.114.312-.217.573-.312.785a5.03,5.03,0,0,1-.423.734,1.943,1.943,0,0,1-1.212.933,2.3,2.3,0,0,1-1.491-.33l-.03.047a3.873,3.873,0,0,1,.457,1.966,3.7,3.7,0,0,1-.668,1.877m-2.308-5.22-.733,1.117a4.534,4.534,0,0,0-.56,1.178,1.223,1.223,0,0,0,.091.761,1.708,1.708,0,0,0,.626.664,1.494,1.494,0,0,0,1.064.321,1.145,1.145,0,0,0,.779-.531,2.013,2.013,0,0,0,.352-1.117,2.272,2.272,0,0,0-.324-1.17,2.8,2.8,0,0,0-.873-.938Z" fill="#fff"/>
        <rect id="사각형_442" data-name="사각형 442" width="2.607" height="13.768" transform="matrix(0.664, -0.748, 0.748, 0.664, 16.023, 22.965)" fill="#fff"/>
        <path id="패스_676" data-name="패스 676" d="M36.81,11.584a4.333,4.333,0,0,1,.812,2.176,4,4,0,0,1-.474,2.2,5.466,5.466,0,0,1-1.769,1.907l-2.661,1.859L35.35,23.5l-2.243,1.566L25.624,14.345l4.815-3.361A5.42,5.42,0,0,1,34.021,9.8a3.806,3.806,0,0,1,2.789,1.781M34.578,13.2q-1.18-1.689-3.173-.3l-2.32,1.62L31.512,18l2.38-1.662A2.485,2.485,0,0,0,35,14.877a2.085,2.085,0,0,0-.423-1.678" fill="#fff"/>
        <path id="패스_677" data-name="패스 677" d="M43.559,12.846l2.116,4.448-2.354,1.12-3.3-6.937q-.355-.746-.612-1.235t-.468-.861l2.245-1.068a2.73,2.73,0,0,1,.193.319q.141.252.311.567c.114.209.22.407.318.592s.168.322.208.406l.033-.016a7.137,7.137,0,0,1-.029-1.64,1.885,1.885,0,0,1,.361-.881,2.289,2.289,0,0,1,.834-.623,1.976,1.976,0,0,1,.789-.22l.936,1.968a5.13,5.13,0,0,0-1.065.352A1.743,1.743,0,0,0,43.044,10.5a4.152,4.152,0,0,0,.515,2.345" fill="#fff"/>
        <path id="패스_678" data-name="패스 678" d="M57.284,7.934a5.251,5.251,0,0,1-.218,4.054,4.992,4.992,0,0,1-3.2,2.389,4.866,4.866,0,0,1-3.926-.294,5.3,5.3,0,0,1-2.362-3.29,5.259,5.259,0,0,1,.206-4.03,4.953,4.953,0,0,1,3.2-2.387,4.972,4.972,0,0,1,3.977.226,5.326,5.326,0,0,1,2.331,3.332M54.667,8.7a4.5,4.5,0,0,0-1.294-2.327,1.968,1.968,0,0,0-1.857-.294A2.031,2.031,0,0,0,50.047,7.4a4.49,4.49,0,0,0,.153,2.62,4.649,4.649,0,0,0,1.278,2.289,1.888,1.888,0,0,0,1.854.368,2.053,2.053,0,0,0,1.489-1.333A4.513,4.513,0,0,0,54.667,8.7" fill="#fff"/>
        <path id="패스_679" data-name="패스 679" d="M65.039,11.859a6.976,6.976,0,0,1-2.135.612,2.387,2.387,0,0,1-1.842-.38,2.593,2.593,0,0,1-.873-1.794l-.8-5.865-1.261.174-.239-1.747,1.387-.19L59.761.223,61.378,0,61.7,2.336l1.883-.259.241,1.746-1.884.259.709,5.165a1.721,1.721,0,0,0,.423,1.033,1.036,1.036,0,0,0,.9.227,4.6,4.6,0,0,0,.846-.247Z" fill="#fff"/>
        <path id="패스_680" data-name="패스 680" d="M68.328,7.352a3.733,3.733,0,0,0,.533,2.215,1.8,1.8,0,0,0,1.542.754,1.961,1.961,0,0,0,1.128-.3,1.581,1.581,0,0,0,.621-.892l2.458.222a4.2,4.2,0,0,1-4.344,2.71,4.46,4.46,0,0,1-3.474-1.354,5.648,5.648,0,0,1-1.2-3.916,5.439,5.439,0,0,1,1.251-3.817,4.525,4.525,0,0,1,3.5-1.322,3.969,3.969,0,0,1,3.3,1.447,6.637,6.637,0,0,1,1.125,4.2V7.38ZM72.25,5.736a3.078,3.078,0,0,0-.577-1.825,1.87,1.87,0,0,0-2.788.021,2.961,2.961,0,0,0-.531,1.787Z" fill="#fff"/>
        <path id="패스_681" data-name="패스 681" d="M80.269,13.014a4.536,4.536,0,0,1-3.229-1.962,5.412,5.412,0,0,1-.554-3.95A5.574,5.574,0,0,1,78.4,3.512a4.535,4.535,0,0,1,3.742-.736A4.67,4.67,0,0,1,84.874,4.17a3.88,3.88,0,0,1,1,2.678l-2.607-.337a2.15,2.15,0,0,0-.33-1.309,1.674,1.674,0,0,0-1.16-.674,1.649,1.649,0,0,0-1.638.558,5.03,5.03,0,0,0-.939,2.4,5.2,5.2,0,0,0,.046,2.652A1.675,1.675,0,0,0,80.6,11.264a1.748,1.748,0,0,0,1.306-.242,2.227,2.227,0,0,0,.859-1.264l2.555.582a3.826,3.826,0,0,1-1.063,1.69,4.075,4.075,0,0,1-1.766.935,5.186,5.186,0,0,1-2.224.049" fill="#fff"/>
        <path id="패스_682" data-name="패스 682" d="M90.644,15.514a6.973,6.973,0,0,1-2.188-.385,2.4,2.4,0,0,1-1.489-1.147,2.61,2.61,0,0,1,0-2l1.846-5.624-1.208-.4.549-1.676,1.33.437,1.51-1.985,1.552.509-.735,2.239,1.808.592-.548,1.675-1.808-.592-1.624,4.954a1.726,1.726,0,0,0-.073,1.115,1.041,1.041,0,0,0,.713.6,4.633,4.633,0,0,0,.868.148Z" fill="#fff"/>
        <path id="패스_683" data-name="패스 683" d="M98.18,8.039l-4.036,9.19-2.387-1.047L95.793,6.99Zm1.5-3.415-.772,1.759L96.521,5.334l.771-1.758Z" fill="#fff"/>
        <path id="패스_684" data-name="패스 684" d="M106.974,18.819a5.249,5.249,0,0,1-3.166,2.54,5.007,5.007,0,0,1-3.917-.8,4.866,4.866,0,0,1-2.4-3.123,5.293,5.293,0,0,1,.878-3.954,5.266,5.266,0,0,1,3.141-2.533,4.955,4.955,0,0,1,3.909.791,4.984,4.984,0,0,1,2.484,3.117,5.329,5.329,0,0,1-.932,3.958m-2.317-1.437a4.5,4.5,0,0,0,.872-2.516,1.97,1.97,0,0,0-1.018-1.581,2.035,2.035,0,0,0-1.962-.216,4.489,4.489,0,0,0-1.852,1.86,4.645,4.645,0,0,0-.852,2.477,1.878,1.878,0,0,0,.961,1.627,2.053,2.053,0,0,0,1.986.222,4.523,4.523,0,0,0,1.865-1.873" fill="#fff"/>
        <path id="패스_685" data-name="패스 685" d="M111.042,21.865l-3.658,3.946-1.912-1.773,5.3-5.713q.549-.594.882-.985t.59-.712l1.823,1.69c-.042.064-.148.2-.322.416s-.352.432-.536.654-.321.379-.409.475l.027.025a3.818,3.818,0,0,1,2.108-.322,3.411,3.411,0,0,1,1.748.913,3.069,3.069,0,0,1,1.127,2.386,4.274,4.274,0,0,1-1.33,2.688l-4.334,4.673-1.9-1.765,3.83-4.129a3.582,3.582,0,0,0,1.024-1.759,1.514,1.514,0,0,0-.539-1.4,1.791,1.791,0,0,0-1.671-.444,3.513,3.513,0,0,0-1.842,1.133" fill="#fff"/>
        <path id="패스_686" data-name="패스 686" d="M121.284,39.739a3.46,3.46,0,0,0,3.881,1.725l.422,2.511a5.713,5.713,0,0,1-3.57-.535,6.631,6.631,0,0,1-2.593-2.618,7.382,7.382,0,0,1-1.1-3.49,5.339,5.339,0,0,1,.876-3.114,7.963,7.963,0,0,1,2.77-2.508,8.058,8.058,0,0,1,3.515-1.189,5.076,5.076,0,0,1,3.054.754,7.411,7.411,0,0,1,2.452,2.674,6.837,6.837,0,0,1,1.089,3.7,4.887,4.887,0,0,1-1.322,3.122l-1.783-1.753a2.824,2.824,0,0,0,.747-1.825,3.8,3.8,0,0,0-.562-2.115,3.459,3.459,0,0,0-2.411-1.855,5.138,5.138,0,0,0-3.394.866,6.416,6.416,0,0,0-1.966,1.655,3.306,3.306,0,0,0-.7,1.909,3.918,3.918,0,0,0,.6,2.084" fill="#fff"/>
        <path id="패스_687" data-name="패스 687" d="M127.79,47.6a3.754,3.754,0,0,0-1.923,1.223,1.8,1.8,0,0,0-.213,1.7,1.946,1.946,0,0,0,.647.971,1.594,1.594,0,0,0,1.046.3l.585,2.4a4.2,4.2,0,0,1-3.972-3.23,4.463,4.463,0,0,1,.156-3.726,5.648,5.648,0,0,1,3.316-2.4,5.431,5.431,0,0,1,4.016-.055,4.524,4.524,0,0,1,2.386,2.886,3.974,3.974,0,0,1-.3,3.587,6.617,6.617,0,0,1-3.611,2.426l-.069.023Zm2.8,3.187a3.079,3.079,0,0,0,1.541-1.138,1.868,1.868,0,0,0-.924-2.631,2.994,2.994,0,0,0-1.863.078Z" fill="#fff"/>
        <path id="패스_688" data-name="패스 688" d="M131.577,58.34l-5.328.757-.367-2.581,7.716-1.1c.533-.076.967-.146,1.3-.209s.641-.124.907-.181l.351,2.462q-.108.034-.513.119t-.829.17c-.283.055-.488.092-.617.111l.006.037a3.828,3.828,0,0,1,1.84,1.078,3.417,3.417,0,0,1,.782,1.81,3.076,3.076,0,0,1-.63,2.564,4.277,4.277,0,0,1-2.727,1.249l-6.31.9-.365-2.572,5.575-.793a3.579,3.579,0,0,0,1.9-.719,1.518,1.518,0,0,0,.463-1.425,1.8,1.8,0,0,0-1.018-1.4,3.507,3.507,0,0,0-2.144-.281" fill="#fff"/>
        <path id="패스_689" data-name="패스 689" d="M127.2,72.323a6.979,6.979,0,0,1-.3-2.2,2.39,2.39,0,0,1,.641-1.767,2.594,2.594,0,0,1,1.9-.606l5.919.049.009-1.273,1.764.015-.011,1.4,2.348.835-.012,1.634-2.357-.02-.015,1.9-1.762-.014.016-1.9-5.214-.042a1.712,1.712,0,0,0-1.083.27,1.037,1.037,0,0,0-.355.86,4.352,4.352,0,0,0,.123.872Z" fill="#fff"/>
        <path id="패스_690" data-name="패스 690" d="M131.183,76.21a3.751,3.751,0,0,0-2.268.224,1.794,1.794,0,0,0-.957,1.424,1.946,1.946,0,0,0,.139,1.158,1.582,1.582,0,0,0,.8.738l-.558,2.4a4.2,4.2,0,0,1-2.089-4.674,4.455,4.455,0,0,1,1.819-3.255,5.637,5.637,0,0,1,4.043-.65,5.43,5.43,0,0,1,3.61,1.762,4.526,4.526,0,0,1,.828,3.651,3.974,3.974,0,0,1-1.886,3.067,6.631,6.631,0,0,1-4.317.536l-.074-.01Zm1.062,4.107A3.1,3.1,0,0,0,134.133,80a1.87,1.87,0,0,0,.362-2.765,2.985,2.985,0,0,0-1.7-.771Z" fill="#fff"/>
        <path id="패스_691" data-name="패스 691" d="M129.234,87.324l-4.715-1.431.758-2.494,7.352,2.232c.525.16.967.285,1.323.378s.674.17.952.235l-.723,2.379a3.074,3.074,0,0,1-.365-.072q-.28-.064-.628-.152t-.652-.165c-.205-.052-.352-.092-.441-.118l-.011.035a7.244,7.244,0,0,1,1.234,1.082,1.887,1.887,0,0,1,.407.861,2.269,2.269,0,0,1-.1,1.036,1.954,1.954,0,0,1-.368.731l-2.086-.633a5.074,5.074,0,0,0,.457-1.025,1.739,1.739,0,0,0-.314-1.68,4.144,4.144,0,0,0-2.079-1.2" fill="#fff"/>
        <path id="패스_692" data-name="패스 692" d="M22.314,118.437a2.266,2.266,0,0,1,2.266-.842,10.686,10.686,0,0,1,4.442,2.445,10.575,10.575,0,0,1,3.345,3.79,2.354,2.354,0,0,1-2.591,3.239,10.632,10.632,0,0,1-4.419-2.451,10.739,10.739,0,0,1-3.37-3.787,2.27,2.27,0,0,1,.327-2.394m1.447,1.159a.965.965,0,0,0-.11.978,8.891,8.891,0,0,0,2.673,2.837,8.75,8.75,0,0,0,3.338,1.977.953.953,0,0,0,.945-.311.968.968,0,0,0,.1-.99,8.736,8.736,0,0,0-2.658-2.825,8.866,8.866,0,0,0-3.352-1.987.983.983,0,0,0-.932.321M38.793,117.3l-7.829-6.27L29.551,112.8l7.895,6.322-.966,1.207-4.007-3.208-1.01,1.261,4.724,3.782L35.2,123.4l-10.84-8.68.989-1.234,4.683,3.752,1.01-1.262-3.889-3.113,3.359-4.194,9.261,7.416Z" fill="#fff"/>
        <path id="패스_693" data-name="패스 693" d="M38.3,123.826l.629-1.431,12.718,5.586-.63,1.431-5.541-2.433-.534,1.215,4.624,2.031-1.655,3.766-9.184-4.034-.452,1.028,9.5,4.171-.6,1.37-11.176-4.91,1.648-3.752,9.169,4.028.459-1.043-9.17-4.027.6-1.371,4.577,2.011.534-1.214ZM53.043,122.3l-1.879,4.281L40.3,121.809l1.88-4.28ZM42.58,121.177l7.488,3.289.67-1.525-7.488-3.289Z" fill="#fff"/>
        <path id="패스_694" data-name="패스 694" d="M56.947,126.447l8.285,1.278L65.7,124.7l1.832.283-1.422,9.226-5.025-.775-.54,3.5,5.815.9-.244,1.579-13.528-2.087.244-1.579,5.9.909.54-3.494-5.109-.788,1.422-9.226,1.832.282Zm7.575,5.882.464-3.008L56.7,128.044l-.463,3.008Z" fill="#fff"/>
        <path id="패스_695" data-name="패스 695" d="M82.623,124.759l.178,1.589-12.762,1.42-.177-1.589,5.443-.605-.213-1.911,1.877-.209.212,1.911Zm-11.72,7.4a2.716,2.716,0,0,1,1.189-2.545,9.238,9.238,0,0,1,4.441-1.453,9.1,9.1,0,0,1,4.76.481,2.711,2.711,0,0,1,.5,4.684,7.865,7.865,0,0,1-3.579,1.356l.265,2.383,5.866-.653L84.523,138l-13.605,1.514-.177-1.588,5.933-.661L76.41,134.9a8.655,8.655,0,0,1-3.626-.452,2.718,2.718,0,0,1-1.881-2.289m1.843-.206a1.337,1.337,0,0,0,.957,1.075,9.488,9.488,0,0,0,6.66-.741,1.326,1.326,0,0,0,.715-1.26,1.4,1.4,0,0,0-1.05-1.132,8.093,8.093,0,0,0-3.322-.178,7.249,7.249,0,0,0-3.377,1.025,1.322,1.322,0,0,0-.583,1.211" fill="#fff"/>
        <path id="패스_696" data-name="패스 696" d="M89.133,127.845a6.856,6.856,0,0,1-2.215,4.005l-.625-1.6a4.756,4.756,0,0,0,.718-5.266L85.99,122.37l1.695-.661,1,2.566a4.316,4.316,0,0,0,3.977,3.121l.625,1.6a6.469,6.469,0,0,1-4.156-1.15m12.77,4.833-11.136,4.351-1.906-4.879,1.727-.674,1.324,3.389,9.41-3.676Zm-9.561-9.794-1.014-2.6,1.616-.632,3.757,9.615-1.617.631-2.166-5.544-2.09.817-.576-1.473Zm5.9,6.114-3.906-10L96,118.352l3.9,10Z" fill="#fff"/>
        <path id="패스_697" data-name="패스 697" d="M110.963,125.572l-4.69,3.435-8.334-11.382,5.965-4.368.963,1.315-4.483,3.285,2.68,3.661,3.964-2.9.954,1.3-3.963,2.9,2.782,3.8,3.277-2.4a9.636,9.636,0,0,0,2.2-2.055l.9,1.235a8.87,8.87,0,0,1-2.222,2.173m-3.256-15.437,9.107,12.438-1.494,1.094-4.489-6.13-2.345,1.718-.955-1.3,2.346-1.716-3.666-5Z" fill="#fff"/>
        <path id="패스_698" data-name="패스 698" d="M127.722,107.683a1.033,1.033,0,0,1-.111-.006,1,1,0,0,1-.884-1.1,16.22,16.22,0,0,0,.052-4.415,5.964,5.964,0,0,0-.848-2.1.447.447,0,0,1-.08-.093,2.679,2.679,0,0,0-1.586-1.113c-.041-.006-.106-.018-.147-.028a1.714,1.714,0,0,0-1.811.833c-.255.345,0,1.308.218,1.751a1,1,0,0,1-1.8.877c-.116-.238-1.1-2.365-.028-3.818a3.618,3.618,0,0,1,3.879-1.591A4.629,4.629,0,0,1,127.4,98.7a7.222,7.222,0,0,1,1.319,2.992,17.062,17.062,0,0,1-.008,5.1,1,1,0,0,1-.993.89" fill="#fff"/>
        <path id="패스_699" data-name="패스 699" d="M122.648,109.114A6.3,6.3,0,0,1,120,108.72a4.618,4.618,0,0,1-2.575-2.164,3.616,3.616,0,0,1,.383-4.175c1.011-1.369,3.451-1.322,3.926-1.3a1,1,0,0,1,.95,1.045,1.016,1.016,0,0,1-1.044.953,3.583,3.583,0,0,0-2.223.49,1.716,1.716,0,0,0-.266,1.976,1.031,1.031,0,0,1,.079.151,2.694,2.694,0,0,0,1.521,1.17,1.087,1.087,0,0,1,.169.08,5.045,5.045,0,0,0,1.722.17c.164,0,.342,0,.533-.01a16.757,16.757,0,0,0,4.152-1.342,1,1,0,0,1,.795,1.836,17.386,17.386,0,0,1-4.826,1.5q-.343.014-.644.013" fill="#fff"/>
        <path id="패스_700" data-name="패스 700" d="M10.491,103.445c-.621,0-2.541-.115-3.341-1.494a3.621,3.621,0,0,1,.085-4.194,4.618,4.618,0,0,1,2.8-1.864,7.231,7.231,0,0,1,3.269-.02A17.035,17.035,0,0,1,17.98,97.91a1,1,0,0,1-.994,1.736,16.237,16.237,0,0,0-4.029-1.805,6.036,6.036,0,0,0-2.266-.059.421.421,0,0,1-.117.037,2.667,2.667,0,0,0-1.651,1.012c-.023.036-.059.091-.085.124a1.712,1.712,0,0,0,.043,1.993c.205.352,1.132.514,1.7.5a.974.974,0,0,1,1.038.958,1,1,0,0,1-.952,1.04c-.031,0-.091,0-.173,0" fill="#fff"/>
        <path id="패스_701" data-name="패스 701" d="M12.786,108.21a3.7,3.7,0,0,1-3.194-2.047c-.853-1.472.159-3.689.37-4.119a1,1,0,0,1,1.8.882,3.542,3.542,0,0,0-.436,2.235,1.709,1.709,0,0,0,1.707,1.028,1.316,1.316,0,0,1,.171-.011,2.7,2.7,0,0,0,1.678-.931,1.012,1.012,0,0,1,.14-.122,7.127,7.127,0,0,0,1.044-2.006,16.815,16.815,0,0,0,.421-4.343,1,1,0,0,1,1-1h0a1,1,0,0,1,1,1,17.4,17.4,0,0,1-.541,5.024,7.334,7.334,0,0,1-1.662,2.872,4.62,4.62,0,0,1-3.009,1.5,3.641,3.641,0,0,1-.485.034" fill="#fff"/>
      </g>
    </g>
    <rect id="사각형_467" data-name="사각형 467" width="140" height="140" transform="translate(432 636)" fill="none"/>
  </g>
</svg>
